<?xml version="1.0" encoding="UTF-8"?><svg id="Layer_1" xmlns="http://www.w3.org/2000/svg" width="707.7" height="188" viewBox="0 0 707.7 188"><g id="f1Oc6P.tif"><path d="M697.83,87.31c.13,1.21-.91,1.5-1.62,2.03-1.57,1.18-3.51,1.99-4.09,4.15-2.3,1.7-4.2,4-7.56,3.89-1.8-.06-3.63.69-5.43,1.06.71-.73,1.41-1.45,2.47-2.55-1.04,0-1.59-.13-2.03.03-1.13.4-2.21.93-3.31,1.41-.16-.45-.32-.9-.48-1.37q-2.66,1.22-3.51,3.11c1.49-.68,2.8-1.27,4.11-1.87.6,1.26,1.96.61,2.85,1.15-.77.57-1.55,1.14-2.33,1.71-1.4.12-3.12-1.04-4.06,1,.27.08.56.26.76.2,1.12-.37,2.22-.79,3.32-1.2.03.26-.04.68.1.77,1.08.66,2.17,1.34,3.34,1.83.39.16,1.01-.24,1.52-.38l-.06-.12c.77.33,1.54.65,2.31.98-.21.31-.36.76-.65.92-.98.51-2.48.4-2.15,2.24.05.28-.67.72-1.06,1.05-.66.55-1.35,1.07-2.33,1.85,4.6-.79,6.06-1.92,7.65-5.8-.55-.06-1.06-.11-1.55-.17.8-.9,1.59-1.79,2.38-2.69.27-.24.54-.48.8-.73.68-.8,1.22-1.85,2.07-2.35,2.53-1.51,5.19-2.81,7.81-4.16.2-.1.49-.01.89-.01-.03,1.56-1.49,1.71-2.32,2.4-.82.68-1.73,1.25-2.56,1.84.03.23.01.43.07.45.36.15.73.26,1.38.49-.51.54-1.05.92-1.33,1.45-.31.56-.43,1.24-.54,1.88-.29,1.76-1.46,2.77-2.86,3.67-.9.58-1.9,1.18-2.47,2.03-1.44,2.14-3.64,3.07-5.77,4.17-1.42.74-2.8,1.55-4.29,2.37-.38-.24-.82-.51-1.42-.88-.83.49-1.71,1.1-2.67,1.53-1.44.64-1.41,2.61-3.01,3.11-1.39.44-2.73,1.06-4.1,1.6-.26-.51-.46-1.27-.94-1.72-.57-.54-1.25-.06-1.84.29-.69.41-1.39.82-2.07,1.24-.34.21-.65.48-1,.67-.95.51-2.03-.7-3.02.34-.72.75-1.71,1.24-2.59,1.83-.06.04-.23-.07-.48-.16.07-.33.03-.77.23-1,.9-1.03,1.72-2,.53-3.4-.19-.22.13-.87.29-1.74-1.92.88-2.93,2.18-4.22,3.09-1.41,1.01-3.16.14-4.92,1.33.11-1.78,1.49-2.34,1.75-3.44-.24-.07-.52-.25-.62-.17-1.29.97-2.55,1.98-3.83,2.95-.48.36-1.01.64-2.28,1.43.88-2.04,1.44-3.14,2.72-3.71.28-.27.57-.56.86-.85,3.42-2.6,6.85-5.19,10.24-7.83.34-.27.47-.81.82-1.45-2.34-.15-3.98.57-5.36,1.97v-2.15c-5.5,2.62-10.53,5.11-14.49,9.28-1.03,1.08-1.91,2.32-3.68,1.97h.08c-3.43,1.52-4.39,2.31-6.73,5.56-.2-.65-.39-1.26-.64-2.08-.51.22-1.01.34-1.41.62-.66.46-1.22,1.07-1.89,1.52-4.43,2.94-6.37,7.29-6.54,12.36-.21,6.32-.28,12.66.02,18.97.23,4.66,2.69,8.7,4.88,12.72,1.34,2.47,2.77,4.9,4.11,7.26-1.19,2.58-4.37,3.12-4.74,6.03-1.17-.13-2.21-.24-3.21-.35-.16-.28-.35-.5-.4-.74-.54-2.49-.97-5.01-1.6-7.48-.49-1.91-.75-3.96-2.42-6.11,0,1.07-.09,1.57.02,2.03.59,2.49,1.19,4.97,1.87,7.44.41,1.47.64,2.89-.05,4.33l.03-.07c-.93.68-1.86,1.36-2.79,2.04l.04.1c-.32-.84-.68-1.61-1.77-.86l.09-.12c-1.97-1.74-2.26-4.08-2.08-6.45-1.07-.33-1.51.12-1.52.89-.05,2.28-.02,4.57-.02,6.72-1.54-3-2.71-6.23-2.67-9.9-.09.51-.27,1.02-.24,1.52.1,1.74.27,3.48.42,5.22v-.04c-.71.14-1.41.27-2.33.45-.75-3.99-.03-7.79-.75-12.24-1.47,4.31-.65,8.05-.89,11.77h-2.62c-.3-.95-.6-1.91-.91-2.88-1.52.36-.81,1.68-1.4,2.32-.9.44-1.38.05-2.48-2.2-.69.85-1.29,1.59-1.9,2.33-1.55-.72-.24-2.26-.97-3.27-2.52-.75-3.15,1.76-4.65,2.79-.77-.17-.73-.68-.42-1.18,1.5-2.39,3.03-4.75,4.54-7.14,1.3-2.07,2.11-4.32,2.53-6.75.77-4.37,1.49-8.75,1.4-13.21-.09-4.59.46-9.12,1.24-13.63,1.19-6.87.88-7.63-4.88-11.8-2.17-1.57-4.43-2.99-6.44-4.34-1.51.15-2.26,1.67-3.87.91,0-.5-.1-1.13.02-1.72.3-1.47-.51-1.92-1.73-2.09-1.55.82-1.01,2.64-2.05,4.08-.32-.82-.57-1.47-.82-2.12.22-.81,1.85-1,.84-2.91-.35,1.38-.56,2.2-.77,3.02-.95-.25-1.94.2-2.93-.55-.55-.41-1.71,0-2.6.02-.91.01-.95-.7-1.07-1.34l-.11.04c.3-.59.61-1.17.91-1.76l-.09.14c.29-.61,1-1.22-.03-1.81l.1.02c.31-.67.37-1.53-.39-1.65-1.22-.19-2.15-.81-3.18-1.36-1.13-.61-2.06-.14-2.5,1.08-.04.12-.16.26-.14.37.78,4.02-2.65,3.77-4.84,4.79-1.52-.44-2.42.79-3.79,1.52-.19-.54-.35-.98-.51-1.43l-.12.06c.61-.22,1.23-.42,1.82-.69.22-.1.39-.36.54-.58,1.59-2.3,3.19-4.59,4.74-6.91.64-.97.29-1.54-1.19-2.16.11-.42.23-.83.34-1.25-.35.03-.7.05-1.04.09-.12.01-.24.05-.36.08l.12.07c-.4-1.59-.66-1.93-1.57-1.7-2.35.58-4.79,1.05-5.56,3.95-.08.32-.8.47-1.23.7l.09.1c.14-.85,1.39-1.37.79-2.47-1.19-.27-1.89.47-2.38,1.19-2.01,2.91-4.85,4.99-7.27,7.49-1.68,1.74-3.37,2.51-5.72,1.59-.28-.55-.57-1.14-.88-1.74-.78.1-1.55.21-2.39.32-.14-1.26-.48-2.42-.33-3.52.12-.96.79-1.85,1.38-3.13-2.19.21-2.52,2.36-4.04,2.78-.1-.35-.2-.7-.3-1.06-.3.11-.64.16-.89.34-.16.12-.19.42-.28.65.3.07.59.19.89.18.24,0,.47-.15.71-.24-.46,1.34-1.02,2.6-2.8,2.15-1.55-.39-2.12,1.59-3.57,1.39-.2-1.35-1.19-1.85-2.52-2.24.4-.97.78-1.91,1.17-2.85-.56-.14-.91-.22-1.3-.31,1.56-2.28,3.02-4.52,4.59-6.67,1.53-2.09,3.31-3.64,6.26-3.41,1.93.15,3.62-.82,4.65-2.63.46-.8.94-1.59,1.63-2.75-2.47.08-4.55.46-6.24,1.62-1.82,1.25-3.81,2.03-5.86,2.49-2.13.48-3.72,1.34-4.73,3.28-.23.45-.72.77-1.1,1.15-.12-.21-.21-.59-.37-.61-.3-.06-.64.06-.95.15-.07.02-.09.2-.14.31.28.08.57.22.85.24.24.01.48-.13.72-.2-.51,1.16-1.02,2.31-1.76,4,1.42-.83,2.39-1.39,3.36-1.96l-.1-.09c-.68,1.67-1.91,2.85-3.5,4.04-.68-.86-1.23-1.55-1.89-2.39-.39.03-.99.07-1.59.11-.11-.29-.33-.57-.27-.75.3-.88.69-1.73,1.02-2.61.23-.61.63-1.27.57-1.87-.34-3.32,1-5.99,2.99-8.47.55-.68.93-1.49,1.37-2.21-.9-.8-1.53-.37-1.93.12-1.26,1.57-2.46,3.19-3.62,4.84-.81,1.15-1.83,2.04-3.17,2.33-.7.15-1.54-.11-2.26-.36-.7-.25-.6-.79.26-1.75.28.42.56.83.83,1.24.27-.05.58-.01.76-.15,3.44-2.5,5.5-6.21,8.19-9.37.68-.79,1.45-1.5,2.19-2.24l-.09-.1c-.31.94-.61,1.88-1.05,3.21.92-.28,1.41-.38,1.85-.58,2.15-.96,4.24-2.03,6.54-2.67,2.24-.62,3.94-1.94,5.12-4.11.65-1.21,1.98-2.05,3-3.06-.77,1.31-1.55,2.62-2.46,4.15,2.72.42,4.02-1.44,5.65-2.59.39.54.99.6,1.36.18,1.15-1.3,2.22-2.67,3.28-4.04.33-.43.52-.92-.34-1.34-1.11,1.01-2.27,2.08-3.44,3.15.24-.56.49-1.13.89-2.07-1.05.19-1.78.14-2.27.45-1.01.64-1.89,1.49-2.82,2.25-.42-.29-.92-.9-1.25-.82-1.81.44-3.64.88-5.11,2.21-.55.5-1.35.75-2.03,1.11v.06c-.69-.81-1.1.05-1.53.31-1.21.72-2.21,1.85-3.79,1.76l.09.06c-.56-.34-1.07-.83-1.83-.43-1.19.62-2.38,1.22-3.6,1.77-.18.08-.65-.08-.7-.23-.12-.35-.2-.83-.05-1.12.15-.28.61-.4.95-.59.89-.49,1.38-1.19,1.33-2.26-1.95-.27-3.43.86-4.99,1.49-.7.28-1.61,1.61-1.44,2.16.5,1.62-.49,2.52-1.11,3.66-.7,1.28-1.36,2.6-1.97,3.93-1.06,2.35-2.66,4.29-4.53,6.61-.5-1-1.19-1.72-1.07-2.27.22-1.03.65-1.85.1-3.01-.41-.86.53-1.63,1.34-2.21,2.44-1.77,4.03-4.14,4.86-6.98-.97-.71-1.45-.06-1.88.36-1.61,1.62-3.16,3.29-4.73,4.94l.08.1c.23-1.84.45-3.67.69-5.51.03-.26.1-.65.27-.73,1.82-.9.99-3.24,2.46-4.36.95-.73,1.75-1.67,2.57-2.56.22-.24.27-.64.51-1.25-1.28.34-2.31.46-2.71,1.64.46-.55.62-1.2.04-1.63-.23-.17-.89.11-1.27.32-.43.24-.76.63-1.14.96.74-2.95,2.83-4.44,5.61-5.17-.49.6-1.26,1.04-1.45,2.14,3.11-1.61,5.48-3.56,7.73-6.48-3.1.81-4.44,3.11-6.44,4.49.28-1.47,1.26-2.78.38-4.49-.63-1.22.44-2.16,1.5-2.8.06.61.13,1.21.27,2.55.74-1.11,1.06-1.6,1.61-2.43h-2.01c.15-1.92.86-3.63,1.93-5.21l.06-.04c-.17.59-.33,1.17-.5,1.75,1.28.53,1.67-.35,2.07-.93.84-1.21,1.74-2.11,3.18-2.78,1.5-.69,2.62-2.19,3.9-3.34-.19.47-.36.95-.56,1.42q-.72,1.66,1.01,3.06l-.08-.06c-.39.26-.99.4-.51,1.32,2.54-1.8,4.68-3.92,6.82-5.99-.95-1.68-2.27.53-3.16-.48-.54-1.23,1.32-1.99.58-3.49-1.9,1.22-2.89,2.98-4.24,4.37.63-1.62,1.23-3.25,1.92-4.84.2-.47.58-1.1.99-1.21,2.48-.69,3.53-2.73,4.63-4.71.56-1.01,1.29-1.47,2.39-1.83,1.08-.35,1.98-1.27,3.34-2.2-.02,1.58-.53,2.39-1.48,2.97-1.67,1-2.64,2.55-3.67,4.28,1.55-.14,1.69-.02,2.67-1.29.75-.98,1.85-1,2.74-1.55.86-.53.98-2.02,2.4-1.83.43.9-.46,1.1-.8,1.58-.46.65-1.02,1.25-1.39,1.95-.3.57-.37,1.26-.49,1.7-.91.79-2.1-.22-2.69.86-.29.54-.54,1.1-.9,1.83,1.88.18,3.24-.17,4.29-1.4,2-2.33,4.75-3.99,6.13-6.89.26-.54.95-.87,1.51-1.35-.45-.14-.78-.24-1.1-.34,1.13-3.29,2.18-4.85,4.21-6.26h.01c1.29-.05,1.74-1.12,2.38-1.95.81-1.05,1.67-1.93,2.83-2.72,2.04-1.39,4.23-2.79,5.59-4.92-.28-.9-.84-.62-1.34-.58-.49.04-.99,0-1.83,0,.82-2.04,1.62-3.61,3.52-4.44,1.87-.81,3.46-2.05,4.71-3.68.87-1.13,1.88-1.9,3.4-1.46.75,1.81.41,3.26-.78,4.84-1.42,1.89-2.4,4.12-3.51,6.09.63.91,1.17.48,1.5.18,2.58-2.34,5.12-4.68,5.68-8.44.14-.94,1.15-1.42,2.2-.84-.01-.02-.06-.09-.06-.09q.9,1.65-.67,3.34c0-.3,0-.59,0-.51,0-.09-.01.2-.04.49.95,1.21,1.35,1.36,2.11.72,1.67-1.4,3-3.05,3.94-5.04.38-.8,1.02-1.48,1.5-2.15,1.66.54,1.68,1.75,1.77,2.92.25-.03.58.04.72-.1,1.63-1.59,3.22-3.2,5.09-5.08.32.07.94.2,1.64.35-.23.71-.42,1.29-.68,2.08,1.97-.75,3.83-1.67,5.71-.23.88-.55,1.75-1.09,2.58-1.62,1.19,1.19-.61,2.09.16,3.3,1.86-.72,3.2-2.23,4.78-3.39.97-.72,1.83-1.59,2.84-2.25.49-.32,1.2-.33,2.15-.56-.23,1.07-.38,1.79-.6,2.85,1.63-1.21,3.05-2.27,4.47-3.32.07.07.14.15.22.22-1.05,1.16-2.06,2.36-3.16,3.47-.75.76-.83,1.6-.63,2.57-1.25,1.89-3.73,1.24-5.29,2.52-1.43,1.18-2.94,2.26-4.98,3.81,1.39-.09,2.23.08,2.81-.23,2.84-1.53,5.63-3.14,8.38-4.83.64-.4,1.01-1.23,1.55-1.81,1.28-1.38,2.57-2.74,3.9-4.07.51-.51,1.15-.9,2-1.03-.91,1.09-1.82,2.19-2.73,3.29,1.39,1.81,2.69.1,4.1.19-.48.73-.9,1.38-1.51,2.29,1.68.17,2.51-.98,3.52-1.61,1.02-.64,1.93-1.44,2.99-2.25,1.1.62,2.13,1.19,3.55.91,1.16-.23,2.37-.13,3.51-.63,1.09-.48,2.23-.89,3.37-1.23.31-.09,1.01.16,1.04.33.07.45.04,1.11-.24,1.39-2.48,2.45-5.02,4.84-7.54,7.25.25-.62.49-1.23-.47-1.83-.64.52-1.37,1.06-2.01,1.68-.54.52-.99,1.13-1.48,1.7.09.1.18.19.27.29l3.97-2.14c-.27.42-.54.84-.94,1.45,3.44.86,4.37-2.49,6.72-3.35-.01,1.24-1.14,1.7-1.68,2.52-.5.77-1.15,1.44-1.79,2.23,2.27-.18,3.09-.49,4.59-1.79,1.21-1.05,2.4-2.14,3.95-3.52-.65,2.36-2.78,3.17-3.56,5.29,1.83.02,2.98-1.33,5-1.77-1.38,1.62-2.37,2.8-3.5,4.13,2.73-.37,6.42-1.98,8.89-3.82,1.21.23,2.44.75,3.75-.18.46-.33,1.48.14,2.25.24l-.09-.09c-.36,1.19-1.59,1.23-2.4,1.82-.94.68-1.97,1.28-2.03,3.01,1.29-.69,2.38-1.31,3.5-1.85,2-.96,3.74-2.48,6.06-2.74l-.07-.09c.52.72,1.05,1.44,1.56,2.16q-1.82-.16-2.48.82c.81-.27,1.64-.54,2.47-.82.28-.41.49-.88.84-1.21.69-.63,1.46-1.17,2.2-1.75l-.1.05c.45.43.91.84,1.6.46l-.08-.04c-.49.6-.89,1.33-1.49,1.78-1.29.96-2.73,1.71-4.03,2.66-1.17.85-2.47,1.6-3.14,3.02.32.13.57.33.76.28.38-.09.75-.28,1.09-.49,2.82-1.74,5.64-3.48,8.76-5.42-.5.83-.82,1.36-1.26,2.1.55.49,1.12.99,1.68,1.49-.78.06-1.55.12-2.32.19-.6.54-1.2,1.08-2.34,2.1,1.74-.48,2.83-.61,2.34-2.11.82.42,1.58.41,2.25-.25,1.38-.73,2.76-1.45,4.73-2.48-.62.92-.88,1.32-1.15,1.71-.28.4-.57.8-1.38,1.91,2.39-1.04,3.52-2.39,4.93-3.3,1.31-.84,2.48-1.96,4.83-2.18-1.25,1.57-2.11,2.65-2.97,3.73,1.18,1.04,1.66-.72,2.62-.27,0,.03.1.34-.02.48-.62.79-1.29,1.54-2,2.38,1.55.72,2.09-.78,3.11-.9.08.19.29.48.22.57-.94,1.28-1.91,2.53-2.97,3.91.25.91,1.08.85,1.83.49.71-.35,1.32-.92,1.96-1.41,1.17-.9,2.32-1.82,3.52-2.77.61,1.05-.35,1.26-.73,1.64-1.24,1.23-2.59,2.36-3.85,3.57-.34.32-.52.8-1.1,1.71,3.2-.73,5.11-2.78,7.57-3.79.41,1.15-.61,1.41-1.04,1.94-.5.62-1.18,1.11-1.72,1.71-.53.6-.98,1.26-1.66,2.15,2.16.23,3.73-.67,5.54-1.34-.67.89-1.34,1.78-2.09,2.8,1.19.63,1.85-.18,2.57-.61.8-.47,1.56-1,2.3-1.48.89.75.18,1.09-.15,1.32-2.23,1.5-4.35,3.12-6.28,5.35,1.46.73,2.32-.77,3.42-.49.04.22.19.55.09.66-.96,1.08-1.96,2.12-3.07,3.31,2.23.89,3.77-.72,5.89-.98-1.82,2.45-5.02,2.89-5.92,5.66.44.93,1.14.61,1.7.34,2.54-1.24,5.05-2.56,7.58-3.81.94-.47,1.89-1.15,3.2-.26-.71,1.44-2.36,1.51-3.44,2.33-1.07.81-2.2,1.56-3.21,2.44-1.09.96-2.08,2.05-3.05,3.03.55,1.14,1.22.68,1.77.47,3.4-1.29,6.78-2.63,10.18-3.92,1.22-.46,2.48-.85,4.4-1.5-1.5,2.23-3.49,2.71-4.69,4.05-1.13,1.26-2.08,2.67-3.41,4.4,1.82-.2,2.87-1.06,4.06-1.53,1.25-.49,2.49-1.03,3.73-1.54h-.07c.17.83-.43,1.2-1.01,1.51-1.18.64-2.4,1.21-3.58,1.84-2.13,1.14-4.09,2.49-5.58,4.32.29,1.05,1.04,1.04,1.65.94,1.24-.21,1.57.73,2.1,1.44-1.79-.79-2.82.3-3.73,1.56-.02.03.63.53.97.82-.03.5-.06,1-.11,1.83,1.36-.43,2.45-.78,3.7-1.17-1.44,2.92-5.01,3.44-6.8,6.44.88-.11,1.49-.06,1.98-.27,2.35-1,4.65-2.1,6.99-3.11,1.34-.58,2.73-1.05,4.17-1.6.51,1.28-.48,1.55-1.03,1.88-2.66,1.58-4.97,3.58-7.62,5.64,2.51.16,2.56.25,4.99-1.08,1.81-.99,3.62-1.26,6.1-.89-3.74,2.81-8.55,2.84-11.35,6.6,1.68,0,3.12.14,4.51-.06.69-.1,1.37-.76,1.93-1.3,2.24-2.17,3.1-2.63,7.42-3.62-3.3,3.13-7.22,4.77-9.93,8.25.62,0,1.09.12,1.49-.02,2.91-1.01,5.81-2.06,8.71-3.1l-.09-.08c-1.55,1.74-3.77,2.42-5.73,3.47-3.2,1.7-6.4,3.3-9.07,5.85-1.13,1.08-2.74,1.66-4.09,2.52-.75.48-1.43,1.06-2.67,2,2.77.07,4.49-.68,6-2.04-.88.5-1.11,1.3-1.08,2.24-1.08.06-2.09.29-2.96,1.45,1.3.14,2.45.35,3.6.33.32,0,.62-.7.93-1.08,1.03-.55,2.11-1.03,3.06-1.68.31-.21.53-.93.43-1.32-.2-.72-.84-.88-1.57-.63-.85.3-1.73.55-2.59.82,4.24-3.73,9.08-6.46,14.13-8.92.47.9-.22.99-.6,1.24-1.79,1.18-3.61,2.31-5.36,3.54-.63.44-1.12,1.1-1.98,1.98,2.38.14,3.93-1.03,5.63-1.62l-.08-.1ZM671.04,105.14c-.2.11-.42.22-.61.35-.09.06-.13.19-.2.28.21.02.53.13.62.03.13-.14.08-.43.14-.65.02,0,.03-.01.05-.02ZM661.03,31.02c.98-.73-.04-.6-.34-.78.04-.36.07-.71.11-1.07.97.15,1.96.74,3.35-.22-1.45-.5-2.38-.48-3.23.35-.27.25-1.14.42-.1.84.1.32.21.65.3.96-.13,0-.27-.01-.39.02-.1.03-.17.12-.26.18.19-.09.38-.19.57-.28ZM597.45,42.28l.06-.04c1.3-1.39,2.81-2.46,4.49-3.37,2.61-1.41,4.71-3.44,6.91-6.03-1.07-.11-1.7-.17-2.33-.24,2.85-1.51,5.71-3.01,8.56-4.53,1.62-.86,3.34-1.6,4.75-3.26-1.6-.72-2.86-.51-4.11,0-2.49,1.02-4.97,2.07-7.48,3.05-2.7,1.05-4.93,2.75-6.85,4.87-.29.32-.38.82-.64,1.43h3.5c-1.01,1.18-2.41,2.08-3.81,1.65-1.47-.46-2.28.02-3.15.9-1.79,1.79-3.6,3.57-5.35,5.41-1.24,1.31-1.19,1.35-1.66,4.54,2.02-1.04,4.27-.65,6.12-2.26-.47-.55-.8-.94-1.13-1.33.71-.26,1.42-.53,2.13-.79ZM612.01,37.22c.58-.42,1.18-.82,1.74-1.28.35-.29.65-.65.97-.98.49-.12.99-.22,1.47-.37.08-.03.11-.23.17-.35-.2-.08-.51-.29-.59-.23-.36.3-.66.68-.97,1.03-2.27.16-2.63.45-2.78,2.17-.19-.16-.36-.37-.58-.45-.11-.04-.31.17-.47.27.12.02.23.03.35.05.23.04.46.08.7.12ZM686.79,52.83c-1.18-.33-1.96.19-2.66,1.42,1.43.19,2.4.07,2.59-1.51.29-.07.58-.14.87-.2-.06-.1-.13-.2-.19-.3-.2.2-.41.39-.61.59ZM656.56,43.61c1.09-.58,2.19-1.16,3.46-1.83-1.38-.6-2.4-.44-3.17.43-.27.3-.18.92-.28,1.39-.28-.12-.57-.23-.85-.35l-.04.1c.29.09.59.17.88.26ZM615.45,81.1q-2.06,1.15-2.34,2.92c2.12.02,2.05-1.6,2.26-3,.79-.06,1.59-.12,2.38-.18.46-.63.79-1.44,1.39-1.88,3.01-2.2,6.27-4.12,7.5-8,.1-.32.58-.54.93-.75.81-.48,1.7-.84,2.45-1.4,1.23-.92,2.59-1.78,3.3-3.8-2.27.75-4.14,1.36-6.01,1.98-.38.13-.76.26-1.13.43-.24.11-.49.26-.66.45-1.58,1.77-3.77,3.08-4.19,5.7-1.97,1.57-4.25,2.86-5.14,5.64.52.53,1.06,1.1,1.56,1.63-.83-.5-1.62-.59-2.31.24ZM596.11,93.23c.41-.23.97-.37,1.19-.72.56-.92-.03-.99-.77-.82.24-.76.57-1.51.7-2.3.07-.42-.17-.9-.37-1.76-2.27,2.15-3.79,4.35-5.45,6.41-.79.98-.85,1.99-.26,2,.58.01,1.18-.37,1.73-.65.2-.1.3-.42.44-.64-.18.71-.71,1.5.56,1.98.97-.99,2.15-1.87,2.23-3.5ZM670.36,44.55q-3.99-.17-5.6,1.86c2.15-.31,4.1-.25,5.53-1.92.76.09,1.57.49,2.41-.74-1.01.34-1.67.57-2.34.8ZM638.68,71.15c-1.65.45-3.32.85-4.94,1.4-.39.13-1.3.18-.95,1.28,1.64-.52,3.28-.97,4.86-1.57.4-.15.64-.74.98-1.11.23.01.45.02.33.02.13,0-.07,0-.28-.02ZM667.19,37.14c.61-.17,1.22-.36,1.84-.51,1.48-.35,2.44-1.21,3.07-3.13-1.63.62-2.83,1.05-4,1.55-.46.2-.85.57-1.28.87.15.47.27.84.37,1.21-.97,0-1.94-.01-2.91-.02-.1-.37-.2-.75-.3-1.11-5.22.42-7.45,1.39-9.36,4.06.96.58,1.82-.07,2.65-.3,1.41-.38,2.75-1.02,4.12-1.55.97-.37,1.94-.73,2.92-1.1l2.87.02ZM550.06,48.8c-2.03.73-3,2.43-4.53,4.68,1.84-.55,2.84-1.17,3.74-1.86.93-.72,1.18-1.76.7-2.9,1.62-.13,2.3-1.23,3.37-3.24-2.11.95-3.27,1.57-3.29,3.32ZM573.46,59.23c2.65-1.23,3.9-3.85,5.77-5.85.19-.2.12-.64.27-1.57-2.56,2.57-4.87,4.53-5.96,7.5-1.42.32-1.9,1.43-2.21,2.67,1.06-.64,2.12-1.29,2.14-2.74ZM557.95,52.91c-1.14.17-2.3.18-3.11,1.31-.84,1.18-1.89,2.2-2.8,3.34-.28.35-.38.85-.66,1.5,1.8-.66,1.79-.67,2.17-1.11,1.46-1.69,2.93-3.37,4.4-5.06.12.52.28,1.2.95.93,1.71-.69,3.36-1.54,4.7-3.37-1.56-.48-2.65-.2-3.61.55-.73.57-1.36,1.26-2.04,1.9ZM547.36,99.83q2.36-2.07,2.68-3.97c-2.42.2-3.39,1.1-3.43,3.28,0,.2.56.42.86.63-.37.74-.88,1.25-1.8,1.27-1.52.02-1.96.99-2.02,2.33,3.17-.14,4.04-.39,5.02-1.62.39-.49.81-1.19.16-1.71-.33-.27-.97-.14-1.47-.2ZM543.68,94.83c.42.25.91.77,1.26.69,1.81-.4,2.68-2.26,2.23-4.5-.17-.95-.8-.9-1.45-.61-2.13.94-2.85,2.87-3.7,4.93.55-.03.81.01,1.02-.07.24-.09.43-.29.64-.44ZM638.45,85.42c2.11-1.8,4.23-3.6,6.32-5.42.08-.07-.09-.44-.19-.87-2.76.96-4.59,2.93-6.13,5.23-.17.26.05.77.07,1.14q-1.27-.17-1.75,1.2c.74-.56,1.21-.92,1.68-1.29ZM546.74,63.43c.18.33.35.66.61,1.13,1.01-.72,1.96-1.29,2.36-2.64-1.56-.2-1.99,1.36-3.08,1.64-.27-.68-.74-1.23-1.47-.81-1.81,1.04-3.46,2.3-4.55,4.26,2.23.02,2.6-.06,3.66-1.05.85-.81,1.65-1.68,2.48-2.54ZM626.36,25.68c-1.4.75-2.8,1.52-4.22,2.26-1.42.74-2.88,1.42-4.28,2.2-.37.2-.59.67-.88,1.01,3.22-.81,6.06-2.22,8.85-3.69.65-.34.85-.99.5-1.71.11.05.23.1.34.16-.1-.08-.21-.16-.31-.23ZM656.02,54.5c-.13-.48-.26-.96-.4-1.47q-2.98,1.48-4.81,3.97c1.06-.37,2.05-.71,3.03-1.05,0,.66.39.99.97.86,1.65-.38,3.31-.76,4.91-1.32.66-.23,1.15-.91,1.95-1.58-2.23-.73-3.92.06-5.64.58ZM538.46,109.74c.58-.93,1.16-1.86,1.98-3.18-2.06.06-2.76,1-3.31,2.32.54.29.98.53,1.42.76-1.16,1.6-2.35,3.18-3.45,4.82-.2.3-.03.84-.03,1.89,2.46-2.12,4.06-4.11,5.62-6.59-.99,0-1.62,0-2.23-.02ZM570.15,80.22c1.5-1.48,3.71-2.41,4.03-5.03-3.03-.23-4.52,1.27-5.44,3.7.58.55,1.05.99,1.52,1.44-.79.02-1.62-.11-2.34.1-.54.16-1.19.71-1.35,1.22-.14.47.3,1.12.53,1.81,1.84-.58,3.11-1.29,3.06-3.23ZM564.91,46.95c-.15.21-.35.4-.45.63-.13.3-.18.63-.26.94.36.02.84.19,1.04.02.31-.27.43-.76.62-1.16-.35-.11-.71-.22-1.06-.33.8-.66,1.57-1.37,2.41-1.96,1.08-.77,2.25-1.41,3.32-2.19.32-.24.45-.75.78-1.33-3.98-.44-5.86,1.69-7.37,4.54.41.34.7.59.98.84ZM557.24,98.2c.18.74.1,1.78,1.29,1.56.74-.14,1.68-.4,2.07-.94.92-1.27,1.58-2.73,1.46-4.88-1.07.99-1.81,1.7-2.58,2.38-.78.69-1.58,1.35-2.38,2.03.87-1.54,1.74-3.09,2.77-4.91-.77,0-1.16-.09-1.49.02-1.66.56-2.33,2.12-3.2,3.42-.75,1.12-1.96,2.09-1.93,4.02.76-.28,1.28-.34,1.65-.62.82-.63,1.56-1.36,2.35-2.06ZM551.68,83.83c-1.02.57-2.04,1.14-3.05,1.72-1.55.88-1.85,1.43-1.83,3.43,2.99-.47,4.71-2.06,4.88-5.15,2.32-.68,3.18-2.56,4.14-4.9-1.2,0-2.16-.25-2.9.06-1.28.54-2.62,3.14-2.81,4.84.53,0,1.06,0,1.57,0ZM519.23,67.32c.51-.08,1.18.03,1.51-.26,1.42-1.21,2.82-2.47,4.09-3.83.9-.97,1.21-2.25,1.51-3.82-3.3,1.5-5.15,3.96-6.93,6.46-.25.35-.07,1.02-.09,1.54-2.43.5-3.42,3.19-5.79,3.79-.12.03-.27.58-.19.66.24.23.64.52.88.45.47-.13.87-.48,1.3-.75-.39.68-.68,1.46-1.2,2.04-2.05,2.3-4.17,4.53-6.24,6.82-.21.24-.23.65-.45,1.33,1.15-.32,2.23-.32,2.84-.86.98-.86,1.99-1.97,2.34-3.16.35-1.18.9-1.74,1.85-2.35,1.21-.78,2.29-1.81,2.4-3.7h-1.68c1.08-.89,2.21-1.72,3.2-2.7.39-.38.45-1.1.65-1.66ZM676.48,89.57c.12-.05.23-.13.35-.14.11,0,.23.06.35.1-.24,0-.48,0-.72,0,.4-.55.8-1.09,1.28-1.75-.57-.07-.86-.19-1.09-.13-2.68.79-5.15,2.17-7.98,2.56-.89.12-1.82.79-2.3,2.27,3.58-.87,6.98-.85,9.73-3.03.05-.04.24.08.37.12ZM609.19,100.55c-.32.24-.72.43-.93.74-.61.89-.24,2.06.72,2.16.61.07,1.47.02,1.85-.35,1.57-1.55,3.13-3.16,4.32-5.53-.76.11-1.09.16-1.42.21.86-.82,1.81-1.58,2.56-2.49.69-.84.04-1.11-.75-1.16,1.06-.5,2.09-1.14,3.2-1.47,1.9-.55,2.45-2.13,3.33-3.61.81-1.37,1.13-2.55.35-3.95,3.21-.64,6-2.02,8.11-4.61.5-.62,1.14-1.12,1.68-1.71.34-.37.77-.79.15-1.37-2.25.18-4.38.99-6.33,2.07-2.57,1.43-4.82,3.28-5.84,6.23v-.11c-.19,1.21-1.33,1.49-2.09,2.15-1.37,1.19-2.69,2.42-4.01,3.66-.13.12-.07.45-.09.68l.27-.16-.05.12c-.61.97-1.23,1.93-1.84,2.9-2.85.66-3.87,3.03-5.46,5.6,1.08,0,1.68,0,2.28,0ZM532.16,62.7c-.19.61-.38,1.21-.6,1.92,1.94.42,3.3-.25,4.39-1.58.93-1.14,1.82-2.32,2.65-3.53.33-.48.95-.98.33-1.79-1.28-.22-2.3.44-3.17,1.26-1.26,1.18-2.42,2.46-3.63,3.7.71-.79,1.31-1.61.94-3-.53.19-1.09.25-1.44.55-1.2,1.04-2.36,2.14-3.46,3.28-.6.63-1.05,1.41-1.58,2.14,1.18.91,2.03.33,2.71-.21,1.03-.82,1.91-1.82,2.85-2.75ZM523.85,68.77c-1.39.51-2.66,1.23-3.25,2.66-.22.54-.21,1.34.03,1.86.33.72,1.08.48,1.73.26,2.17-.74,3.2-2.64,4.46-4.31-.09.63-.18,1.26-.28,1.94,3.13-.27,3.12.28,5.29-4.73-.92.24-1.76.26-2.37.65-1,.64-1.85,1.5-2.77,2.27.27-.57.63-1.21-.07-1.67-.71-.47-1.43-.34-2.01.34v-1.37c-1.14.03-1.34.82-1.51,1.54-.03.13.47.38.73.58ZM521.85,95.49c-.22-.61-.46-1.49-1.25-1.05-.75.43-1.34,1.23-1.86,1.97-1.26,1.76-1.38,2.14-1.73,4.13,1.71-1.79,3.34-3.49,4.96-5.2-.12.73-.23,1.46-.38,2.37,3.51-.96,6.93-1.41,8.19-5.27-.44-.41-.81-.75-1.18-1.09,1.74-.62,3.04-1.96,4.75-2.72,1.48-.65,2.54-2.17,2.8-3.93-2.93-.65-5.2.13-7.11,2.09-.45.46-1.07.77-1.61,1.15.13-.66-.21-1.13-.8-.96-1.26.37-2.47.93-3.89,1.48.36,1.64-1.18,2.86-.79,4.49,1.89.09,2.53-1.64,3.86-2.17.76,1.34,1.89.5,2.85.53-.28.27-.51.69-.84.78-2.28.62-4.11,2.03-5.98,3.4ZM538.75,87.86c-.82,1.23-2.24,1.4-3.44,1.9-1.84.77-2.8,2.19-3.59,4.17,3.15.17,4.8-1.93,6.79-3.18.09-1.08.17-1.99.24-2.89,3.05-1.2,4.59-3.84,6.41-6.47-1.28-.79-2.33-.39-3.23.03-1.06.5-2.21,1.1-2.9,1.99-1.09,1.38-2.62,2.61-2.85,4.82,1.06-.15,1.82-.26,2.58-.37ZM542.71,50.07c-.74.67-.85,1.3.12,1.86,3.2-1.6,3.47-1.9,3.94-4.59-1.49,1.01-2.77,1.87-4.04,2.73.1-.32.2-.63.3-.95-.35-.1-.82-.39-1.03-.26-2.26,1.4-4.53,2.81-6.7,4.35-1.39.99-3.08,3.5-3.63,4.99.54-.38.93-.78,1.41-.97.59-.24,1.29-.2,1.87-.46.96-.43,2-.85,2.75-1.55,1.75-1.63,3.34-3.42,4.99-5.15ZM685.32,84.21c-.4.5-.71,1.13-1.22,1.46-.77.5-1.7.73-2.5,1.18-.51.29-1.2.64-.74,1.48q3.48.27,6.42-1.97c-.04-1.34-1.08-1.68-2.07-2.06.99-1.12,2.72-1.41,3.85-3.53-1.46.63-2.27.96-3.06,1.34-1.76.84-1.76.85-4.06-.52-2.05,1.25-4.21,2.55-6.34,3.9-.34.22-.53.68-1.05,1.38,4.15-.09,7.55-1.04,10.78-2.66ZM586.8,39.26c1.26-1.02,3.23-.95,4.31-2.73-1.76-.36-3.09-.16-4.22.96-.59.59-.45,1.16,0,1.74-3.21,1.73-5.84,4.14-8.06,7.02-.49.63-1.1,1.17-1.58,1.81-.27.36-.39.82-.67,1.45,1.93.26,3.2-.39,4.25-1.46,2.43-2.48,4.8-5.01,7.17-7.55.24-.26.26-.72.43-1.22-.63,0-1.14,0-1.63-.01ZM681.95,72.76c-1.17-.46-2.27-.39-3.48.06-3.93,1.47-7.52,3.52-10.85,6.04-.37.28-.59.77-.97,1.28,3.13.25,5.51-.17,7.56-1.37,1.73-1.02,3.37-2.21,5.14-3.14,1.26-.67,1.84-1.81,2.55-2.87-.62-1.01.67-1.19.81-1.85.05-.21-.05-.45-.11-.91-.67.35-1.27.67-2.07,1.1.62.73,1.01,1.2,1.41,1.67ZM587.04,106.5l-.06.03q.74-1.95-1.71-4.13c-1.37,1.82-2.78,3.61-4.08,5.46-.34.48-.37,1.17-.56,1.82,3.11,1.13,5.99,2.17,8.9,3.23.8-.84,1.44-1.51,2.06-2.16-.1.39-.18.77-.29,1.16-.22.83-.19,1.62.63,2.09.72.41,1.42,1.31,2.45.3-.45-1.58-1.2-2.88-2.87-3.46-.09-1.39-.78-2.47-1.61-3.56-.81-1.07-1.8-.89-2.85-.79ZM584.65,92.64c.27.37.54.74.97,1.32,2.03-2.57,3.93-4.98,5.8-7.41.1-.12-.08-.46-.16-.81-1.09.07-1.44,1.02-2.04,1.66-1.63,1.74-2.51,4.12-4.7,5.36,1.25-2.13,2.51-4.27,3.99-6.79-.89.08-1.48-.05-1.83.19-.76.52-1.49,1.16-2.07,1.87-4.46,5.5-8.89,11.02-13.3,16.55-.48.6-.8,1.33-1.22,2.04,1.38,1.32,2.84,1.61,4.39,1.43,2.5-4.18,4.95-8.16,7.26-12.22.75-1.32,1.58-2.44,2.91-3.21ZM621.81,105.13c-3.56,2.7-5.51,6.46-6.88,10.58-.25.75-.54,1.7.32,2.17.49.27,1.37.26,1.87,0,2.34-1.28,4.67-2.62,6.89-4.11,1.03-.69,1.87-1.74,1.98-3.19h-1.63c3.41-3.67,6.65-7.16,9.87-10.67.12-.13.01-.46.01-.69-.71-.53-1.28-.14-1.79.3-1.33,1.13-2.62,2.29-3.95,3.41-.14.12-.44.06-.79.09.49-1.1.94-2.12,1.72-3.85-1.1.52-1.5.7-1.9.88,2.13-2.68,5.35-3.99,8.21-6.33-1.12-.76-2.02-1.37-3.1-2.1.48-.85.97-1.72,1.6-2.84-4.11.5-6.31,3-7.35,6.27-.53,1.66-1.25,2.83-2.48,3.9-1.54,1.34-2.73,2.97-3.51,4.87-.34.84.1,1.23.91,1.33ZM603.22,82.44c1.96-1.18,2.97-2.81,4.29-4.08,1.35-1.31,2.62-2.71,3.92-4.06,1.21-1.26,2.42-2.53,3.64-3.78,1.32-1.35,2.64-2.68,3.97-4.01,1.33-1.33,2.68-2.65,4.02-3.96q2.8-2.75,3.13-4.24c-2.78.45-5.24,1.3-6.85,3.75-.22.33-.44.68-.7.97-4.72,5.14-9.46,10.27-14.16,15.43-.62.68-1.13,1.5-1.53,2.33-.16.34.12.88.26,1.66ZM593.42,47.12c-2.77.02-4.93.68-7.04,1.48-.71.27-1.38.86-1.89,1.45-2.8,3.26-5.56,6.56-8.3,9.88-.29.35-.37.86-.7,1.67,2.32-.34,3.81-1.5,5.43-2.33,4.69-2.39,7.65-6.69,11.28-10.25.42-.41.66-1.02,1.21-1.9ZM669.44,55.79c-4.98-.3-9.27,1.13-13.07,4.15-4.37,3.48-4.95,3.93-5.57,5.89,2.6-.37,5.01-1.13,7.44-1.77.5-.13,1.01-.4,1.42-.72,3.27-2.5,6.52-5.03,9.78-7.56ZM635.44,70.29c3.3-.47,5.64-1.43,8.03-2.18.86-.27,1.66-.86,2.39-1.42,2.66-2.02,5.29-4.08,7.9-6.17.55-.44.97-1.06,1.65-1.82-6.04.67-14.1,5.3-19.96,11.59ZM579.41,62.15c-.98.09-1.53.01-1.96.21-1.34.61-2.69,1.24-3.94,2.02-2.29,1.44-6.91,7.71-8.12,10.94,2.18.04,3.94-.5,5.34-2.2,2.48-3.01,5.05-5.96,7.56-8.95.39-.46.6-1.07,1.12-2.01ZM630.4,38.09c-.18-.19-.36-.39-.54-.58-1.75.95-3.74,1.64-5.22,2.92-3.66,3.17-7.1,6.6-10.59,9.97-.55.53-.93,1.25-1.63,2.21.92,0,1.45.08,1.94-.02,1.38-.27,2.39-1.13,3.38-2.09,3.87-3.75,7.79-7.46,11.68-11.2.37-.36.66-.81.98-1.21ZM656.91,81.41c1.04.84,1.7.19,2.38-.17,3.79-2.03,7.58-4.07,11.36-6.12,1.18-.64,2.36-1.3,3.48-2.04.33-.22.47-.73.89-1.44-4.29.07-7.9.55-10.84,3.41-1.44,1.4-3.08,2.61-4.6,3.93-.9.78-1.76,1.6-2.66,2.42ZM658.16,75.69c-5.99-.11-11.92,3.29-16.45,9.38,2.58-.09,4.82-.47,6.81-1.98,2.67-2.02,5.41-3.93,8.11-5.92.5-.37.91-.87,1.53-1.48ZM650.95,91.97c2.41-.01,4.59-.43,6.5-1.81,2.82-2.04,5.7-3.99,8.53-6.01.36-.26.58-.73,1.03-1.34-2.58-.39-4.68.28-6.47,1.34-3.56,2.09-6.69,4.79-9.6,7.81ZM541.36,46.92c4.34-.41,4.64-.45,6.78-2.53,2.89-2.8,5.69-5.69,8.51-8.57.34-.34.82-.77.14-1.44-2.98,1.47-5.81,3.14-8.19,5.63-2.03,2.12-4.38,3.93-6.57,5.89-.27.24-.42.63-.68,1.01ZM554.39,76.78c1.54.94,2.73.8,3.67-.44,2.43-3.2,4.83-6.42,7.21-9.66.52-.71.55-1.47-.11-1.97-2.67.76-4.1,2.84-5.61,4.83-1.3,1.71-2.61,3.4-3.87,5.13-.46.62-.81,1.33-1.28,2.11ZM579.79,87.79c-1.03-.67-1.79-.05-2.38.68-2.71,3.35-5.37,6.74-8.03,10.14-.14.18-.1.51-.15.77,2.24.14,2.94.09,3.87-1.21,2.35-3.27,4.54-6.65,6.79-9.99.04-.07-.05-.23-.1-.39ZM642.04,35.72c-.13-.2-.26-.39-.4-.59-.5.1-1.1.06-1.48.32-5.34,3.68-9.99,8.18-14.72,12.58-.22.21-.24.64-.47,1.3.79-.29,1.35-.34,1.72-.64,4.69-3.83,9.36-7.69,14.01-11.56.5-.41.89-.94,1.34-1.42ZM577.79,51.49c-1.82-.6-2.83-.25-3.67.44-.82.67-1.69,1.41-2.19,2.31-1.57,2.81-3.62,5.17-6,7.3-.41.36-.5,1.08-.77,1.69,1.18.52,2.05.71,2.84-.11.28-.29.53-.6.81-.89,3.1-3.27,5.05-7.45,8.98-10.74ZM554.26,43.3c.17.21.34.42.52.62,1.1-.39,2.43-.51,3.24-1.22,2.78-2.45,5.46-5.03,7.92-8.13-1.68-.52-2.85.18-3.93.87-3.19,2.03-5.61,4.82-7.76,7.86ZM630.33,63.89c5.27-.93,9.37-2.71,12.24-6.86-2.01-.18-3.67.07-5.41.78-1.88.77-4.44,3-6.83,6.08ZM573.21,73.59c2.37-.36,3.77-1.51,4.93-3.06,2.03-2.68,4.09-5.34,6.11-8.03.28-.37.38-.86.57-1.29-1.32-.71-2.04.03-2.62.71-2.95,3.49-5.85,7.02-8.75,10.55-.15.18-.12.5-.24,1.12ZM676.51,81.9c-2.28-.5-4.31-.17-6.14,1.16-2.07,1.49-4.18,2.92-6.24,4.42-.49.36-.87.88-1.78,1.82,1.3-.18,2.02-.1,2.53-.38,3.93-2.19,8.17-3.87,11.63-7.02ZM607.04,97.49c3.53-2.97,5.68-7.08,8.94-10.17,1-.95,2.01-1.99,2.59-3.4-.48-.07-.84-.23-.95-.13-3.5,3.48-7,6.96-10.43,10.51-.78.81-.9,1.9-.15,3.19ZM633.83,80.61c.12.07.26.22.35.19,1.91-.61,3.86-1.11,5.7-1.89,1.59-.67,3.07-1.61,4.53-2.55.44-.29.64-.96,1.04-1.6-6.84-.09-9.3,2.09-11.61,5.85ZM669.9,63.26c3.33-.07,6.16-.77,8.92-1.59,1.81-.54,2.52-2.65,2.05-5.45-1.8,1.33-3.52,2.56-5.18,3.85-1.65,1.28-4.12,1.05-5.79,3.19ZM544.85,97.4c-1.78-.63-3.06.03-4.15,1.08-1.85,1.78-3.53,3.68-3.22,7.14,3.05-2.57,6.16-4.38,7.37-8.22ZM534.06,106.86c1.26-2.53,2.41-4.84,3.75-7.54-1.49.19-2.61.16-3.41,1.31-1.52,2.18-3.09,4.32-4.61,6.49-.12.17-.02.48-.02.73.95.55,1.41-.46,2.12-.63.75-.18,1.53-.26,2.16-.37ZM573.34,88.99c-1.16-.83-2.05-.16-2.69.7-1.75,2.36-3.41,4.78-5.07,7.21-.28.42-.37.96-.66,1.73.69.05,1.3.28,1.62.07.65-.42,1.23-1.02,1.68-1.65,1.71-2.39,3.37-4.81,5.02-7.24.13-.19.06-.51.09-.81ZM592.51,83.93c.99-.32,1.45-.33,1.65-.56,3.55-3.99,7.09-8,10.59-12.03.15-.17-.06-.65-.11-1.05-2.7,1.62-8.89,8.53-12.13,13.65ZM552.96,51.15c1.76-.01,3.23-.52,4.42-1.64,1.64-1.55,3.22-3.18,4.77-4.82.35-.37.53-.93-.09-1.33-4.4,1.52-7.36,4.01-9.09,7.79ZM624.85,89.23c2.07.19,2.27.18,2.78-.08,2.16-1.11,6.38-4.75,7.48-6.55-4.45.79-7.79,2.88-10.26,6.63ZM577.25,81.79c1.89-.3,3.13-1.04,3.99-2.18,1.7-2.24,4.1-3.98,5.19-6.9-1.47-.31-2.43.15-3.1.98-2.03,2.51-4.83,4.47-6.08,8.1ZM660.44,101.88c.38.08.75.26,1.09.21,3.77-.5,6.59-2.88,9.57-4.93.27-.19.37-.69.45-1.07.05-.23-.02-.58-.17-.74-.16-.16-.57-.28-.73-.19-3.29,1.95-6.57,3.93-9.83,5.92-.19.11-.23.46-.38.78ZM572.56,32.96c-2.43-.39-2.78-.36-4.37,1.12-1.75,1.63-3.4,3.36-5.06,5.08-.3.31-.44.76-.96,1.71,4.92-1.45,7.7-4.5,10.39-7.91ZM571.13,84.2c3.56-2.3,5.88-5.76,8.65-8.77.3-.33.4-.84.78-1.68-.92.17-1.54.09-1.85.37-3.24,2.79-5.89,6.06-7.57,10.08ZM674.75,107.04c-1.29.11-2.08.09-2.82.25-.91.21-1.84.94-2.66.81-2.93-.47-3.99,2.05-5.89,3.29,1.32-.04,2.57-.52,3.8-.48,2.3.08,4.17-.89,5.99-2.03.51-.31.82-.94,1.56-1.84ZM599.52,72.25c-2.48,1.45-9.31,8.97-10.78,11.9.93.34,1.6-.1,2.1-.7,2.92-3.49,5.81-7,8.69-10.52.11-.13,0-.45-.02-.68ZM599.97,25.93c1.16-.19,2.03-.36,2.91-.46,2.44-.28,4.13-1.79,5.71-3.45.22-.23.33-.98.21-1.07-.39-.26-1.04-.56-1.36-.39-2.35,1.26-4.66,2.62-6.95,4-.24.15-.26.65-.53,1.37ZM576.1,108.22c1.2.95,1.94.49,2.53-.37,1.74-2.54,3.48-5.09,5.16-7.67.22-.33.1-.89.16-1.6-2.73,2.07-6.13,6.29-7.85,9.65ZM643.42,86.19c-3.75.37-6.78,1.49-8.71,5,4.2-.07,6.97-1.64,8.71-5ZM661.68,45.87c-1.7-.7-2.89-.38-4.02.41-2.27,1.6-4.14,3.63-6.74,6.01,1.37-.15,2.09-.03,2.59-.31,2.9-1.62,5.49-3.66,8.17-6.11ZM614.36,78.04c-1.56.16-2.4,1.27-2.93,2.36-.66,1.37-1.65,2.33-2.7,3.35-1.19,1.15-2.37,2.41-3,4.53,2.09-.69,3.55-1.56,4.38-3.11,1.18-2.23,2.62-4.26,4.23-6.18.12-.14.02-.46.02-.94ZM651.55,37.14c-1.67-.01-2.96.48-4.14,1.49-1.11.95-2.52,1.53-3.76,2.33-1.15.74-2.62,1.13-3.33,2.94,5.24-.27,7.95-4.05,11.23-6.76ZM636.66,49.47c-2.32-.24-3.82.02-5.19.95-1.6,1.09-3.04,2.75-3.73,4.45,3.26-1.11,6.32-2.13,8.93-5.41ZM538.52,63.07c.75-.2,1.72-.16,2.19-.63,1.81-1.78,3.47-3.71,5.14-5.62.28-.33.84-.78.04-1.5-3.31,1.55-5.35,4.5-7.37,7.75ZM686.3,73.38c-2.07,1.16-4.16,2.29-6.21,3.48-.8.46-1.14,1.45-.77,2.01.5.78,1.32.96,2.1.69.73-.25,1.85-.67,1.97-1.19.44-2.01,2.08-3.03,2.91-5ZM639.62,101.36c-4.4,3.64-5.46,4.79-6.29,6.91,3.58-.95,6.19-2.97,8.49-5.92-.81-.37-1.4-.64-2.2-.99ZM624.08,46.76c1.76-.88,8.48-6.45,11.8-9.81.1-.1-.04-.45-.11-1-.86.45-1.71.75-2.38,1.27-3.46,2.67-8.09,7.46-9.3,9.54ZM592.69,21.13c-3.72.16-6.84,1.08-9.44,3.99,4.52.24,6.56-.63,9.44-3.99ZM674.51,64.47c-3.1.27-5.58.39-8.03.75-.94.14-1.92.74-1.96,2.23,3.04-.04,5.9-.35,8.63-1.42.39-.15.62-.7,1.35-1.56ZM610.41,47.21c.78-.42,1.65-.72,2.32-1.28,2.25-1.88,4.42-3.84,6.6-5.79.12-.11.02-.46.02-.97-.75.23-1.62.26-2.18.69-2.64,2.01-5.16,4.17-6.76,7.35ZM543.65,78.51c.84.06,1.38.19,1.88.11.51-.09,1.12-.26,1.46-.61.74-.77,1.4-1.63,1.95-2.54.52-.86,1.5-1.59,1.02-3.1-3,1.11-4.52,3.52-6.31,6.13ZM544.9,60.92c.43-.23.94-.37,1.28-.69,2.25-2.08,4.47-4.2,6.68-6.32.1-.09-.05-.44-.11-.85-1.32.18-2.61.42-3.54,1.48-1.65,1.9-3.52,3.63-4.31,6.38ZM525.44,109.85c2.92-1.81,3.78-4.45,5.32-6.51.47-.63.74-1.4,1.08-2.12.03-.07-.08-.21-.16-.41-1.27-.43-2.2.24-3.04.98.4,3.08-2.71,4.56-3.2,8.06ZM585.03,84c.22.15.44.3.67.45.91-.96,1.83-1.9,2.72-2.87.99-1.09,1.95-2.21,2.92-3.31q1.47-1.67,1.85-3.36c-.69.4-1.37.62-1.77,1.07-2.25,2.58-4.57,5.12-6.39,8.03ZM663.62,62.56c3.72-.42,6.54-1.08,8.93-4.11-3.61.32-6.6.59-8.93,4.11ZM565.51,104.03c1.96,2.01,2.42,2.05,3.59.23.68-1.05,1.61-2.02,1.73-3.62-2.79-.1-4.35,1.18-5.33,3.39ZM532.56,69.5c3.32.11,4.93-1.19,5.87-4.72-3.35-.06-4.56,2.28-5.87,4.72ZM566.54,84.27c-.61.15-1.34.13-1.81.47-.96.7-1.86,1.52-2.63,2.43-.63.75-1.46,1.5-1.3,2.95,3.49-.32,4.48-3.13,5.74-5.85ZM676.87,52.77c-3.77,1.69-4.34,2.1-6.67,4.97,2.97-1.04,5.48-1.04,7.5-2.7-.29-.79-.51-1.4-.83-2.27ZM593.43,63.23c1.97.05,2.92-.84,3.88-1.7,1.95-1.75,2.58-2.62,3.08-4.49-3.22,1.02-4.77,3.55-6.96,6.18ZM663.8,42.21c3.65-.42,6.6-1.07,9.46-4.23-3.76,1.02-6.99,1.05-9.46,4.23ZM643.01,91.14c-4.43,1.09-6.3,2.43-7.09,4.98,3.31-.24,5.13-2.4,7.09-4.98ZM655.61,73.57c.93,0,1.32.07,1.67-.01,2.2-.54,4.41-1.1,6.59-1.71.32-.09.54-.52.8-.79-.43-.2-.91-.63-1.29-.55-1.96.37-3.93.79-5.84,1.37-.61.18-1.05.9-1.93,1.7ZM646.21,69.92c1.5-.2,2.93-.69,4.24-.48,2.28.35,3.22-.9,4.36-2.62-4.68.49-6.77,1.24-8.6,3.11ZM645.26,93.37c1.53.06,2.4-1,3.42-1.78.96-.73,1.9-1.51,2.8-2.32.92-.84,2.19-1.38,2.99-3.25-3.88,2.14-6.7,4.52-9.21,7.35ZM561.65,81.08c3.95-1.11,4.28-1.4,5.26-4.37-3.64.16-4.03.46-5.26,4.37ZM651.69,94.16c-4.64.31-5.47.73-7.72,3.75,3.17.19,5.4-1.18,7.72-3.75ZM587.79,77.92c-1.24.53-1.8.6-2.09.92-1.75,1.98-3.45,4-5.12,6.04-.11.13.19.59.38,1.14,2.97-1.98,4.59-4.73,6.82-8.11ZM605.48,62.56c-.47-.14-.77-.34-.93-.26-1.96.96-3.63,2.28-4.98,4.01-.3.39-.73.84.05,1.35,2.52-.97,4.4-2.7,5.86-5.1ZM527.98,58.11c2.12-2.49,4.73-3.88,6.53-6.84-2.03.27-3.12,1.28-4.17,2.17-1.09.92-2.42,1.75-2.74,3.32-.05.22.13.49.39,1.36ZM613.27,61.29c.55-.24,1.23-.36,1.64-.75,2.43-2.35,5.08-4.5,7.23-7.59-2.98.8-4.87,2.46-8.87,8.34ZM635.73,103.28c-3.11,1.15-4.97,3.59-6.86,6.01-.29.38-.71.82.26,1.36,2.18-2.43,4.39-4.9,6.6-7.37ZM559.36,86.74c-.39-.07-.8-.26-1.1-.16-.47.16-.96.46-1.3.82-1.09,1.18-2.09,3.27-2.53,5.04,2.41-1.34,3.17-2.21,4.93-5.71ZM570.98,51.19c2.85-.56,3.59-2.46,4.86-3.69.84-.82.79-.88,1.39-3.08-2.74,1.73-4.43,3.8-6.24,6.77ZM594.48,85.69c-2.65,2.24-4.89,4.84-6.89,7.63-.16.22.02.67.06,1.39,2.74-2.96,5.12-5.73,6.84-9.03ZM642.74,59.64c2.88-.52,4.07-1.36,7.35-5.22-3.63.72-5.3,2.89-7.35,5.22ZM554.43,88.15c-2.46,1.33-3.64,2.96-4.25,5.7.25.01.61.13.73.01.57-.54,1.21-1.07,1.59-1.74.68-1.22,1.8-2.27,1.92-3.97ZM598.51,93.86c-.6.53-1.24.97-1.7,1.54-.84,1.04-1.65,2.11-2.28,3.28-.14.27.52.97.93,1.69,1.81-1.77,2.89-3.56,3.56-5.61.05-.15-.23-.42-.52-.89ZM578.28,82.84c-.91-.09-1.62-.39-2.07-.17-1.4.68-2.35,2.24-2.92,4.46,2.91.1,3.7-2.09,5-4.29ZM586.87,70.23c1.1.85,1.92.45,2.61-.25,1.12-1.14,2.19-2.32,3.22-3.53.28-.32.87-.74.08-1.48-2.7.89-4.4,2.94-5.9,5.26ZM641.3,28.39c-2.82.4-3.85,1.01-6.31,3.76,2.36.43,3.83-.44,6.31-3.76ZM591.64,52.5q1.79-.7,3.1-2.08,1.83-1.93,2.43-3.72c-2.92,1.94-4.23,3.31-5.53,5.8ZM542.15,68.05c-2.98.55-5.1,1.14-6.32,3.64,3.83-.35,4.36-.63,6.32-3.64ZM538.1,73.09c-3.66.24-4.59.7-5.75,2.88,3.39-.24,4.65-.87,5.75-2.88ZM547.28,104.42c-2.22.06-3.75.5-5.04,1.42-.41.29-1.29,1.2-.15,1.92q4.01-1.46,5.19-3.34ZM596.71,31.41c-3.72-.56-4.45-.19-5.44,2.77,2.15-.33,4.04-.83,5.44-2.77ZM556.25,32.5c1.44.43,2.81-.14,3.2-1.05.49-1.15,2.2-1.8,1.73-3.74-1.9,1.58-3.92,2.53-4.93,4.79ZM606.35,46.87c2.18-.63,4.6-2.73,6.64-5.8-.43-.05-.88-.25-1.13-.1-1.91,1.09-4.38,3.79-5.5,5.9ZM574.49,33.66c5.04-1.51,5.4-1.71,6.55-3.63-2.62.17-4.79.73-6.55,3.63ZM672.47,93.7c2.12.19,4.25.36,5.88-1.84-3.28-.11-4.07.1-5.88,1.84ZM598.41,49.41c2.44-.52,3.33-1.26,4.68-3.93-2.46.46-3.03.94-4.68,3.93ZM548.08,34.49c2.95-1,3.4-1.51,4.63-5.29-2.97,2.22-3.59,2.93-4.63,5.29ZM534.31,70.58c-2.15.12-3.43.71-4.38,1.89-.37.45-.95,1.01-.18,1.79,2.05-.23,3.52-1.25,4.56-3.68ZM631.55,28.31c2.73.28,3.34,0,5.11-2.36-.21-.14-.43-.42-.62-.39-.64.07-1.36.11-1.89.42-.99.59-2.15,1.08-2.6,2.33ZM579.22,41.91c3.38-1.45,4.09-2.23,4.19-4.32-2.15.77-3.24,2.48-4.19,4.32ZM640.72,55.03c5.06-.66,5.32-.77,7.09-3.03-2.65.33-4.96.57-7.09,3.03ZM654.91,101.03c2.43-.48,4.53-1.56,6.71-3.27-3.19-.31-5.17,1.04-6.71,3.27ZM674.38,52.39c-1.01-.68-1.43-1.21-1.82-1.19-1.72.1-3.28.62-4.58,2.28,2.25.59,3.94-.11,6.4-1.09ZM598.26,81.47c2.5-1.74,4.01-3.45,5.48-6.25-2.78,2.13-4.34,3.91-5.48,6.25ZM653.56,47.36c-2.6-.22-4.22,1.16-6.1,2.63,2.88.9,3.32.71,6.1-2.63ZM622.18,20.2c-1.83,1.37-3.65,1.43-5.48,3.08,1.45-.18,2.22-.38,2.98-.35.9.04,1.78.29,2.9.49-.12-.97-.22-1.74-.4-3.22ZM570.53,38.55c2.06-.48,3.71-.82,5.34-1.25.49-.13.98-.48.68-1.16-2.26-.17-4.78-1.12-6.02,2.42ZM523.88,78.11c-2.54.08-2.66.11-3.98,1.72-.34.41-.51.92.15,1.26q3.16-.95,3.83-2.98ZM550.05,64.36c1.03-.14,1.61-.06,1.95-.3,1.23-.9,2.4-1.91,2.77-3.83-2.72.19-3.37,2.08-4.72,4.13ZM598.95,97.64c-.52.69-1.08,1.4-1.58,2.14-.22.32-.43.73-.43,1.1,0,.35.16.84.42,1.01.25.16.85.14,1.06-.06.59-.52,1.21-1.11,1.54-1.81.43-.91.29-1.84-1.01-2.39ZM605.01,48.58c-3.33,1.98-4.05,2.81-4.9,5.41,1.94-1.82,3.79-3.27,4.9-5.41ZM518.41,57.75c-1.59.72-2.47,2.05-3.44,3.26-.34.42-.5.91.21,1.2q3.15-2.25,3.23-4.46ZM610.39,56.8c-2.04.55-3.6,1.34-4.79,2.78-.34.41-.57.87.1,1.23q3.42-1.68,4.7-4.02ZM648.25,100.94q-2.13-.09-4.47,2.85,1.94.2,4.47-2.85ZM517.32,77.56c2.69-.02,3.32-.38,4.51-2.53-2.64-.08-3.04.14-4.51,2.53ZM601.49,163.37c-.31,2.06-.89,4.16.83,6.31.79-2.49-.13-4.39-.83-6.31ZM596.64,52.24q-2.09.68-3.66,2.46-.92,1.04-1.21,2.63c1.79-1.55,3.42-2.97,4.88-5.09ZM652.88,72.96c-2.47.27-3.88,1.21-5.2,3.02q2.85-.46,5.2-3.02ZM523.63,76.22c3.33-.74,3.37-.78,4.01-3.39-1.89.33-3.2,1.21-4.01,3.39ZM662.39,64.8c-3.26.38-3.5.53-4.98,3.01,3.16-1.04,3.35-1.16,4.98-3.01ZM558.74,85.16c2.43-.21,3.59-1.09,4.17-3.14-2.4-.36-3.4.77-4.17,3.14ZM604.42,42.67c3.84-1.18,4.02-1.31,5.06-3.19-1.95.18-3.45.99-5.06,3.19ZM663.72,48.55q-3.01-.41-4.51,1.9c1.89.12,3.36-.29,4.51-1.9ZM601.65,27.16q-3.62.37-4.78,1.73c1.86.03,3.4-.13,4.78-1.73ZM665.58,49.23c2.18.48,3.48-.16,4.7-.95.36-.23.58-.68,1.18-1.41-2.46-.06-4.03.64-5.88,2.36ZM649.33,85.48c-2.41-.27-3.58.48-4.25,2.73,1.68-.56,3.38-.92,4.25-2.73ZM578.44,20.14q-2.38.98-3.95,3.18c1.7-.97,3.06-1.73,3.95-3.18ZM635.28,47.8c1.24.47,2.32.27,3.34-.38.15-.1.25-.53.17-.7-.16-.31-.48-.76-.72-.75-1.19.04-2.29.35-2.78,1.82ZM659.2,92.1c-1.83.2-3.21.96-4.43,2.82,2.39-.13,3.56-1.29,4.43-2.82ZM554.22,103.39c1.27.82,2.31.18,3.3-.42.21-.13.26-.66.23-.99-.02-.17-.35-.41-.57-.45-1.54-.29-2.46.43-2.96,1.85ZM558.75,59.59c-1.7.34-2.56,1.47-3.3,3.24,2.41-.09,2.81-1.72,3.3-3.24ZM585,67.4q2.72-1.39,3.42-3.93c-1.58,1.04-2.61,2.38-3.42,3.93ZM549.72,79.98q-2.34,1.7-3.36,4.95c1.87-1.45,2.82-3.02,3.36-4.95ZM646.91,45.72q2.51.19,3.9-1.8c-1.71-.15-2.85.52-3.9,1.8ZM583.83,46.57q2.16-.77,3.76-3.94c-1.49,1.56-2.47,2.58-3.76,3.94ZM619.96,72.03q-2.8,1.55-3.06,3.57c1.2-1.4,2.13-2.48,3.06-3.57ZM529.34,76.13c-2.24.31-2.28.28-2.8.94-.29.38-.75.82-.12,1.42,1.25-.09,1.99-.93,2.91-2.37ZM656.16,79.51q-3.18,1.39-4.12,3.08,1.9-.53,4.12-3.08ZM584.55,32.17c-2.84,1.22-2.86,1.25-3.77,3.7,1.7-.83,2.77-1.96,3.77-3.7ZM623.42,31.01c2.69-.24,2.68-.25,3.86-2.33-1.6.33-2.62,1.14-3.86,2.33ZM585.11,59.04q3.23-1.02,3.41-3.03c-1.49.23-2.28,1.23-3.41,3.03ZM633.74,68.58c-1.67.57-2.98,1.5-3.98,3.58,2.27-.68,3.24-2.03,3.98-3.58ZM601.4,55.37c.93-.13,1.48-.05,1.86-.28,1.24-.73,1.3-.87,2.36-3.13-1.82.61-3.15,1.4-4.22,3.41ZM570.57,52.99c-2.77,1.01-2.81,1.06-2.87,3.18,1.35-.56,2.24-1.37,2.87-3.18ZM560.22,66.07c-2.05.15-2.7.87-3.2,3.73,1.35-1.26,2.66-2.08,3.2-3.73ZM612.71,65.74c-1.92.91-2.68,1.9-3.16,3.17,1.31-.45,2.17-1.34,3.16-3.17ZM572.34,44.96c2.37-1.59,2.39-1.57,2.65-3.45-1.35.9-2.23,1.96-2.65,3.45ZM587.73,13.17q-2.12.9-2.69,3.1c1.13-1,2.24-1.6,2.69-3.1ZM609.32,55.96c2.93-.18,2.95-.2,3.99-2.2-1.56.31-3.02.26-3.99,2.2ZM668.95,31.87c-1.52.29-2.62.49-3.71.73-.46.1-1.11.14-.52,1.25,1.17-.8,2.85-.32,4.24-1.98ZM576.3,28.86c-1.55-.5-2.48.16-3.78,1.36,1.83.25,2.95.13,3.78-1.36ZM553.41,74.18c-.69.69-1.41,1.36-2.05,2.08-.38.43-.47.91.4,1.15,1.08-.67,1.77-1.64,1.65-3.23ZM573.84,19.09c1.58-.74,2.37-1.48,2.74-3.12-1.53.61-2.24,1.43-2.74,3.12ZM669.07,43c3.17.03,3.39-.14,3.49-2.2-.98.62-1.84,1.16-3.49,2.2ZM626.19,32.57c2.01-.4,3.26-.88,4.54-2.22-1.89-.02-3.14.45-4.54,2.22ZM638.07,99.75c2.7-1.08,2.68-1.1,3.37-3.06-1.43.5-2.3,1.37-3.37,3.06ZM571.48,115.04c-.2-.31-.28-.61-.47-.69-.19-.08-.59-.03-.69.1-.28.41-.55.87-.63,1.35-.04.25.28.61.52.82.08.07.53-.11.64-.28.27-.42.44-.91.62-1.3ZM647.58,36.34c.57-.32,1.15-.62,1.71-.96.33-.19.62-.43,1.36-.96-1.98-.28-2.69.59-3.07,1.91ZM610.47,60.94c-.84.53-2.68.41-2,2.21.71-.79,1.36-1.5,2-2.21ZM583.72,70.36c-.19-.2-.39-.41-.58-.61-.54.33-1.13.6-1.59,1.02-.19.17-.13.66-.09,1,0,.06.55.19.68.08.56-.46,1.06-.99,1.58-1.49ZM580.62,23.98c-.92.55-1.58.95-2.89,1.73,1.73-.09,2.52-.29,2.89-1.73ZM664.34,107.05c.82-.06,1.54-.09,2.24-.2.15-.02.34-.39.33-.58-.01-.19-.25-.5-.41-.52-.9-.1-1.8-.11-2.16,1.3ZM539.58,55.76c1.36-.28,2.37-.42,2.7-2.02-1.24.28-2.09.6-2.7,2.02ZM540.53,72.66c1.32.69,2.04.32,2.62-.49.12-.17.15-.53.04-.68-.12-.17-.52-.33-.65-.25-.62.37-1.2.83-2.01,1.42ZM597.34,70.9c-1.4-.45-2.04.18-2.64,1.61,1.41,0,2.21-.36,2.64-1.61ZM647.33,30.9c1.8-.64,3.25-.33,3.2-2.17-1.17.08-2.24.25-3.2,2.17ZM566.74,58.18q-1.67.44-2.09,2.05c.89-.87,1.49-1.46,2.09-2.05ZM592.13,72.85c-.19-.2-.38-.41-.57-.61-.64.62-1.31,1.2-1.9,1.86-.29.33-.71.84.39,1.2.65-.77,1.37-1.61,2.09-2.45ZM547.88,67.19c.19.23.39.47.58.7.59-.42,1.2-.82,1.75-1.29.1-.08.04-.51-.08-.64-.15-.15-.55-.28-.67-.19-.56.43-1.06.94-1.58,1.42ZM540.9,94.34c-1.3.35-1.82,1.1-1.52,2.31.51-.77,1.01-1.54,1.52-2.31ZM565.66,99.94c-.1-.08-.18-.21-.29-.25-.82-.26-1.67.13-1.83.88-.04.18.12.54.28.6.71.27,1.67-.21,1.87-.9.03-.1-.02-.22-.03-.33ZM660.92,113.95q-1.81.34-1.75,1.72c.89-.25,1.77-.51,1.75-1.72ZM600.45,103.72c-.17-.52-.17-.83-.34-.99-.31-.3-.99.26-1.03.91-.01.23.19.47.29.7.38-.22.75-.43,1.07-.62ZM588.68,31.71c.18.22.37.44.55.65.59-.52,1.18-1.04,1.76-1.56-.12-.15-.24-.3-.36-.45-.65.45-1.31.9-1.96,1.35ZM548.44,36.72c-.14-.2-.27-.39-.41-.59-.53.49-1.06.98-1.6,1.46l.33.4,1.68-1.27ZM555.34,64.27c-1.33-.1-2.04.36-2.5,1.86,1.4-.1,2.2-.43,2.5-1.86ZM616.26,62.08c-.11-.04-.29-.15-.33-.11-.44.43-.87.88-1.28,1.35-.01.01.22.28.23.27.49-.37.98-.76,1.45-1.16.04-.04-.04-.22-.07-.34ZM616.68,12.47q1.65-.19,2.41-1.75c-1.02.74-1.72,1.25-2.41,1.75ZM640.04,62.45c-1.23.85-2.3.88-2.24,2.17,1.11.13,1.81-.27,2.24-2.17ZM571.11,27.22c-1.68-.22-2.35.5-2.89,1.37-.06.1.15.37.3.72.56-.29,1.14-.53,1.65-.88.29-.2.46-.58.94-1.21ZM681.37,64.45c-.36-.41-.56-.83-.82-.88-.28-.05-.62.25-.94.4.19.27.33.69.57.77.28.08.66-.14,1.19-.29ZM545.63,72.08c.5-.57.97-1.1,1.4-1.65.03-.03-.25-.44-.41-.46-.75-.08-1.45.53-1.53,1.35-.02.16.24.36.54.75ZM563.21,16.27c-.23-.22-.46-.44-.7-.66-.14.76-1.63.56-.83,2.21.57-.58,1.05-1.06,1.53-1.55ZM602.91,67.95c.12.14.24.27.36.41.35-.27.74-.5,1.04-.82.09-.1-.03-.42-.09-.63,0-.02-.28-.03-.36.04-.33.32-.64.66-.95,1ZM623.18,36.79c-1.13-.13-1.52-.25-1.89-.2-.53.07-1.1.27-.86.96.06.17.68.26,1.01.19.36-.07.67-.35,1.74-.95ZM562.4,62.21c-.43.35-.83.63-1.15.98-.07.08.14.42.22.65.43-.25.88-.48,1.28-.78.05-.03-.17-.42-.35-.85ZM655.44,31.58c-.03-.16-.06-.32-.09-.49-.47.03-.96.02-1.42.11-.1.02-.15.41-.17.64,0,.05.22.19.3.17.46-.12.92-.29,1.37-.44ZM552.48,103.67c-.32-.34-.59-.67-.62-.65-.51.35-1.02.72-1.47,1.15-.07.07.12.45.24.66.03.06.28.07.36.01.5-.37.98-.77,1.49-1.17ZM521.75,90.17c-.26-.39-.4-.59-.53-.79-.35.32-.75.6-1.03.97-.06.08.35.5.54.76.35-.32.7-.64,1.03-.94ZM580.71,27.6c.1.19.21.39.31.58.48-.25.96-.5,1.45-.75-.06-.13-.11-.26-.17-.39-.53.19-1.06.38-1.59.56ZM617.92,35.51q1.85.03,2.21-1.37c-.75.46-1.34.82-2.21,1.37ZM654.68,33.94c.62.07,1.02.22,1.33.11.31-.11.53-.49.79-.75-.32-.05-.67-.21-.95-.13-.35.1-.64.4-1.17.77ZM557.26,83.58c-.9.72-1.29.9-1.46,1.2-.14.25-.02.65-.02.98.29-.21.61-.38.85-.63.16-.18.2-.46.62-1.55ZM604.31,169.78c.2.04.41.07.61.11v-2.04c-.15,0-.31-.01-.46-.02-.05.65-.1,1.3-.15,1.95ZM595.15,165.47c-.11,0-.22,0-.33,0v1.73c.11,0,.22,0,.33,0v-1.73ZM643.27,28.94c.85.43,1.45.47,1.93-.17.12-.16.16-.53.06-.69-.1-.15-.5-.29-.64-.21-.44.26-.81.62-1.35,1.06ZM606.03,72.34c1.07-.01,1.76-.33,1.43-1.57-.56.61-1,1.09-1.43,1.57ZM562.3,104.36c-.36-.05-.72-.18-1.02-.11-.15.04-.22.44-.32.68.35.1.7.23,1.06.27.05,0,.14-.43.28-.84ZM670.53,103.22c-.69-.63-1.29-.55-1.81.21.68.58,1.29.6,1.81-.21ZM654.68,28.13l.18.42c.43-.11.92-.13,1.28-.36.21-.13.22-.59.32-.91-.23-.02-.52-.13-.68-.04-.4.24-.74.58-1.1.88ZM610.94,163.77c-.15-.18-.29-.37-.44-.55-.07.09-.21.23-.19.26.12.19.27.36.42.54.07-.09.14-.17.21-.26ZM660.51,110.26c-.06-.27-.1-.47-.14-.66-.24.07-.53.08-.69.23-.14.13-.12.42-.18.63.33-.06.67-.13,1.01-.2ZM602.85,20.27c0-.09-.02-.18-.03-.26-.2.05-.43.07-.59.18-.06.04.03.31.05.47.19-.13.38-.25.56-.38ZM543.7,88.54c.17.08.33.17.5.25.24-.28.53-.53.68-.85.08-.15-.1-.43-.16-.65-.11.04-.26.06-.31.14-.25.36-.47.74-.7,1.11ZM596.31,21.71c.09-.2.18-.41.27-.61-.11.03-.27.03-.33.11-.12.15-.2.34-.29.52.12,0,.24-.01.36-.02ZM558.36,56.87c-.36-.32-.64-.62-.68-.6-.39.28-.74.62-1.11.94.17.15.42.45.51.41.43-.19.81-.47,1.28-.76ZM645.2,32.71c-.49,0-.82-.02-1.14.01-.1,0-.18.16-.27.25.31.12.6.28.92.34.09.02.23-.28.49-.6ZM639.35,33.57c-.47,0-.79-.02-1.12.01-.1,0-.18.16-.26.25.31.12.61.27.93.32.09.01.23-.28.46-.58ZM627.19,21.49c-.04-.09-.06-.25-.13-.27-.08-.03-.2.05-.31.07.07.14.14.27.21.41.07-.07.15-.14.22-.21ZM659.63,107.02c-.22-.05-.49-.21-.65-.13-.19.09-.27.39-.4.6.22.05.5.21.66.13.18-.09.26-.38.39-.59ZM657.01,109.13c-.26-.12-.46-.25-.67-.3-.06-.02-.26.21-.24.25.1.19.24.36.37.54.18-.16.35-.31.54-.48ZM584.5,21.21c.24-.08.53-.12.71-.28.06-.06-.13-.4-.2-.62-.24.1-.52.15-.69.31-.07.06.11.38.18.59ZM523.83,112.62c.25-.31.47-.57.67-.86.02-.04-.14-.26-.15-.26-.28.13-.57.26-.79.46-.05.04.15.36.28.66ZM594.24,171.04c-.06.07-.17.14-.17.22,0,.09.07.19.11.28.06-.08.17-.15.18-.23,0-.09-.07-.18-.12-.27ZM606.52,68.39c-.16.16-.33.3-.45.48-.03.04.17.3.19.29.22-.1.44-.24.65-.36-.13-.14-.25-.27-.38-.41ZM595.97,68.16c-.14-.2-.21-.3-.28-.39-.25.24-.49.48-.74.72.09.08.22.24.25.23.27-.17.52-.37.77-.55ZM545.4,68.48c.08-.06.18-.13.28-.2-.12-.12-.24-.24-.36-.37-.06.12-.15.23-.15.35,0,.07.15.14.23.22ZM626.79,75.39c.25-.09.58-.11.7-.28.08-.12-.13-.45-.2-.68-.23.12-.52.19-.68.37-.07.08.12.38.19.59ZM678.28,67.31c.16-.1.32-.2.47-.3-.09-.06-.2-.2-.26-.18-.17.06-.32.18-.48.28.09.06.18.13.26.2ZM560.83,91.27c-.19-.13-.36-.28-.57-.37-.07-.03-.32.13-.31.16.06.19.15.36.24.54.21-.11.43-.21.64-.32ZM679.11,94.55c-.2-.13-.4-.36-.61-.37-.22,0-.44.2-.66.31.2.13.4.37.61.38.22,0,.44-.2.67-.31ZM551.61,70.7c.05-.1.1-.2.15-.31-.18-.01-.35-.02-.53-.04.03.17.07.35.1.52.09-.06.19-.12.28-.18ZM667.52,113.16c-.06-.09-.09-.23-.17-.25-.1-.03-.23.02-.34.04.07.13.15.27.22.4.1-.06.19-.13.29-.19ZM640.86,19.95l-.26.1.25.11v-.21ZM623.56,78.35c.12.03.24.1.35.09.05,0,.07-.18.11-.27-.12-.03-.24-.09-.35-.08-.05,0-.08.17-.11.27ZM665.38,114.72c-.21-.02-.41-.04-.61-.07.09.08.18.21.27.22.11,0,.22-.09.34-.15ZM604.59,92.74c-.05.1-.09.2-.14.3.16.02.32.04.49.06-.01-.11.01-.25-.04-.31-.06-.06-.2-.04-.31-.05ZM569.13,31.45c-.28-.07-.43-.11-.59-.15.03.1.06.27.09.27.12,0,.24-.05.5-.12ZM551.25,98.15c.09-.06.23-.09.27-.18.04-.09-.01-.22-.03-.34-.15.08-.3.17-.45.25.07.09.14.18.21.26ZM582.03,88.05l-.15.27.25.02-.1-.29ZM615.18,21.6c-.23-.08-.42-.17-.63-.2-.07-.01-.17.15-.26.23.15.11.3.31.46.32.14,0,.28-.21.43-.34ZM658.62,105.22c.1-.07.2-.14.3-.2-.09-.08-.22-.25-.26-.23-.14.08-.26.21-.38.33.11.04.22.07.34.11ZM643.14,26.39l-.04.27.34-.1-.3-.17Z" fill="#000" stroke-width="0"/><path d="M634.91,120.03c.46-1.39,1.77-1.9,2.84-2.58,2.54-1.6,5.15-3.1,7.72-4.62-.28,1.19-.55,2.37-.81,3.56-.29.29-.58.58-.86.85-2.01,1.25-4.03,2.51-6.1,3.81-.84-.42-1.58-1.36-2.8-1.01Z" fill="#000" stroke-width="0"/><path d="M552.54,117.55c-.54-1-1.09-2-1.59-2.94,2.26-2.93,4.35-5.65,6.44-8.36l-.12-.07c.19.59.35,1.22,1.22.97-.63.98-1.18,2.03-1.91,2.94-1.83,2.27-3.49,4.62-4.15,7.53l.12-.06Z" fill="#000" stroke-width="0"/><path d="M549.03,109.19c.02.26.16.61.05.77-1.33,1.84-2.66,3.68-4.06,5.47-.7.89-1.67,1.31-2.99,1.1.42-1.92,2.36-2.31,3.45-3.49,1.18-1.28,2.43-2.49,3.65-3.74,0,0-.1-.1-.1-.1Z" fill="#000" stroke-width="0"/><path d="M503.28,78.64c-1.25,1.35-2.47,2.74-3.77,4.04-.28.29-.85.29-1.94.63,1.68-2.62,2.27-5.15,4.8-6.26-.07.74.12,1.34.91,1.59Z" fill="#000" stroke-width="0"/><path d="M630.97,120.31c.14.75.49,1.21,1.32.86.94-.4,1.87-.84,2.8-1.26-1.44,1.89-3.31,3.12-5.72,3.96-.4-1.85,1.05-2.5,1.61-3.56Z" fill="#000" stroke-width="0"/><path d="M502.44,88.58c-.55.71-1.08,1.51-2.14,1.33-.27-.04-.55-.44-.7-.73-.06-.11.23-.57.36-.57.84-.03,1.69.03,2.54.07,0,0-.07-.1-.07-.1Z" fill="#000" stroke-width="0"/><path d="M561.77,118.23c.39-.5.78-1,1.16-1.5.13.1.26.2.39.3-.38.51-.76,1.01-1.15,1.52-.14-.1-.27-.21-.41-.31Z" fill="#000" stroke-width="0"/><path d="M687.22,99.8c-.27.24-.54.48-.81.73-.7,0-1.4-.02-2.11-.03l.11.09c.54-.46,1.03-1.02,1.65-1.33.23-.12.76.34,1.15.54Z" fill="#000" stroke-width="0"/><path d="M549.79,113.09c.04-1.28.52-1.66,2-2.36-.99,1.17-1.38,1.62-2,2.36Z" fill="#000" stroke-width="0"/><path d="M506.54,69.08c.02-.52.02-1.04.1-1.54.01-.09.4-.12.62-.15.02,0,.14.27.09.34-.29.43-.62.83-.93,1.24l.12.11Z" fill="#000" stroke-width="0"/><path d="M656.41,17.24l.1-.05c-.98,0-1.96-.01-2.94-.02l.08.09c.12-.85.77-.97,1.43-.94.52.02,1.02.19,1.54.29,0,0-.15-.17-.15-.17-.02.27-.05.54-.07.81Z" fill="#000" stroke-width="0"/><path d="M520.31,104.81c-.39-.88.16-1.32.85-1.97.23,1.12-.41,1.47-.95,1.87,0,0,.1.1.1.1Z" fill="#000" stroke-width="0"/><path d="M681.89,102.26c.65-.85,1.38-1.58,2.54-1.66,0,0-.11-.09-.11-.09-.53.99-1.35,1.55-2.48,1.64l.06.12Z" fill="#000" stroke-width="0"/><path d="M603,179.34c.05.75.1,1.49.15,2.29-.69-.26-.25-.81-.31-1.19-.05-.36.09-.74.15-1.12,0,0,0,.03,0,.03Z" fill="#000" stroke-width="0"/><path d="M520.16,85.25c.09-1.12.7-1.9,1.62-2.48,0,0-.09-.06-.09-.06-.09,1.11-.58,1.96-1.62,2.44l.09.1Z" fill="#000" stroke-width="0"/><path d="M656.48,16.44s.15.18.15.17c.15-.19.28-.39.46-.55.07-.07.23-.04.35-.05-.08.18-.13.47-.25.5-.21.06-.47-.04-.7-.08Z" fill="#000" stroke-width="0"/><path d="M676.02,22.05c-.06.11-.12.22-.18.33-.1-.06-.21-.13-.31-.19.09-.09.17-.19.28-.25.04-.02.14.07.21.12Z" fill="#000" stroke-width="0"/><path d="M506.63,98.7c-.63.31-.94.5-1.27.6-.1.03-.4-.26-.38-.36.03-.2.19-.47.36-.54.18-.07.43.08,1.29.3Z" fill="#000" stroke-width="0"/><path d="M663.39,16.33c-.1.05-.2.09-.29.14,0-.16,0-.31,0-.47.1.02.22.01.28.07.05.05,0,.18,0,.26Z" fill="#000" stroke-width="0"/><path d="M565.15,119.21c-.06.11-.12.22-.18.32-.07-.16-.16-.32-.18-.49,0-.06.19-.13.29-.2.02.12.05.24.07.37Z" fill="#000" stroke-width="0"/><path d="M610.75,182.23q-1.18.51-1.65-.89s-.09.12-.09.12c.59.29,1.18.57,1.77.86l-.04-.1Z" fill="#000" stroke-width="0"/><polygon points="616.74 183.54 616.68 183.19 616.89 183.25 616.74 183.54" fill="#000" stroke-width="0"/><path d="M504.5,70.45c-.23.22-.47.44-.7.67.02-.09.02-.24.08-.28.23-.12.47-.21.71-.31,0,0-.09-.08-.09-.08Z" fill="#000" stroke-width="0"/><path d="M504,75.43c-.58.58-1.16,1.15-1.74,1.73-.03-1.19.57-1.75,1.74-1.73Z" fill="#000" stroke-width="0"/><path d="M506.42,68.98c-.29.94-.81,1.6-1.92,1.48,0,0,.09.08.09.08.64-.49,1.29-.97,1.95-1.46,0,0-.11-.1-.11-.1Z" fill="#000" stroke-width="0"/><path d="M567.1,115.93c.27-.56.53-1.13.8-1.69,0,0-.1-.02-.1-.02,0,.6.02,1.21.03,1.81l.09-.14c-.31,0-.62,0-.93,0l.12.06Z" fill="#000" stroke-width="0"/><path d="M660.57,17.56c.07-.2.14-.41.2-.61-.08.2-.16.4-.26.58-.02-.01.06.03.06.03Z" fill="#000" stroke-width="0"/><path d="M646.95,17.93c.2-.07.4-.13.61-.2-.1.06-.19.15-.29.17-.13.02-.26-.03-.4-.05,0,0,.09.08.09.08Z" fill="#000" stroke-width="0"/><path d="M651.99,18.08c.29-.81.92-.92,1.66-.82l-.08-.09c-.27.85-.93.88-1.65.81l.07.09Z" fill="#000" stroke-width="0"/><path d="M658.01,17.7c.84-.06,1.69-.11,2.55-.16.02.01-.07-.03-.04-.02-.83.06-1.69.11-2.56.14-.02-.01.06.03.06.03Z" fill="#000" stroke-width="0"/><path d="M686.69,65.02c.32-.84,1.11-.77,1.79-.92-.6.31-1.19.61-1.79.92Z" fill="#000" stroke-width="0"/><path d="M688.31,64.2c.6-.3,1.2-.61,1.79-.91-.6.3-1.2.61-1.79.91Z" fill="#000" stroke-width="0"/><path d="M701.93,79.36c.22-.1.44-.22.67-.3.05-.02.14.1.22.16-.32.03-.64.06-.97.07,0,0,.08.07.08.07Z" fill="#000" stroke-width="0"/><path d="M613.52,180.26c0,.24,0,.47,0,.71,0-.25,0-.5.02-.76.01-.02-.02.05-.02.05Z" fill="#000" stroke-width="0"/><path d="M570.78,11.98c.21-.11.41-.22.62-.33-.22.08-.45.16-.67.24l.05.09Z" fill="#000" stroke-width="0"/><path d="M570.73,11.89c-.04.84-.07,1.68-.1,2.54.02.02.06.09.08.11.04-.83.07-1.68.09-2.54-.01-.02-.07-.11-.07-.11Z" fill="#000" stroke-width="0"/><path d="M632.19,118.17c-.29.62-.59,1.24-.88,1.86.32-.62.64-1.24.95-1.86,0,0-.08,0-.08,0Z" fill="#000" stroke-width="0"/><path d="M567.11,117.6c-.46-.55-.85-1.11,0-1.67l-.12-.06c0,.59.01,1.18.02,1.76l.11-.04Z" fill="#000" stroke-width="0"/><path d="M546.64,29.88c.43-.28.85-.56,1.27-.85,0-.02-.05-.12-.05-.12-.43.28-.86.56-1.28.85,0,.01.06.12.06.12Z" fill="#000" stroke-width="0"/><path d="M546.36,32.44c.1-.84.2-1.69.29-2.54-.01-.01-.06-.12-.07-.13-.08.88-.14,1.77-.21,2.67,0,0-.01,0-.01,0Z" fill="#000" stroke-width="0"/><path d="M689.98,63.4c-.14-.31-.28-.61-.42-.92.34.21.68.41,1.01.62-.2.1-.4.2-.59.3Z" fill="#000" stroke-width="0"/><path d="M697.91,87.41c.21-.1.42-.21.64-.29.03-.01.12.14.18.21-.3,0-.59,0-.89,0,0,0,.07.09.07.09Z" fill="#000" stroke-width="0"/><path d="M513.05,58.17c-.03-.21-.06-.43-.09-.64-.02.09-.07.2-.05.28.03.11.12.21.19.32,0,0-.06.04-.06.04Z" fill="#000" stroke-width="0"/><path d="M548.05,26.28c.08.07.16.14.24.21,0-.15,0-.31-.01-.46-.07.08-.14.16-.21.24h-.01Z" fill="#000" stroke-width="0"/><path d="M696.07,52.49c.22.04.43.09.65.13-.23-.04-.46-.08-.7-.13-.02,0,.06,0,.06,0Z" fill="#000" stroke-width="0"/><path d="M548.06,26.28c-.07.87-.15,1.73-.21,2.62.01.02.05.12.06.14.05-.9.09-1.83.14-2.75,0,0,.01,0,.01,0Z" fill="#000" stroke-width="0"/><path d="M595.3,42.34c.71-.57,1.45-.46,2.2-.1l-.06.04c-.71.02-1.43.04-2.14.06Z" fill="#000" stroke-width="0"/><path d="M620.19,85.71c.78-.18,1.56-.36,2.34-.54-.78.15-1.56.29-2.34.44,0,0,0,.11,0,.11Z" fill="#000" stroke-width="0"/><path d="M649.93,109.41c-1.27.96-2.29,2.32-4.04,2.51,1.37-.79,2.25-2.39,4.04-2.51Z" fill="#000" stroke-width="0"/><path d="M686.86,94.13c-.59-.3-1.17-.6-1.76-.9.59.3,1.17.6,1.76.9Z" fill="#000" stroke-width="0"/><path d="M624.17,102.22c1.01-.57,2.01-1.15,3.02-1.72-1.01.57-2.01,1.15-3.02,1.72Z" fill="#000" stroke-width="0"/><path d="M604.18,34.28c.86-.58,1.71-1.16,2.57-1.75-.86.58-1.71,1.16-2.57,1.75Z" fill="#000" stroke-width="0"/><path d="M593.08,42.77c-.08.14-.16.28-.25.41.11.01.22.03.33.04-.03-.15-.05-.31-.08-.46,0,0,0,0,0,0Z" fill="#000" stroke-width="0"/><path d="M595.4,42.24c0,.31,0,.61,0,.92-.77-.13-1.54-.26-2.31-.39,0,0,0,0,0,0,.77-.17,1.54-.34,2.31-.52Z" fill="#000" stroke-width="0"/><path d="M587.04,106.5c.01.2.03.41.04.61.02-.09.08-.18.06-.26-.02-.11-.11-.21-.17-.31,0,0,.06-.04.06-.04Z" fill="#000" stroke-width="0"/><path d="M527.01,80.58c.05.31.11.63.02.14.03.53.01.25-.02-.06-.01-.02,0-.08,0-.08Z" fill="#000" stroke-width="0"/><path d="M614.26,91.94c.14.13.29.27.43.4.17-.7-.21-.39-.49-.28,0-.01.05-.13.05-.13Z" fill="#000" stroke-width="0"/><path d="M615.65,94.04c-.59.3-1.17.6-1.76.9.59-.3,1.17-.6,1.76-.9Z" fill="#000" stroke-width="0"/><path d="M614.04,94.87c-.6.48-1.19.62-1.78,0,.59,0,1.19,0,1.78,0Z" fill="#000" stroke-width="0"/><path d="M525.72,90.92c.57-.99,1.13-1.98,1.7-2.98-.24,1.18-.76,2.2-1.7,2.98Z" fill="#000" stroke-width="0"/><path d="M522.21,57.31c-.12-.35-.26-.69-.35-1.04-.02-.08.14-.2.21-.31.09.18.26.36.26.53,0,.24-.15.48-.22.74.02.02.1.08.1.08Z" fill="#000" stroke-width="0"/><path d="M611.6,98.88c-.85.57-1.71,1.15-2.56,1.72.85-.57,1.71-1.15,2.56-1.72Z" fill="#000" stroke-width="0"/><path d="M613.36,98.08c-.63.3-1.27.6-1.9.9.63-.3,1.27-.6,1.9-.9Z" fill="#000" stroke-width="0"/><path d="M539.56,77.48c-.3.71-.59,1.42-.89,2.12.3-.71.59-1.42.89-2.12Z" fill="#000" stroke-width="0"/><path d="M596.62,91.6c-.14.57-.28,1.14-.42,1.71-.98.54-1.96,1.09-2.94,1.63.95-1.28,1.65-2.81,3.35-3.34Z" fill="#000" stroke-width="0"/><path d="M654.34,55.56c.59-.39,1.18-.78,1.77-1.16-.59.39-1.18.78-1.77,1.16Z" fill="#000" stroke-width="0"/></g><path d="M.31,51.06c-.48-.48-.4-1.59.24-1.91,2.15.16,5.74.24,8.21.24,2.23,0,6.29-.08,9.08-.24.72.24.64,1.35.16,1.91l-1.83.16c-1.67.16-2.63.64-2.63,1.35,0,.96,1.67,5.02,4.14,10.68,4.46,9.96,9.16,19.92,13.79,29.72,1.91-3.98,4.06-8.45,6.14-12.91.72-1.51,1.27-2.87,1.27-3.27s-.24-1.12-.64-2.07c-2.79-6.37-5.74-12.75-8.77-19.12-1.2-2.47-2.39-4.14-5.1-4.38l-1.91-.16c-.56-.64-.48-1.59.16-1.91,2.31.16,5.34.24,8.53.24,3.98,0,6.93-.08,8.77-.24.56.24.64,1.27.16,1.91l-2.07.16c-3.11.24-3.19.8-1.67,4.38,1.67,3.9,3.9,8.92,6.14,13.86,1.51-3.11,2.95-6.14,4.7-10.44,2.87-6.77,2.47-7.65-.08-7.81l-2.39-.16c-.56-.8-.4-1.67.16-1.91,2.15.16,4.54.24,7.49.24,2.63,0,5.82-.08,7.65-.24.56.24.64,1.27.16,1.91l-2.31.16c-3.35.24-4.78,3.82-6.53,7.09-1.67,2.95-5.02,9.88-6.21,12.67-.4.8-.72,1.59-.72,1.91s.16.96.56,1.91c2.71,6.14,5.5,12.11,8.13,18.17,2.47-5.58,4.86-11.15,7.17-16.81,1.59-3.82,5.82-14.42,6.37-15.86,1.04-2.87,2.39-6.29,2.39-7.25,0-1.12-.96-1.75-2.63-1.83l-2.31-.16c-.64-.72-.56-1.59.08-1.91,3.03.16,5.18.24,7.65.24,3.03,0,5.34-.08,7.41-.24.64.24.72,1.27.16,1.91l-1.51.16c-3.98.4-4.7,2.79-9.48,13.86l-5.82,13.47c-3.51,8.13-6.69,15.94-9.96,24.46-.24.16-.56.24-.96.24s-.8-.08-1.12-.24c-2.55-7.09-7.17-17.05-9.64-22.63-2.87,5.82-7.65,16.02-9.96,22.63-.24.16-.56.24-.96.24s-.8-.08-1.2-.24c-1.35-3.35-4.46-10.52-5.5-12.83-5.1-11.08-10.04-22.15-15.22-33.23-1.51-3.27-2.47-5.42-5.82-5.74l-1.91-.16Z" fill="#000" stroke-width="0"/><path d="M79.27,76.24c0-15.94,11.95-28.13,28.37-28.13,18.41,0,27.65,13.31,27.65,27.33,0,16.09-12.27,27.81-27.65,27.81-17.69,0-28.37-12.67-28.37-27.01ZM127.31,77.91c0-13.15-5.82-27.33-21.04-27.33-8.29,0-19.04,5.66-19.04,23.11,0,11.79,5.74,27.09,21.43,27.09,9.56,0,18.65-7.17,18.65-22.87Z" fill="#000" stroke-width="0"/><path d="M142.61,76.24c0-15.94,11.95-28.13,28.37-28.13,18.41,0,27.65,13.31,27.65,27.33,0,16.09-12.27,27.81-27.65,27.81-17.69,0-28.37-12.67-28.37-27.01ZM190.66,77.91c0-13.15-5.82-27.33-21.04-27.33-8.29,0-19.04,5.66-19.04,23.11,0,11.79,5.74,27.09,21.43,27.09,9.56,0,18.65-7.17,18.65-22.87Z" fill="#000" stroke-width="0"/><path d="M212.48,59.75c0-5.58-.4-7.25-3.75-7.73l-1.75-.24c-.64-.4-.72-1.67.08-1.99,6.77-.4,13.23-.64,20-.64s12.35.48,17.53,2.39c10.76,3.9,16.18,12.99,16.18,23.51s-4.86,18.8-13.94,23.74c-5.18,2.79-11.71,3.83-17.85,3.83-5.1,0-10.2-.64-12.99-.64-3.35,0-6.21.08-9.96.24-.48-.24-.64-1.51-.16-1.99l1.83-.24c4.62-.64,4.78-1.59,4.78-9.96v-30.28ZM219.02,88.19c0,4.22.24,6.77,1.59,8.68,1.75,2.47,4.78,3.27,9.8,3.27,15.46,0,22.39-10.12,22.39-24.94,0-8.77-4.22-23.59-25.1-23.59-4.7,0-7.25.64-7.89,1.12-.64.48-.8,2.47-.8,6.06v29.4Z" fill="#000" stroke-width="0"/><path d="M274.63,61.34c0-8.37-.16-9.64-5.18-10.04l-1.99-.16c-.48-.32-.32-1.75.16-1.99,4.46.16,7.17.24,10.36.24s5.82-.08,9.8-.24c.48.24.64,1.67.16,1.99l-1.91.16c-4.7.4-4.86,1.67-4.86,10.04v27.73c0,5.02.24,7.09,1.67,8.61.88.88,2.39,1.83,8.69,1.83,6.77,0,8.45-.32,9.72-1.04,1.59-.96,3.67-3.82,5.26-7.89.48-.4,1.99-.08,1.99.48,0,.88-2.23,9-3.35,11.16-4.06-.16-11.63-.24-19.84-.24h-7.33c-3.35,0-5.9.08-10.36.24-.48-.24-.64-1.51-.16-1.99l2.39-.24c4.62-.48,4.78-1.59,4.78-9.96v-28.69Z" fill="#000" stroke-width="0"/><path d="M346.5,83.49c-.56-1.75-.88-1.99-3.27-1.99h-12.03c-1.99,0-2.47.24-3.03,1.91l-2.79,8.37c-1.2,3.59-1.75,5.74-1.75,6.61,0,.96.4,1.43,2.31,1.59l2.63.24c.56.4.56,1.67-.16,1.99-2.07-.16-4.54-.16-8.29-.24-2.63,0-5.5.16-7.65.24-.48-.32-.64-1.59-.16-1.99l2.63-.24c1.91-.16,3.67-1.04,4.78-3.9,1.43-3.67,3.67-8.84,7.01-17.77l8.13-21.51c1.12-2.87,1.59-4.38,1.35-5.66,1.91-.56,3.27-1.99,4.14-3.03.48,0,1.04.16,1.2.72,1.04,3.51,2.31,7.17,3.51,10.68l10.92,32.03c2.31,6.85,3.35,8.05,6.77,8.45l2.15.24c.56.4.4,1.67,0,1.99-3.27-.16-6.06-.24-9.64-.24-3.83,0-6.85.16-9.16.24-.64-.32-.72-1.59-.16-1.99l2.31-.24c1.67-.16,2.79-.64,2.79-1.43,0-.88-.4-2.31-1.04-4.22l-3.51-10.84ZM330.72,76.4c-.64,1.83-.56,1.91,1.67,1.91h9.8c2.31,0,2.47-.32,1.75-2.47l-4.3-12.99c-.64-1.91-1.35-4.06-1.83-5.02h-.16c-.24.4-1.04,2.31-1.91,4.7l-5.02,13.86Z" fill="#000" stroke-width="0"/><path d="M420.84,88.43c0,2.39,0,11.87.24,13.94-.16.48-.64.88-1.51.88-.96-1.35-3.27-4.14-10.2-12.03l-18.49-21.04c-2.15-2.47-7.57-9-9.24-10.76h-.16c-.32.96-.4,2.79-.4,5.18v17.37c0,3.74.08,14.1,1.43,16.49.48.88,2.07,1.35,4.06,1.51l2.47.24c.48.64.4,1.59-.16,1.99-3.58-.16-6.37-.24-9.32-.24-3.35,0-5.5.08-8.29.24-.56-.4-.64-1.51-.16-1.99l2.15-.24c1.83-.24,3.11-.72,3.51-1.59,1.12-2.87,1.04-12.59,1.04-16.41v-23.03c0-2.23-.08-3.9-1.75-5.74-1.12-1.12-3.03-1.67-4.94-1.91l-1.35-.16c-.48-.48-.48-1.67.16-1.99,3.35.24,7.57.24,9,.24,1.28,0,2.63-.08,3.67-.24,1.59,4.06,11,14.58,13.63,17.53l7.73,8.69c5.5,6.14,9.4,10.6,13.15,14.42h.16c.32-.4.32-1.67.32-3.35v-17.05c0-3.75-.08-14.1-1.59-16.49-.48-.72-1.75-1.19-4.94-1.59l-1.35-.16c-.56-.48-.48-1.75.16-1.99,3.67.16,6.37.24,9.4.24,3.43,0,5.5-.08,8.21-.24.64.4.64,1.51.16,1.99l-1.12.16c-2.55.4-4.14,1.04-4.46,1.67-1.35,2.87-1.2,12.75-1.2,16.41v19.04Z" fill="#000" stroke-width="0"/><path d="M440.35,59.75c0-5.58-.4-7.25-3.75-7.73l-1.75-.24c-.64-.4-.72-1.67.08-1.99,6.77-.4,13.23-.64,20-.64s12.35.48,17.53,2.39c10.76,3.9,16.18,12.99,16.18,23.51s-4.86,18.8-13.94,23.74c-5.18,2.79-11.71,3.83-17.85,3.83-5.1,0-10.2-.64-12.99-.64-3.35,0-6.21.08-9.96.24-.48-.24-.64-1.51-.16-1.99l1.83-.24c4.62-.64,4.78-1.59,4.78-9.96v-30.28ZM446.89,88.19c0,4.22.24,6.77,1.59,8.68,1.75,2.47,4.78,3.27,9.8,3.27,15.46,0,22.39-10.12,22.39-24.94,0-8.77-4.22-23.59-25.1-23.59-4.7,0-7.25.64-7.89,1.12-.64.48-.8,2.47-.8,6.06v29.4Z" fill="#000" stroke-width="0"/><path d="M22.5,139.46c-3.82,0-3.98.16-3.98,2.55v11.24c0,8.37.4,9.48,4.86,9.96l2.31.24c.48.32.32,1.75-.16,1.99-4.3-.16-7.01-.24-10.12-.24-3.43,0-6.14.16-9.24.24-.48-.24-.64-1.51-.16-1.99l1.35-.24c4.46-.8,4.62-1.59,4.62-9.96v-28.69c0-8.37-.56-9.72-4.7-10.04l-2.07-.16c-.48-.32-.32-1.75.16-1.99,3.9.08,6.61.24,10.04.24,3.11,0,5.82-.08,9.24-.24.48.24.64,1.67.16,1.99l-1.51.16c-4.62.48-4.78,1.67-4.78,10.04v9.16c0,2.47.16,2.55,3.98,2.55h22.79c3.82,0,3.98-.08,3.98-2.55v-9.16c0-8.37-.16-9.56-4.86-10.04l-1.51-.16c-.48-.32-.32-1.75.16-1.99,3.67.16,6.37.24,9.64.24s5.82-.08,9.4-.24c.48.24.64,1.67.16,1.99l-1.67.16c-4.62.48-4.78,1.67-4.78,10.04v28.69c0,8.37.16,9.4,4.78,9.96l1.91.24c.48.32.32,1.75-.16,1.99-3.82-.16-6.53-.24-9.64-.24-3.27,0-6.14.08-9.64.24-.48-.24-.64-1.51-.16-1.99l1.51-.24c4.86-.8,4.86-1.59,4.86-9.96v-11.24c0-2.39-.16-2.55-3.98-2.55h-22.79Z" fill="#000" stroke-width="0"/><path d="M76.2,124.72c0-8.45-.16-9.8-4.86-10.2l-1.99-.16c-.48-.32-.32-1.75.16-1.99,3.98.16,6.69.24,10.04.24s5.9-.08,9.88-.24c.48.24.64,1.67.16,1.99l-1.99.16c-4.7.4-4.86,1.75-4.86,10.2v28.37c0,8.45.16,9.56,4.86,10.12l1.99.24c.48.32.32,1.75-.16,1.99-3.98-.16-6.69-.24-9.88-.24-3.35,0-6.06.08-10.04.24-.48-.24-.64-1.51-.16-1.99l1.99-.24c4.7-.56,4.86-1.67,4.86-10.12v-28.37Z" fill="#000" stroke-width="0"/><path d="M104.48,124.56c0-8.37-.16-9.64-5.18-10.04l-1.99-.16c-.48-.32-.32-1.75.16-1.99,4.46.16,7.17.24,10.36.24s5.82-.08,9.8-.24c.48.24.64,1.67.16,1.99l-1.91.16c-4.7.4-4.86,1.67-4.86,10.04v27.73c0,5.02.24,7.09,1.67,8.61.88.88,2.39,1.83,8.69,1.83,6.77,0,8.45-.32,9.72-1.04,1.59-.96,3.67-3.82,5.26-7.89.48-.4,1.99-.08,1.99.48,0,.88-2.23,9-3.35,11.16-4.06-.16-11.63-.24-19.84-.24h-7.33c-3.35,0-5.9.08-10.36.24-.48-.24-.64-1.51-.16-1.99l2.39-.24c4.62-.48,4.78-1.59,4.78-9.96v-28.69Z" fill="#000" stroke-width="0"/><path d="M149.9,124.56c0-8.37-.16-9.64-5.18-10.04l-1.99-.16c-.48-.32-.32-1.75.16-1.99,4.46.16,7.17.24,10.36.24s5.82-.08,9.8-.24c.48.24.64,1.67.16,1.99l-1.91.16c-4.7.4-4.86,1.67-4.86,10.04v27.73c0,5.02.24,7.09,1.67,8.61.88.88,2.39,1.83,8.69,1.83,6.77,0,8.45-.32,9.72-1.04,1.59-.96,3.67-3.82,5.26-7.89.48-.4,1.99-.08,1.99.48,0,.88-2.23,9-3.35,11.16-4.06-.16-11.63-.24-19.84-.24h-7.33c-3.35,0-5.9.08-10.36.24-.48-.24-.64-1.51-.16-1.99l2.39-.24c4.62-.48,4.78-1.59,4.78-9.96v-28.69Z" fill="#000" stroke-width="0"/><path d="M202.96,166.47c-6.69,0-10.92-2.07-12.43-2.95-.96-1.75-1.99-7.41-2.15-11.16.4-.56,1.59-.72,1.91-.24,1.2,4.06,4.46,11.87,13.71,11.87,6.69,0,9.96-4.38,9.96-9.16,0-3.51-.72-7.41-6.53-11.16l-7.57-4.94c-3.98-2.63-8.61-7.17-8.61-13.71,0-7.57,5.9-13.71,16.25-13.71,2.47,0,5.34.48,7.41,1.04,1.04.32,2.15.48,2.79.48.72,1.91,1.43,6.38,1.43,9.72-.32.48-1.59.72-1.99.24-1.04-3.82-3.19-9-10.84-9s-9.48,5.18-9.48,8.84c0,4.62,3.83,7.97,6.77,9.8l6.37,3.98c5.02,3.11,9.96,7.73,9.96,15.3,0,8.76-6.61,14.74-16.97,14.74Z" fill="#000" stroke-width="0"/><path d="M306.95,137.23c2.09,0,4.7-.49,6.3-.91.51-.13,1.23-.31,1.68-.31h.04l.03-.03c.09-.07.15-.18.16-.3,0-.12-.03-.23-.11-.31l-.04-.03c-.53-.21-.76-.92-.76-2.37v-1.96c0-1.84.06-2.66,1.4-2.82l.6-.08.03-.02c.15-.13.23-.36.21-.6-.02-.22-.12-.39-.26-.47l-.03-.02h-.04c-1.18.07-2.36.11-3.7.11-2.17,0-4.04-.04-5-.1h-.03s-.03,0-.03,0c-.19.08-.27.33-.27.53,0,.21.06.47.27.57l1.58.19c2.08.24,2.16.36,2.16,3.27v1.4c0,1.08-.17,1.7-.33,1.93-.31.48-1.46.99-3.75.99-6.4,0-10.38-4.55-10.38-11.88,0-4.59,2.52-9.96,9.64-9.96,4,0,6.18,1.5,7.05,4.88v.03s.03.02.03.02c.17.17.51.2.74.15.21-.05.36-.15.41-.3v-.03s0-.03,0-.03c-.35-2.36-.52-4.01-.52-5.06v-.15l-.15.02c-.36.05-1.31-.14-1.94-.28l-.18-.04c-.53-.12-2.41-.53-4.47-.53-4.87,0-8.52,1.35-11.19,4.13-2.05,2.19-3.18,5.16-3.18,8.38s1.13,5.9,3.26,8.03c2.53,2.57,6.26,3.92,10.77,3.92Z" fill="#000" stroke-width="0"/><path d="M337.5,137.23c7,0,12.27-5.31,12.27-12.34,0-3.23-1.09-6.21-3.07-8.4-2.22-2.44-5.4-3.73-9.2-3.73-7.17,0-12.59,5.37-12.59,12.48,0,5.96,4.32,11.99,12.59,11.99ZM328.66,124.12c0-7.4,4.44-10.03,8.24-10.03,6.73,0,9.12,6.4,9.12,11.88,0,7.32-4.35,9.92-8.07,9.92-6.38,0-9.29-6.1-9.29-11.78Z" fill="#000" stroke-width="0"/><path d="M366.27,136.67c3.83,0,7,.04,8.71.1h.08s.04-.07.04-.07c.51-.98,1.48-4.57,1.48-4.96,0-.07-.03-.21-.26-.32-.25-.12-.64-.14-.82.01l-.04.05c-.64,1.63-1.53,2.96-2.26,3.4-.54.3-1.28.44-4.21.44-2.6,0-3.33-.37-3.72-.77-.6-.63-.7-1.51-.7-3.69v-12.18c0-3.65.08-4.12,2.02-4.29l.84-.07.06-.02c.18-.12.19-.41.18-.53-.01-.21-.09-.47-.26-.56h-.03s-.03-.01-.03-.01c-1.66.07-2.9.11-4.3.11s-2.51-.03-4.55-.11h-.03s-.03.01-.03.01c-.18.09-.25.36-.26.56,0,.12,0,.41.18.53l.93.09c2.09.17,2.16.58,2.16,4.29v12.6c0,3.65-.06,4.05-1.99,4.25l-1.09.11-.03.03c-.16.16-.18.44-.15.64.04.21.13.37.25.43h.03s.03.01.03.01c2.01-.07,3.11-.1,4.55-.1h3.22Z" fill="#000" stroke-width="0"/><path d="M392.9,136.77h.03s.03-.01.03-.01c.17-.09.25-.34.26-.56,0-.12,0-.41-.18-.53l-.03-.02-1.22-.11c-1.96-.17-2.02-.58-2.02-4.25v-4.87c0-.81,0-.82,1.03-.82h2.38c1.24,0,2.17.03,2.66.17.54.17.84.53,1.04,1.24l.36,1.4.03.03c.19.17.49.21.71.18.18-.02.32-.1.39-.2l.02-.03v-.04c0-.36-.03-.81-.06-1.34-.04-.64-.08-1.36-.08-2.06s.04-1.46.08-2.13c.03-.55.06-1.03.06-1.41v-.04l-.02-.03c-.08-.12-.26-.2-.49-.21-.21,0-.48.04-.62.2l-.34,1.45c-.2.86-.44,1.01-.79,1.14-.39.13-1.46.2-2.94.2h-2.38q-1.03,0-1.03-.82v-7.39q0-1.28.92-1.28h2.14c1.46,0,2.61,0,3.36.21,1.73.45,2.1,1.78,2.36,3.23v.04s.04.03.04.03c.15.13.38.18.61.13.2-.04.36-.14.42-.27l.02-.03v-.03c-.07-1.27-.11-2.95-.11-4.61v-.16l-.15.04c-.44.1-2.51.1-4.7.1h-6.44c-1.32,0-2.49-.03-4.05-.11h-.03s-.03.01-.03.01c-.17.09-.25.36-.26.56,0,.12,0,.41.18.53l.61.09c1.93.23,1.99.64,1.99,4.29v12.6c0,3.67-.06,4.02-1.99,4.25l-.92.11-.03.03c-.16.16-.18.44-.15.64.04.21.13.37.25.43h.03s.03.01.03.01c1.57-.07,2.79-.1,4.37-.1,1.39,0,2.54.03,4.65.1Z" fill="#000" stroke-width="0"/><path d="M285.79,158.81c-.25-.06-.5-.02-.65.1l-.03.02v.03c-.73,1.84-2.62,4.93-7.21,4.93-6.14,0-10.27-4.54-10.27-11.29,0-7.75,5.05-10.52,9.78-10.52,3.95,0,6.32,1.69,7.05,5.01v.04s.04.03.04.03c.15.13.39.19.64.16.22-.03.39-.12.49-.25l.03-.04v-.05c-.28-2.07-.46-4.29-.5-5.13v-.13s-.14.01-.14.01c-.27.03-.49-.02-.85-.11l-.09-.02c-1.74-.48-4.42-.85-6.23-.85-3.72,0-7.01,1.04-9.53,3-2.83,2.2-4.46,5.62-4.46,9.38,0,4.04,1.78,7.5,5.03,9.73,2.37,1.59,5.25,2.37,8.79,2.37,2.22,0,4.77-.52,5.57-.81.36-.13.78-.27,1.2-.34h.05s.03-.05.03-.05c.57-.72,1.47-3.11,1.71-4.86v-.04s-.02-.04-.02-.04c-.08-.13-.23-.23-.44-.28Z" fill="#000" stroke-width="0"/><path d="M306.74,140.75c-7.17,0-12.59,5.37-12.59,12.48,0,5.96,4.32,11.99,12.59,11.99,7,0,12.27-5.31,12.27-12.34,0-3.23-1.09-6.21-3.07-8.4-2.22-2.44-5.4-3.73-9.2-3.73ZM315.26,153.97c0,7.32-4.35,9.92-8.07,9.92-6.38,0-9.29-6.1-9.29-11.78,0-7.4,4.44-10.03,8.24-10.03,6.73,0,9.12,6.4,9.12,11.88Z" fill="#000" stroke-width="0"/><path d="M351.99,141.21h-.04c-1.22.07-2.17.11-3.67.11-1.34,0-2.64-.03-3.98-.11h-.04s-.03.02-.03.02c-.13.08-.22.25-.24.45-.03.22.02.43.15.58l.03.04.93.07c.85.07,1.44.31,1.65.67.42.74.65,3.29.65,7.18v4.03c0,7.59-3.74,9.19-6.88,9.19-4.76,0-6.98-2.93-6.98-9.22v-7.56c0-3.65.07-4.12,1.99-4.29l.87-.07.03-.02c.13-.09.2-.27.18-.51-.01-.2-.09-.46-.26-.54h-.03s-.03-.01-.03-.01c-1.67.07-2.85.11-4.3.11s-2.63-.04-4.34-.11h-.03s-.03.01-.03.01c-.17.09-.25.35-.26.54-.01.24.05.43.18.51l.03.02.91.07c1.91.17,1.99.64,1.99,4.29v8.26c0,4.19.86,6.76,2.77,8.36,1.51,1.3,3.74,1.96,6.63,1.96,2.72,0,5.31-.99,6.78-2.59,1.67-1.79,2.48-4.55,2.48-8.45v-3.96c0-1.93,0-5.96.48-7.09.19-.41.82-.7,1.65-.77l.89-.07.03-.04c.13-.15.19-.4.16-.62-.03-.18-.12-.32-.25-.41l-.03-.02Z" fill="#000" stroke-width="0"/><path d="M382,164.15h-.04c-.88-.07-1.73-.42-2.34-.96-2.43-2.04-4.35-5-7.01-9.28-.21-.33-.27-.55-.2-.67,1.08-.44,4.42-2.11,4.42-5.95,0-2.86-1.62-4.3-2.97-5.01-1.73-.94-3.96-1.07-5.91-1.07-3.18,0-5.67.09-7.82.28h-.04c-.16.09-.26.27-.28.5-.02.25.07.49.23.6l1.18.16c1.28.16,1.43.56,1.43,3.97v12.57c0,3.67-.06,4.02-1.99,4.25l-.92.11-.03.04c-.16.19-.18.49-.14.68.04.19.13.33.25.39h.03s.03.01.03.01c1.78-.08,3.01-.1,4.37-.1,1.49,0,2.74.04,4.16.1h.03s.03-.01.03-.01c.13-.07.23-.25.26-.49.03-.26-.03-.48-.17-.6l-.03-.02-.77-.11c-1.94-.27-1.99-.61-1.99-4.25v-4.41c0-.63,0-.65,1.52-.65,1.4,0,1.9.36,2.38,1.07.54.78,1.16,1.77,1.77,2.73.62.98,1.2,1.91,1.66,2.56,2.38,3.38,4.16,4.46,7.35,4.46.65,0,1.24-.07,1.58-.18l.04-.02c.12-.1.18-.25.16-.41-.02-.14-.1-.25-.22-.3ZM365.77,143.54c0-.86,0-1,2.15-1,4.04,0,5.48,2.84,5.48,5.26,0,1.96-.56,3.35-1.7,4.24-1.03.78-2.43.88-3.53.88-1.79,0-2.25-.08-2.32-.12-.08-.11-.08-.54-.08-1.08v-8.19Z" fill="#000" stroke-width="0"/><path d="M397.7,151.8l-2.8-1.75c-1.09-.68-2.92-2.12-2.92-4.2,0-1.13.39-3.76,4.04-3.76,3.18,0,4.15,2.06,4.64,3.86l.03.05c.09.11.27.17.47.16.22-.01.49-.1.6-.27l.02-.03v-.04c0-1.54-.34-3.51-.64-4.31l-.03-.08h-.09c-.25,0-.73-.06-1.19-.21-.82-.22-2.12-.46-3.29-.46-4.35,0-7.27,2.47-7.27,6.15,0,2.97,2.09,4.97,3.84,6.12l3.33,2.17c2.47,1.59,2.81,3.25,2.81,4.79,0,1.94-1.31,3.9-4.25,3.9-3.63,0-5.21-2.79-5.9-5.13l-.02-.03c-.08-.11-.22-.18-.4-.18-.21,0-.5.08-.64.28l-.03.04v.04c.07,1.57.51,4.13.96,4.96l.02.03.03.02c.85.49,2.69,1.31,5.52,1.31,4.53,0,7.58-2.65,7.58-6.6,0-2.75-1.45-4.98-4.43-6.83Z" fill="#000" stroke-width="0"/><path d="M429.88,159.73c-.08-.18-.25-.31-.47-.37-.22-.06-.44-.03-.59.08l-.04.05c-.84,1.67-1.79,2.99-2.43,3.34-.78.39-1.85.51-4.42.51-3.12,0-3.78-.4-4.15-.77-.53-.56-.63-1.73-.63-3.55v-4.94c0-.81,0-.82,1.03-.82h2.03c1.27,0,2.16.03,2.67.17.67.17.87.69.99,1.24l.32,1.37.03.05c.14.17.43.21.63.19.23-.02.4-.11.48-.25l.02-.03v-.03c0-.34-.03-.78-.06-1.29-.04-.64-.08-1.37-.08-2.07s.04-1.49.08-2.15c.03-.54.06-1.01.06-1.38v-.03l-.02-.03c-.08-.14-.25-.23-.48-.25-.21-.02-.49.02-.63.19l-.31,1.49c-.17.88-.41,1.02-.76,1.13-.4.13-1.44.2-2.94.2h-2.03q-1.03,0-1.03-.85v-7q0-1.28.93-1.28h2.52c1.54,0,2.64.03,3.36.21,1.68.42,2.02,1.52,2.51,3.04l.06.2.02.04c.1.12.3.19.51.17.19-.01.45-.08.56-.25l.03-.04-.05-.52c-.14-1.54-.33-3.66-.52-4.21l-.04-.11-.11.03c-.41.1-2.49.1-4.7.1h-6.58c-1.35,0-2.5-.03-4.12-.11h-.03s-.03.01-.03.01c-.18.09-.25.36-.26.56,0,.12,0,.41.18.53l.62.09c1.96.23,2.02.64,2.02,4.29v12.6c0,3.69-.19,4.09-2.06,4.25l-1.2.11-.03.03c-.16.16-.18.44-.15.64.04.21.13.37.25.43h.03s.03.01.03.01c2.11-.07,3.27-.1,4.76-.1h3.15c3.07,0,6.23.04,9.38.1h.08s.03-.07.03-.07c.46-.96,1.34-3.66,1.59-4.9v-.04s0-.04,0-.04Z" fill="#000" stroke-width="0"/></svg>