<?xml version="1.0" encoding="UTF-8"?><svg id="Layer_1" xmlns="http://www.w3.org/2000/svg" width="673.79" height="167.11" viewBox="0 0 673.79 167.11"><g id="f1Oc6P.tif"><path d="M669.36,77.37c.11,1.07-.81,1.33-1.44,1.8-1.4,1.05-3.12,1.77-3.63,3.69-2.04,1.51-3.73,3.56-6.72,3.46-1.6-.05-3.22.61-4.83.94.63-.65,1.25-1.29,2.19-2.26-.92,0-1.41-.12-1.81.02-1,.36-1.96.83-2.94,1.25-.14-.4-.28-.8-.43-1.22q-2.36,1.09-3.12,2.76c1.32-.6,2.49-1.13,3.65-1.66.53,1.12,1.74.55,2.54,1.02-.69.51-1.37,1.01-2.07,1.52-1.25.11-2.77-.92-3.61.89.24.07.49.23.67.18.99-.33,1.97-.71,2.95-1.07.03.24-.03.61.09.68.96.59,1.93,1.19,2.97,1.62.35.14.9-.21,1.36-.34l-.05-.1c.68.29,1.37.58,2.05.87-.19.28-.32.68-.58.81-.87.45-2.2.36-1.91,1.99.04.25-.59.64-.94.93-.59.49-1.2.95-2.07,1.65,4.09-.7,5.38-1.71,6.8-5.16-.49-.05-.94-.1-1.38-.15.71-.8,1.41-1.59,2.12-2.39.24-.22.48-.43.72-.65.61-.71,1.08-1.64,1.84-2.09,2.25-1.34,4.61-2.49,6.94-3.7.17-.09.43-.01.79-.01-.02,1.39-1.33,1.52-2.07,2.14-.73.61-1.54,1.11-2.28,1.64.03.2,0,.38.06.4.32.13.65.23,1.22.43-.45.48-.93.82-1.18,1.29-.27.5-.39,1.1-.48,1.68-.26,1.56-1.3,2.46-2.54,3.26-.8.52-1.69,1.05-2.2,1.81-1.28,1.9-3.24,2.73-5.13,3.71-1.26.65-2.49,1.38-3.81,2.11-.34-.21-.73-.45-1.26-.79-.74.43-1.52.98-2.37,1.36-1.28.57-1.26,2.32-2.67,2.77-1.24.39-2.42.94-3.65,1.43-.23-.45-.41-1.13-.84-1.53-.5-.48-1.12-.05-1.63.25-.62.36-1.23.73-1.84,1.1-.3.19-.58.43-.89.6-.84.45-1.8-.62-2.69.3-.64.67-1.52,1.1-2.3,1.63-.06.04-.2-.06-.43-.14.06-.29.03-.68.21-.89.8-.92,1.53-1.77.47-3.02-.17-.2.12-.77.26-1.55-1.71.79-2.61,1.94-3.75,2.75-1.25.89-2.81.13-4.37,1.19.1-1.58,1.33-2.08,1.56-3.06-.22-.07-.47-.22-.55-.15-1.15.86-2.26,1.76-3.41,2.62-.42.32-.9.57-2.03,1.27.78-1.81,1.28-2.79,2.42-3.3.25-.24.51-.5.77-.76,3.04-2.31,6.09-4.62,9.1-6.96.31-.24.42-.72.73-1.29-2.08-.13-3.54.5-4.77,1.75v-1.91c-4.89,2.33-9.36,4.54-12.88,8.25-.91.96-1.7,2.06-3.27,1.75h.07c-3.05,1.35-3.9,2.06-5.99,4.95-.18-.58-.35-1.12-.57-1.85-.45.19-.9.3-1.26.55-.59.41-1.08.95-1.68,1.35-3.94,2.61-5.66,6.48-5.82,10.99-.19,5.62-.25,11.26.02,16.87.2,4.14,2.39,7.73,4.34,11.31,1.19,2.2,2.46,4.36,3.65,6.45-1.06,2.3-3.88,2.77-4.21,5.36-1.04-.11-1.96-.21-2.86-.31-.14-.25-.31-.44-.36-.66-.48-2.22-.86-4.46-1.42-6.65-.44-1.7-.66-3.52-2.15-5.43,0,.95-.08,1.4.01,1.81.53,2.21,1.06,4.42,1.66,6.61.36,1.31.57,2.57-.05,3.85l.03-.06c-.83.6-1.66,1.21-2.48,1.81l.03.09c-.29-.75-.6-1.43-1.57-.77l.08-.11c-1.75-1.55-2.01-3.63-1.85-5.74-.96-.3-1.34.11-1.35.79-.04,2.03-.02,4.06-.02,5.97-1.37-2.66-2.4-5.54-2.37-8.8-.08.45-.24.91-.21,1.35.09,1.55.24,3.09.37,4.64v-.03c-.63.12-1.26.24-2.07.4-.67-3.55-.03-6.92-.66-10.88-1.31,3.83-.58,7.16-.79,10.46h-2.33c-.27-.85-.54-1.7-.81-2.56-1.35.32-.72,1.49-1.24,2.06-.8.39-1.23.04-2.2-1.95-.61.75-1.15,1.41-1.69,2.07-1.38-.64-.21-2.01-.86-2.91-2.24-.67-2.8,1.57-4.14,2.48-.69-.15-.65-.61-.37-1.05,1.33-2.13,2.7-4.23,4.03-6.35,1.16-1.84,1.87-3.84,2.25-6,.68-3.89,1.32-7.78,1.25-11.74-.08-4.08.4-8.11,1.1-12.12,1.06-6.11.79-6.78-4.34-10.49-1.93-1.39-3.94-2.66-5.73-3.86-1.34.13-2.01,1.48-3.44.81,0-.45-.09-1.01.02-1.53.27-1.31-.46-1.71-1.54-1.86-1.38.73-.9,2.35-1.82,3.62-.28-.73-.5-1.31-.73-1.89.19-.72,1.64-.89.75-2.59-.31,1.23-.5,1.95-.68,2.68-.84-.22-1.72.18-2.61-.49-.49-.37-1.52,0-2.31.02-.81.01-.85-.63-.95-1.19l-.1.04c.27-.52.54-1.04.81-1.56l-.08.12c.26-.54.89-1.08-.02-1.61l.09.02c.27-.59.33-1.36-.35-1.47-1.08-.17-1.92-.72-2.83-1.21-1.01-.54-1.84-.12-2.23.96-.04.11-.15.23-.13.32.7,3.58-2.36,3.35-4.3,4.25-1.35-.39-2.15.71-3.37,1.35-.17-.48-.31-.87-.45-1.27l-.11.05c.54-.2,1.09-.37,1.61-.61.2-.09.35-.32.48-.52,1.41-2.04,2.84-4.08,4.21-6.15.57-.86.26-1.37-1.05-1.92.1-.37.2-.74.3-1.11-.31.03-.62.05-.93.08-.11.01-.21.04-.32.07l.11.06c-.35-1.42-.59-1.71-1.39-1.51-2.09.52-4.26.93-4.94,3.51-.08.28-.71.42-1.09.62l.08.09c.12-.75,1.24-1.22.7-2.2-1.06-.24-1.68.42-2.12,1.06-1.79,2.59-4.32,4.44-6.46,6.66-1.49,1.55-3,2.23-5.09,1.41-.25-.49-.51-1.01-.78-1.55-.7.09-1.38.18-2.12.28-.13-1.12-.42-2.15-.3-3.13.11-.85.7-1.64,1.22-2.78-1.95.19-2.24,2.1-3.59,2.47-.09-.31-.18-.63-.27-.94-.27.09-.57.14-.79.3-.14.11-.17.38-.25.57.26.06.53.16.79.16.21,0,.42-.14.63-.21-.41,1.19-.91,2.31-2.49,1.91-1.38-.35-1.89,1.41-3.17,1.23-.18-1.2-1.06-1.65-2.24-1.99.35-.86.7-1.7,1.04-2.53-.5-.12-.81-.19-1.16-.28,1.39-2.03,2.68-4.01,4.08-5.93,1.36-1.86,2.94-3.24,5.57-3.03,1.72.13,3.22-.73,4.14-2.34.41-.71.84-1.41,1.45-2.45-2.2.07-4.05.41-5.55,1.44-1.62,1.11-3.39,1.8-5.21,2.21-1.89.43-3.3,1.19-4.2,2.92-.21.4-.64.68-.97,1.02-.11-.19-.19-.52-.33-.55-.27-.05-.57.06-.85.13-.06.02-.08.18-.12.28.25.08.5.2.76.21.21,0,.42-.11.64-.18-.45,1.03-.91,2.06-1.57,3.55,1.26-.74,2.12-1.24,2.98-1.74l-.09-.08c-.61,1.49-1.69,2.53-3.11,3.6-.6-.76-1.09-1.38-1.68-2.12-.34.02-.88.06-1.41.1-.1-.26-.29-.51-.24-.67.27-.78.61-1.54.9-2.32.2-.55.56-1.13.5-1.66-.3-2.95.89-5.32,2.66-7.53.48-.6.83-1.32,1.22-1.96-.8-.71-1.36-.33-1.71.11-1.12,1.4-2.19,2.84-3.22,4.3-.72,1.03-1.63,1.81-2.82,2.07-.62.13-1.37-.09-2.01-.32-.63-.22-.54-.7.23-1.55.25.37.5.74.74,1.1.24-.04.51-.01.68-.13,3.06-2.22,4.89-5.52,7.28-8.33.6-.71,1.29-1.33,1.94-2l-.08-.09c-.27.83-.54,1.67-.93,2.86.81-.25,1.25-.34,1.65-.52,1.91-.85,3.77-1.81,5.81-2.37,1.99-.55,3.51-1.73,4.55-3.65.58-1.07,1.76-1.82,2.67-2.72-.69,1.16-1.38,2.33-2.18,3.69,2.42.37,3.58-1.28,5.02-2.3.35.48.88.53,1.21.16,1.02-1.15,1.97-2.38,2.92-3.59.3-.38.47-.82-.3-1.19-.98.9-2.02,1.85-3.05,2.8.22-.5.43-1,.79-1.84-.93.17-1.58.12-2.02.4-.9.57-1.68,1.32-2.5,2-.37-.26-.81-.8-1.11-.73-1.61.39-3.24.78-4.54,1.97-.49.45-1.2.66-1.8.99v.05c-.61-.72-.98.05-1.36.28-1.07.64-1.97,1.64-3.37,1.56l.08.05c-.5-.3-.95-.73-1.63-.39-1.06.55-2.12,1.08-3.2,1.58-.16.07-.58-.07-.63-.2-.11-.31-.18-.74-.04-1,.13-.25.55-.36.84-.52.79-.43,1.23-1.05,1.18-2-1.74-.24-3.05.76-4.44,1.32-.62.25-1.43,1.43-1.28,1.92.44,1.44-.44,2.24-.99,3.25-.63,1.14-1.21,2.31-1.75,3.49-.95,2.09-2.37,3.82-4.03,5.87-.45-.89-1.06-1.53-.95-2.02.2-.92.58-1.64.09-2.68-.36-.76.47-1.45,1.19-1.97,2.17-1.57,3.58-3.68,4.32-6.2-.87-.63-1.29-.06-1.67.32-1.43,1.44-2.81,2.93-4.2,4.4l.07.09c.2-1.63.4-3.27.61-4.9.03-.23.09-.57.24-.65,1.62-.8.88-2.88,2.18-3.88.85-.65,1.56-1.49,2.28-2.28.2-.21.24-.57.45-1.11-1.14.31-2.05.41-2.41,1.46.41-.49.55-1.06.03-1.45-.2-.15-.79.09-1.13.29-.38.21-.68.56-1.01.86.66-2.63,2.52-3.94,4.99-4.6-.43.53-1.12.92-1.29,1.9,2.77-1.43,4.87-3.17,6.87-5.76-2.75.72-3.95,2.76-5.73,3.99.25-1.31,1.12-2.47.33-3.99-.56-1.09.39-1.92,1.34-2.49.06.54.11,1.08.24,2.27.66-.99.94-1.42,1.43-2.16h-1.78c.13-1.71.77-3.23,1.71-4.63l.06-.03c-.15.52-.3,1.04-.44,1.56,1.14.47,1.49-.31,1.84-.83.74-1.08,1.54-1.88,2.83-2.47,1.33-.61,2.33-1.95,3.47-2.97-.17.42-.32.85-.5,1.26q-.64,1.48.89,2.72l-.07-.05c-.35.23-.88.35-.45,1.17,2.26-1.6,4.16-3.49,6.07-5.32-.84-1.5-2.02.47-2.81-.43-.48-1.09,1.18-1.77.51-3.1-1.69,1.08-2.57,2.64-3.77,3.89.56-1.44,1.1-2.89,1.7-4.31.18-.42.51-.98.88-1.08,2.21-.61,3.14-2.43,4.11-4.19.49-.9,1.15-1.31,2.13-1.63.96-.31,1.76-1.13,2.97-1.95-.02,1.4-.47,2.13-1.32,2.64-1.48.89-2.35,2.26-3.27,3.8,1.38-.12,1.51-.02,2.37-1.15.67-.87,1.65-.89,2.44-1.38.76-.47.87-1.79,2.14-1.63.38.8-.41.98-.71,1.4-.41.58-.91,1.11-1.23,1.73-.26.51-.33,1.12-.44,1.51-.81.7-1.87-.2-2.39.76-.26.48-.48.97-.8,1.62,1.67.16,2.88-.15,3.82-1.24,1.78-2.07,4.22-3.54,5.45-6.12.23-.48.85-.77,1.34-1.2-.4-.13-.69-.21-.98-.3,1.01-2.92,1.94-4.31,3.74-5.57h0c1.15-.04,1.55-1,2.12-1.74.72-.94,1.48-1.71,2.52-2.42,1.82-1.24,3.76-2.48,4.97-4.37-.25-.8-.74-.55-1.19-.52-.44.03-.88,0-1.63,0,.73-1.81,1.44-3.21,3.12-3.94,1.67-.72,3.07-1.82,4.19-3.27.77-1,1.67-1.69,3.02-1.3.67,1.61.37,2.89-.69,4.31-1.26,1.68-2.14,3.66-3.12,5.41.56.81,1.04.43,1.33.16,2.29-2.08,4.55-4.16,5.05-7.51.13-.83,1.02-1.26,1.95-.75-.01-.02-.05-.08-.05-.08q.8,1.46-.59,2.97c0-.26,0-.53,0-.45,0-.08-.01.18-.03.43.84,1.08,1.2,1.21,1.88.64,1.48-1.25,2.67-2.71,3.5-4.48.34-.71.91-1.32,1.33-1.92,1.48.48,1.49,1.56,1.57,2.6.22-.02.52.03.64-.08,1.45-1.41,2.87-2.85,4.53-4.51.29.06.84.18,1.46.31-.21.63-.38,1.15-.6,1.85,1.75-.67,3.4-1.48,5.08-.2.78-.49,1.55-.97,2.29-1.44,1.06,1.06-.54,1.85.14,2.94,1.65-.64,2.85-1.99,4.24-3.01.86-.64,1.63-1.41,2.52-2,.44-.29,1.06-.29,1.91-.5-.2.95-.33,1.59-.53,2.54,1.45-1.08,2.71-2.01,3.98-2.95.06.07.13.13.19.2-.93,1.03-1.83,2.1-2.81,3.09-.66.67-.73,1.42-.56,2.28-1.11,1.68-3.31,1.1-4.7,2.24-1.27,1.05-2.62,2.01-4.43,3.39,1.24-.08,1.98.07,2.5-.2,2.52-1.36,5.01-2.79,7.45-4.29.57-.35.9-1.09,1.38-1.61,1.14-1.22,2.28-2.44,3.47-3.62.46-.45,1.02-.8,1.78-.92-.81.97-1.62,1.94-2.43,2.92,1.23,1.6,2.39.09,3.65.17-.43.65-.8,1.22-1.34,2.04,1.49.15,2.23-.87,3.13-1.43.9-.57,1.72-1.28,2.66-2,.97.55,1.89,1.06,3.15.81,1.03-.2,2.11-.12,3.12-.56.97-.43,1.98-.79,3-1.09.27-.08.9.14.92.29.07.4.04.99-.22,1.24-2.2,2.18-4.46,4.3-6.7,6.44.22-.55.44-1.1-.42-1.62-.57.47-1.21.94-1.79,1.49-.48.46-.88,1.01-1.32,1.51.08.09.16.17.24.26l3.53-1.9c-.24.37-.48.74-.84,1.29,3.06.76,3.89-2.22,5.98-2.98,0,1.1-1.02,1.51-1.49,2.24-.44.68-1.02,1.28-1.59,1.98,2.02-.16,2.75-.44,4.08-1.59,1.08-.94,2.13-1.9,3.51-3.13-.58,2.1-2.47,2.82-3.16,4.7,1.62.02,2.65-1.18,4.45-1.57-1.22,1.44-2.11,2.49-3.11,3.67,2.43-.33,5.71-1.76,7.91-3.4,1.07.2,2.17.67,3.33-.16.41-.29,1.32.12,2,.21l-.08-.08c-.32,1.06-1.41,1.1-2.14,1.62-.83.6-1.75,1.14-1.8,2.68,1.15-.61,2.11-1.17,3.12-1.65,1.78-.85,3.33-2.21,5.39-2.44l-.06-.08c.46.64.93,1.28,1.39,1.92q-1.62-.14-2.21.73c.72-.24,1.46-.48,2.2-.73.24-.36.43-.79.75-1.07.61-.56,1.3-1.04,1.95-1.56l-.09.04c.4.38.81.75,1.42.41l-.07-.04c-.44.54-.79,1.18-1.33,1.58-1.15.85-2.43,1.52-3.58,2.36-1.04.75-2.2,1.42-2.79,2.68.28.11.51.29.68.25.34-.08.67-.25.97-.44,2.51-1.54,5.01-3.1,7.78-4.82-.45.74-.73,1.21-1.12,1.86.49.43.99.88,1.5,1.33-.69.05-1.38.11-2.06.17-.54.48-1.07.96-2.08,1.87,1.55-.43,2.51-.54,2.08-1.88.73.38,1.4.36,2-.22,1.23-.65,2.46-1.29,4.2-2.21-.55.82-.78,1.18-1.02,1.52-.25.36-.51.71-1.22,1.7,2.12-.92,3.13-2.12,4.38-2.93,1.16-.75,2.21-1.74,4.29-1.94-1.11,1.4-1.88,2.35-2.64,3.31,1.05.93,1.48-.64,2.33-.24,0,.03.08.3-.01.43-.55.7-1.14,1.37-1.77,2.11,1.38.64,1.86-.69,2.77-.8.07.17.26.43.2.51-.83,1.14-1.7,2.25-2.64,3.47.22.81.96.75,1.62.43.63-.31,1.17-.82,1.74-1.26,1.04-.8,2.06-1.62,3.13-2.46.54.93-.31,1.12-.65,1.46-1.1,1.09-2.3,2.1-3.43,3.17-.3.29-.47.71-.97,1.52,2.85-.65,4.54-2.48,6.73-3.37.36,1.02-.54,1.25-.92,1.73-.45.56-1.05.98-1.52,1.52-.47.53-.87,1.12-1.47,1.91,1.92.21,3.31-.6,4.92-1.19-.59.79-1.19,1.59-1.86,2.49,1.06.56,1.64-.16,2.28-.54.71-.42,1.39-.89,2.04-1.32.79.67.16.97-.13,1.17-1.98,1.33-3.86,2.77-5.58,4.76,1.3.65,2.06-.68,3.04-.44.03.2.17.49.08.58-.85.96-1.74,1.89-2.73,2.94,1.98.79,3.35-.64,5.24-.87-1.62,2.18-4.46,2.57-5.27,5.03.4.82,1.01.55,1.51.3,2.26-1.11,4.49-2.27,6.74-3.39.84-.42,1.68-1.02,2.85-.23-.63,1.28-2.1,1.34-3.05,2.07-.95.72-1.96,1.39-2.85,2.17-.97.86-1.85,1.83-2.71,2.7.49,1.02,1.08.61,1.57.42,3.02-1.15,6.03-2.33,9.05-3.48,1.09-.41,2.2-.75,3.91-1.33-1.34,1.98-3.1,2.41-4.17,3.6-1,1.12-1.85,2.37-3.03,3.91,1.62-.18,2.55-.94,3.61-1.36,1.11-.44,2.21-.91,3.32-1.37h-.06c.15.74-.38,1.06-.9,1.34-1.05.57-2.13,1.07-3.18,1.63-1.89,1.01-3.64,2.21-4.96,3.84.26.93.92.93,1.47.84,1.1-.18,1.39.65,1.86,1.28-1.59-.71-2.5.26-3.32,1.39-.02.02.56.48.86.73-.03.44-.06.88-.1,1.63,1.21-.38,2.18-.69,3.29-1.04-1.28,2.6-4.45,3.05-6.05,5.73.79-.1,1.32-.05,1.76-.24,2.09-.89,4.13-1.87,6.21-2.77,1.19-.51,2.43-.93,3.71-1.42.45,1.14-.43,1.38-.92,1.67-2.36,1.4-4.42,3.18-6.78,5.01,2.23.14,2.27.22,4.44-.96,1.61-.88,3.21-1.12,5.42-.79-3.32,2.5-7.6,2.52-10.09,5.87,1.5,0,2.78.13,4.01-.05.62-.09,1.22-.68,1.71-1.15,1.99-1.93,2.76-2.34,6.59-3.22-2.94,2.78-6.42,4.24-8.83,7.33.55,0,.97.1,1.32-.02,2.59-.89,5.16-1.83,7.74-2.76l-.08-.07c-1.38,1.55-3.35,2.15-5.09,3.08-2.84,1.51-5.69,2.94-8.06,5.2-1.01.96-2.43,1.48-3.64,2.24-.67.42-1.27.94-2.38,1.78,2.46.06,3.99-.6,5.33-1.81-.78.44-.99,1.16-.96,1.99-.96.05-1.86.26-2.63,1.29,1.15.12,2.18.31,3.2.29.28,0,.55-.62.83-.96.92-.49,1.87-.92,2.72-1.5.28-.19.48-.83.38-1.17-.18-.64-.74-.78-1.4-.56-.76.26-1.54.49-2.3.72,3.77-3.31,8.08-5.74,12.56-7.93.42.8-.2.88-.54,1.1-1.59,1.05-3.21,2.06-4.77,3.15-.56.39-.99.98-1.76,1.76,2.12.12,3.49-.91,5.01-1.44l-.07-.09ZM645.55,93.22c-.18.1-.37.19-.54.31-.08.06-.12.17-.17.25.19.02.47.11.55.03.11-.12.08-.38.12-.58.01,0,.03,0,.04-.01ZM636.65,27.33c.87-.65-.04-.53-.3-.69.03-.32.06-.63.1-.95.86.14,1.74.66,2.98-.2-1.29-.44-2.11-.42-2.87.31-.24.22-1.02.37-.09.75.09.29.18.58.27.86-.12,0-.24-.01-.35.02-.09.02-.16.11-.23.16.17-.08.34-.17.51-.25ZM580.12,37.34l.05-.04c1.15-1.23,2.5-2.19,3.99-3,2.32-1.25,4.19-3.06,6.14-5.36-.95-.1-1.51-.16-2.07-.21,2.54-1.34,5.08-2.68,7.61-4.03,1.44-.77,2.97-1.43,4.23-2.9-1.43-.64-2.54-.46-3.66,0-2.22.91-4.42,1.84-6.65,2.71-2.4.94-4.38,2.44-6.09,4.33-.26.29-.34.73-.57,1.27h3.11c-.9,1.05-2.15,1.85-3.39,1.47-1.31-.41-2.02.02-2.8.8-1.59,1.59-3.2,3.17-4.75,4.81-1.1,1.16-1.06,1.2-1.48,4.03,1.79-.93,3.79-.58,5.44-2.01-.42-.49-.71-.84-1-1.18.63-.24,1.26-.47,1.9-.71ZM593.07,32.84c.52-.38,1.05-.73,1.54-1.13.31-.25.58-.58.86-.87.44-.11.88-.2,1.31-.33.07-.02.1-.2.15-.31-.18-.07-.45-.26-.52-.2-.32.27-.58.61-.87.92-2.01.14-2.34.4-2.47,1.93-.17-.14-.32-.33-.51-.4-.1-.03-.28.15-.42.24.1.01.21.03.31.04.21.03.41.07.62.1ZM659.55,46.72c-1.05-.29-1.74.17-2.37,1.26,1.27.17,2.13.06,2.3-1.34.26-.06.52-.12.77-.18-.06-.09-.11-.18-.17-.26-.18.18-.36.35-.54.53ZM632.68,38.53c.97-.51,1.94-1.03,3.08-1.63-1.22-.53-2.13-.39-2.82.38-.24.27-.16.82-.25,1.24-.25-.1-.5-.21-.76-.31l-.04.09c.26.08.52.15.79.23ZM596.13,71.85q-1.83,1.02-2.08,2.6c1.88.02,1.82-1.42,2.01-2.67.71-.05,1.41-.11,2.12-.16.41-.56.71-1.28,1.24-1.67,2.67-1.95,5.58-3.66,6.67-7.11.09-.28.52-.48.82-.66.72-.43,1.51-.75,2.18-1.24,1.1-.81,2.3-1.58,2.94-3.38-2.01.66-3.68,1.21-5.34,1.76-.34.11-.68.23-1,.38-.21.1-.43.23-.59.4-1.4,1.57-3.36,2.74-3.73,5.07-1.75,1.4-3.78,2.54-4.57,5.01.46.47.94.98,1.39,1.45-.74-.44-1.44-.53-2.06.21ZM578.94,82.63c.36-.21.86-.33,1.05-.64.5-.82-.03-.88-.68-.73.22-.68.5-1.35.62-2.04.06-.38-.15-.8-.33-1.57-2.02,1.91-3.37,3.86-4.85,5.7-.7.87-.75,1.77-.23,1.78.51,0,1.05-.33,1.54-.58.18-.09.26-.38.39-.57-.16.63-.64,1.33.5,1.76.86-.88,1.91-1.66,1.98-3.11ZM644.95,39.35q-3.54-.15-4.98,1.65c1.91-.28,3.65-.22,4.91-1.7.67.08,1.4.44,2.14-.66-.89.3-1.49.51-2.08.71ZM616.78,63c-1.47.4-2.95.76-4.39,1.24-.35.12-1.16.16-.85,1.14,1.46-.46,2.91-.87,4.32-1.39.36-.13.57-.65.87-.98.2,0,.4.02.3.01.12,0-.07,0-.25-.02ZM642.12,32.78c.55-.15,1.09-.32,1.64-.45,1.32-.31,2.17-1.07,2.73-2.78-1.45.55-2.52.93-3.56,1.37-.41.18-.76.51-1.14.78.13.42.24.75.33,1.08-.86,0-1.72-.01-2.59-.02-.09-.33-.18-.67-.27-.99-4.64.38-6.62,1.24-8.32,3.61.85.52,1.62-.06,2.36-.26,1.25-.34,2.44-.91,3.66-1.38.86-.33,1.72-.65,2.6-.98l2.55.02ZM538,43.13c-1.81.64-2.67,2.16-4.02,4.16,1.64-.49,2.52-1.04,3.32-1.65.83-.64,1.05-1.57.63-2.58,1.44-.11,2.05-1.1,3-2.88-1.88.84-2.91,1.4-2.92,2.95ZM558.8,52.41c2.36-1.09,3.47-3.42,5.13-5.2.17-.18.11-.57.24-1.4-2.28,2.28-4.33,4.03-5.3,6.66-1.27.29-1.69,1.27-1.97,2.37.94-.57,1.88-1.15,1.9-2.44ZM545.01,46.79c-1.02.15-2.04.16-2.76,1.17-.75,1.05-1.68,1.96-2.49,2.97-.25.31-.34.75-.58,1.33,1.6-.59,1.59-.59,1.93-.98,1.3-1.5,2.6-3,3.91-4.5.1.47.25,1.07.84.83,1.52-.62,2.99-1.37,4.18-2.99-1.39-.43-2.35-.18-3.21.49-.65.51-1.21,1.12-1.81,1.69ZM535.6,88.5q2.1-1.84,2.38-3.53c-2.15.18-3.02.98-3.05,2.92,0,.18.5.37.76.56-.33.66-.78,1.12-1.6,1.13-1.35.02-1.75.88-1.79,2.07,2.82-.13,3.59-.35,4.46-1.44.35-.43.72-1.06.14-1.52-.3-.24-.87-.13-1.3-.18ZM532.33,84.05c.38.22.81.69,1.12.62,1.61-.35,2.38-2.01,1.99-4-.15-.84-.71-.8-1.29-.55-1.89.83-2.53,2.55-3.29,4.38.49-.03.72.01.91-.06.21-.08.38-.26.57-.39ZM616.58,75.69c1.88-1.6,3.76-3.2,5.62-4.82.07-.06-.08-.39-.17-.77-2.45.85-4.08,2.61-5.45,4.65-.15.23.04.69.06,1.02q-1.13-.16-1.55,1.07c.65-.5,1.07-.82,1.49-1.14ZM535.04,56.15c.16.29.31.58.54,1.01.9-.64,1.74-1.15,2.1-2.35-1.39-.18-1.77,1.21-2.74,1.45-.24-.61-.65-1.09-1.31-.72-1.61.92-3.07,2.04-4.04,3.79,1.98.02,2.31-.05,3.25-.94.76-.72,1.46-1.49,2.2-2.25ZM605.82,22.59c-1.25.67-2.49,1.35-3.75,2.01-1.27.66-2.56,1.27-3.81,1.96-.33.18-.53.59-.78.9,2.87-.72,5.38-1.97,7.87-3.28.58-.31.75-.88.44-1.52.1.05.2.09.3.14-.09-.07-.18-.14-.28-.21ZM632.2,48.2c-.12-.43-.23-.85-.36-1.31q-2.65,1.32-4.28,3.53c.95-.33,1.82-.63,2.69-.93,0,.59.35.88.86.76,1.47-.34,2.95-.68,4.36-1.17.58-.2,1.03-.81,1.73-1.4-1.99-.64-3.49.05-5.01.52ZM527.69,97.31c.52-.83,1.03-1.65,1.76-2.83-1.83.05-2.46.89-2.95,2.06.48.26.87.47,1.26.68-1.03,1.42-2.09,2.82-3.07,4.28-.18.26-.03.75-.03,1.68,2.19-1.89,3.61-3.65,5-5.86-.88,0-1.44,0-1.98-.01ZM555.86,71.07c1.33-1.31,3.3-2.14,3.58-4.47-2.69-.2-4.02,1.13-4.84,3.29.52.49.93.88,1.35,1.28-.7.02-1.44-.1-2.08.09-.48.15-1.06.63-1.2,1.08-.13.42.27,1,.47,1.61,1.63-.52,2.76-1.15,2.72-2.88ZM551.21,41.49c-.14.18-.31.35-.4.56-.11.26-.16.56-.23.84.32.02.75.17.92.02.28-.24.38-.68.55-1.03-.32-.1-.63-.2-.95-.29.71-.59,1.39-1.21,2.14-1.75.96-.68,2-1.25,2.95-1.94.29-.21.4-.67.69-1.19-3.54-.39-5.21,1.5-6.55,4.04.36.3.62.52.87.75ZM544.38,87.05c.16.66.09,1.58,1.14,1.39.66-.12,1.49-.36,1.84-.84.81-1.13,1.4-2.43,1.29-4.34-.95.88-1.61,1.51-2.29,2.11-.69.61-1.41,1.2-2.11,1.8.77-1.37,1.55-2.74,2.47-4.37-.68,0-1.03-.08-1.33.01-1.48.5-2.07,1.89-2.84,3.04-.67,1-1.74,1.86-1.72,3.57.68-.24,1.14-.31,1.47-.55.73-.56,1.39-1.21,2.09-1.83ZM539.44,74.28c-.9.51-1.81,1.02-2.71,1.53-1.37.78-1.64,1.27-1.63,3.05,2.65-.42,4.19-1.83,4.33-4.58,2.07-.6,2.83-2.27,3.68-4.36-1.06,0-1.92-.22-2.57.05-1.14.48-2.33,2.79-2.49,4.31.47,0,.94,0,1.4,0ZM510.6,59.6c.46-.07,1.05.02,1.34-.23,1.27-1.07,2.51-2.19,3.64-3.41.8-.86,1.07-2,1.34-3.4-2.94,1.33-4.58,3.52-6.16,5.74-.22.32-.07.9-.08,1.37-2.16.44-3.04,2.84-5.15,3.37-.11.03-.24.52-.17.59.21.2.57.46.78.4.41-.11.77-.43,1.15-.66-.35.61-.61,1.3-1.06,1.81-1.82,2.05-3.71,4.03-5.55,6.06-.19.21-.21.58-.4,1.18,1.02-.28,1.98-.29,2.52-.76.87-.76,1.77-1.75,2.08-2.81.31-1.05.8-1.55,1.65-2.09,1.07-.69,2.04-1.61,2.13-3.29h-1.49c.96-.79,1.96-1.53,2.84-2.4.34-.34.4-.97.58-1.47ZM650.38,79.38c.1-.04.2-.12.31-.12.1,0,.21.05.31.09-.21,0-.43,0-.64,0,.36-.49.71-.97,1.14-1.55-.51-.07-.76-.17-.96-.11-2.38.7-4.58,1.93-7.1,2.28-.79.11-1.62.7-2.04,2.02,3.19-.78,6.2-.75,8.65-2.7.05-.04.22.07.33.11ZM590.57,89.14c-.28.22-.64.38-.83.66-.54.79-.21,1.83.64,1.92.54.06,1.31.02,1.64-.31,1.4-1.38,2.78-2.81,3.84-4.91-.67.1-.97.14-1.26.19.77-.73,1.61-1.4,2.28-2.22.61-.75.03-.99-.67-1.03.95-.44,1.85-1.02,2.85-1.31,1.69-.49,2.18-1.89,2.96-3.21.72-1.22,1-2.27.31-3.51,2.86-.57,5.33-1.79,7.21-4.1.45-.55,1.02-.99,1.49-1.52.3-.33.69-.7.13-1.22-2,.16-3.89.88-5.62,1.84-2.28,1.27-4.29,2.92-5.19,5.54v-.09c-.17,1.07-1.18,1.33-1.85,1.92-1.21,1.05-2.4,2.15-3.57,3.25-.12.11-.06.4-.08.61l.24-.14-.05.1c-.55.86-1.09,1.72-1.64,2.57-2.53.59-3.44,2.69-4.85,4.98.96,0,1.49,0,2.03,0ZM522.09,55.5c-.17.54-.34,1.08-.54,1.7,1.72.37,2.94-.22,3.9-1.4.83-1.01,1.61-2.06,2.36-3.14.29-.42.85-.87.3-1.59-1.14-.2-2.04.39-2.82,1.12-1.12,1.05-2.15,2.19-3.22,3.29.63-.7,1.17-1.43.84-2.66-.47.17-.97.22-1.28.49-1.07.93-2.1,1.9-3.08,2.92-.54.56-.94,1.26-1.4,1.9,1.05.81,1.81.29,2.41-.19.91-.73,1.7-1.62,2.53-2.44ZM514.7,60.89c-1.24.45-2.37,1.1-2.89,2.36-.2.48-.19,1.19.03,1.65.3.64.96.43,1.54.23,1.93-.66,2.84-2.35,3.97-3.83-.08.56-.16,1.12-.25,1.72,2.78-.24,2.77.25,4.71-4.21-.82.21-1.56.24-2.1.58-.89.56-1.65,1.34-2.46,2.02.24-.51.56-1.08-.06-1.49-.63-.42-1.27-.3-1.79.3v-1.22c-1.02.02-1.19.73-1.34,1.37-.03.11.42.34.65.52ZM512.93,84.64c-.2-.54-.41-1.33-1.11-.93-.67.38-1.19,1.09-1.66,1.75-1.12,1.57-1.22,1.9-1.54,3.68,1.52-1.59,2.97-3.11,4.41-4.62-.1.65-.21,1.3-.34,2.11,3.12-.85,6.16-1.25,7.28-4.68-.39-.37-.72-.67-1.05-.97,1.55-.55,2.71-1.74,4.22-2.41,1.32-.58,2.26-1.93,2.49-3.5-2.61-.58-4.62.12-6.32,1.86-.4.41-.95.69-1.43,1.03.12-.59-.19-1.01-.71-.85-1.12.33-2.2.82-3.46,1.32.32,1.46-1.05,2.54-.7,3.99,1.68.08,2.25-1.45,3.43-1.93.67,1.2,1.68.44,2.54.47-.25.24-.45.61-.74.69-2.03.55-3.65,1.8-5.32,3.02ZM527.95,77.86c-.73,1.09-1.99,1.24-3.06,1.69-1.64.69-2.49,1.94-3.19,3.71,2.8.15,4.26-1.72,6.03-2.83.08-.96.15-1.77.21-2.57,2.71-1.07,4.08-3.41,5.7-5.75-1.14-.7-2.07-.35-2.87.02-.94.44-1.96.98-2.58,1.77-.97,1.23-2.33,2.32-2.53,4.29.94-.13,1.62-.23,2.29-.33ZM531.47,44.26c-.66.6-.76,1.16.11,1.65,2.84-1.43,3.09-1.69,3.51-4.08-1.33.9-2.46,1.66-3.59,2.42.09-.28.18-.56.27-.84-.31-.09-.73-.35-.92-.23-2.01,1.25-4.03,2.5-5.95,3.87-1.23.88-2.74,3.11-3.23,4.44.48-.34.83-.69,1.25-.86.52-.21,1.15-.18,1.66-.41.85-.38,1.78-.75,2.45-1.38,1.55-1.45,2.97-3.04,4.44-4.58ZM658.24,74.61c-.35.44-.63,1-1.08,1.3-.68.44-1.51.65-2.22,1.05-.46.26-1.07.57-.66,1.32q3.1.24,5.71-1.75c-.03-1.19-.96-1.49-1.84-1.83.88-.99,2.42-1.25,3.42-3.13-1.29.56-2.02.85-2.72,1.19-1.57.75-1.56.75-3.61-.46-1.82,1.11-3.75,2.27-5.64,3.47-.3.19-.47.6-.94,1.22,3.69-.08,6.71-.92,9.58-2.36ZM570.66,34.65c1.12-.9,2.87-.84,3.83-2.43-1.56-.32-2.75-.14-3.75.85-.53.52-.4,1.03,0,1.54-2.86,1.54-5.19,3.68-7.16,6.24-.43.56-.97,1.04-1.4,1.61-.24.32-.34.73-.59,1.29,1.72.23,2.85-.35,3.77-1.3,2.16-2.2,4.27-4.45,6.37-6.71.21-.23.23-.64.38-1.09-.56,0-1.02,0-1.45,0ZM655.25,64.44c-1.04-.41-2.02-.35-3.09.05-3.49,1.3-6.68,3.13-9.64,5.37-.33.25-.52.68-.86,1.14,2.78.22,4.9-.15,6.72-1.21,1.54-.9,2.99-1.96,4.57-2.8,1.12-.59,1.63-1.61,2.27-2.55-.55-.9.59-1.05.72-1.65.04-.19-.04-.4-.1-.81-.6.31-1.12.59-1.84.97.55.65.9,1.07,1.25,1.49ZM570.87,94.43l-.06.03q.66-1.74-1.52-3.67c-1.22,1.62-2.47,3.21-3.63,4.85-.3.42-.33,1.04-.5,1.61,2.77,1,5.33,1.93,7.91,2.87.71-.75,1.28-1.34,1.83-1.92-.08.34-.16.69-.25,1.03-.2.74-.17,1.44.56,1.86.64.37,1.26,1.17,2.17.27-.4-1.4-1.07-2.56-2.55-3.07-.08-1.24-.7-2.19-1.43-3.16-.72-.95-1.6-.79-2.53-.7ZM568.75,82.11c.24.33.48.66.86,1.18,1.8-2.29,3.49-4.43,5.15-6.58.09-.11-.07-.41-.14-.72-.97.06-1.28.9-1.81,1.47-1.45,1.54-2.23,3.66-4.18,4.77,1.11-1.9,2.23-3.79,3.54-6.04-.79.07-1.32-.04-1.63.17-.68.47-1.32,1.03-1.84,1.66-3.96,4.89-7.9,9.8-11.83,14.72-.43.53-.71,1.18-1.09,1.82,1.22,1.18,2.53,1.43,3.9,1.27,2.22-3.72,4.4-7.25,6.46-10.86.67-1.17,1.4-2.17,2.59-2.85ZM601.78,93.21c-3.16,2.4-4.9,5.74-6.12,9.41-.22.66-.48,1.51.28,1.93.43.24,1.22.23,1.66,0,2.08-1.14,4.15-2.33,6.12-3.65.92-.62,1.66-1.55,1.76-2.84h-1.45c3.03-3.26,5.91-6.36,8.78-9.48.1-.11.01-.41.01-.61-.64-.47-1.14-.12-1.59.26-1.18,1-2.33,2.03-3.51,3.03-.13.11-.39.05-.71.08.44-.98.84-1.88,1.53-3.42-.98.46-1.34.63-1.69.78,1.89-2.38,4.76-3.54,7.3-5.63-.99-.67-1.8-1.22-2.75-1.87.43-.75.86-1.53,1.43-2.53-3.66.44-5.61,2.66-6.54,5.57-.47,1.48-1.11,2.51-2.2,3.47-1.37,1.2-2.43,2.64-3.12,4.33-.3.74.09,1.1.81,1.18ZM585.25,73.04c1.75-1.05,2.64-2.5,3.81-3.63,1.2-1.16,2.33-2.4,3.49-3.61,1.08-1.12,2.15-2.25,3.23-3.36,1.17-1.2,2.35-2.39,3.53-3.57,1.18-1.18,2.38-2.35,3.58-3.52q2.49-2.44,2.79-3.77c-2.47.4-4.65,1.16-6.09,3.34-.19.3-.39.6-.63.86-4.2,4.57-8.41,9.13-12.59,13.72-.55.61-1.01,1.33-1.36,2.07-.14.3.11.79.24,1.47ZM576.55,41.64c-2.46.02-4.38.6-6.26,1.31-.63.24-1.23.76-1.68,1.29-2.49,2.9-4.94,5.83-7.38,8.78-.26.31-.33.77-.62,1.49,2.06-.3,3.39-1.34,4.83-2.07,4.17-2.13,6.8-5.95,10.03-9.11.38-.37.59-.91,1.08-1.69ZM644.13,49.35c-4.42-.26-8.24,1-11.62,3.69-3.89,3.1-4.4,3.49-4.96,5.24,2.31-.33,4.45-1,6.61-1.57.45-.12.89-.36,1.26-.64,2.91-2.23,5.8-4.48,8.69-6.72ZM613.9,62.24c2.94-.42,5.02-1.27,7.13-1.94.77-.24,1.47-.76,2.13-1.26,2.36-1.8,4.7-3.63,7.02-5.48.49-.39.86-.94,1.46-1.62-5.37.6-12.53,4.72-17.75,10.3ZM564.09,55.01c-.87.08-1.36,0-1.74.18-1.19.54-2.39,1.1-3.5,1.79-2.04,1.28-6.14,6.85-7.22,9.73,1.93.04,3.5-.44,4.75-1.96,2.21-2.68,4.49-5.29,6.72-7.96.34-.41.53-.95,1-1.79ZM609.42,33.61c-.16-.17-.32-.35-.48-.52-1.56.85-3.33,1.46-4.64,2.59-3.25,2.82-6.31,5.87-9.41,8.86-.49.47-.82,1.11-1.45,1.97.82,0,1.29.07,1.72-.01,1.22-.24,2.13-1.01,3.01-1.86,3.44-3.33,6.92-6.63,10.38-9.95.33-.32.58-.72.87-1.08ZM632.98,72.12c.92.74,1.52.17,2.11-.15,3.37-1.8,6.74-3.62,10.1-5.44,1.05-.57,2.09-1.16,3.09-1.81.29-.19.42-.65.8-1.28-3.81.06-7.03.49-9.64,3.03-1.28,1.25-2.73,2.32-4.09,3.49-.8.69-1.56,1.42-2.37,2.16ZM634.1,67.04c-5.33-.1-10.6,2.93-14.62,8.34,2.29-.08,4.28-.42,6.06-1.76,2.37-1.8,4.81-3.5,7.21-5.26.45-.33.81-.77,1.36-1.31ZM627.69,81.52c2.14,0,4.08-.38,5.78-1.61,2.51-1.81,5.07-3.54,7.59-5.34.32-.23.51-.65.92-1.19-2.3-.35-4.16.25-5.75,1.19-3.16,1.86-5.95,4.26-8.53,6.94ZM530.27,41.47c3.86-.36,4.12-.4,6.03-2.25,2.57-2.49,5.06-5.06,7.56-7.62.3-.3.73-.69.13-1.28-2.65,1.31-5.16,2.8-7.28,5-1.8,1.88-3.89,3.49-5.84,5.24-.24.22-.38.56-.6.9ZM541.85,68.01c1.37.83,2.42.71,3.26-.39,2.16-2.84,4.29-5.71,6.41-8.59.46-.63.49-1.31-.1-1.75-2.38.68-3.65,2.53-4.99,4.29-1.15,1.52-2.32,3.02-3.44,4.56-.41.55-.72,1.18-1.13,1.88ZM564.43,77.8c-.92-.59-1.59-.04-2.12.6-2.41,2.98-4.77,5.99-7.14,9.01-.13.16-.09.45-.13.68,1.99.13,2.61.08,3.44-1.07,2.09-2.91,4.04-5.91,6.03-8.88.04-.06-.05-.2-.08-.34ZM619.77,31.51c-.12-.17-.24-.35-.35-.52-.44.09-.98.05-1.32.28-4.75,3.27-8.88,7.27-13.08,11.18-.2.18-.21.57-.42,1.16.71-.25,1.2-.31,1.53-.57,4.17-3.41,8.32-6.84,12.46-10.28.44-.37.79-.84,1.19-1.26ZM562.65,45.53c-1.62-.53-2.52-.22-3.26.39-.73.6-1.5,1.26-1.95,2.06-1.4,2.49-3.22,4.6-5.33,6.49-.36.32-.45.96-.69,1.51,1.05.47,1.82.63,2.53-.1.25-.26.47-.53.72-.79,2.75-2.91,4.49-6.62,7.98-9.55ZM541.74,38.25c.15.18.31.37.46.55.97-.35,2.16-.45,2.88-1.09,2.47-2.18,4.85-4.47,7.04-7.23-1.5-.46-2.53.16-3.49.77-2.84,1.8-4.99,4.28-6.89,6.99ZM609.36,56.55c4.68-.83,8.33-2.41,10.88-6.1-1.79-.16-3.27.06-4.81.69-1.67.69-3.95,2.67-6.07,5.41ZM558.58,65.18c2.1-.32,3.35-1.35,4.39-2.72,1.8-2.39,3.64-4.75,5.43-7.14.25-.33.34-.77.5-1.15-1.17-.63-1.81.03-2.32.63-2.63,3.1-5.2,6.24-7.78,9.38-.13.16-.1.45-.21,1ZM650.4,72.56c-2.02-.44-3.83-.15-5.46,1.03-1.84,1.33-3.72,2.6-5.55,3.93-.44.32-.77.78-1.58,1.62,1.15-.16,1.79-.09,2.25-.34,3.5-1.95,7.26-3.44,10.34-6.24ZM588.65,86.42c3.14-2.64,5.05-6.29,7.95-9.04.89-.84,1.78-1.77,2.3-3.03-.42-.06-.75-.21-.84-.11-3.11,3.09-6.22,6.19-9.27,9.34-.69.72-.8,1.69-.14,2.84ZM612.47,71.42c.1.06.23.19.31.17,1.7-.54,3.43-.99,5.07-1.68,1.41-.6,2.73-1.43,4.02-2.26.4-.25.57-.85.92-1.42-6.08-.08-8.27,1.86-10.32,5.2ZM644.53,55.99c2.96-.06,5.48-.69,7.93-1.41,1.61-.48,2.24-2.36,1.82-4.85-1.6,1.19-3.13,2.27-4.61,3.42-1.46,1.14-3.67.93-5.15,2.83ZM533.36,86.34c-1.58-.56-2.72.03-3.69.96-1.65,1.58-3.14,3.27-2.86,6.34,2.71-2.28,5.47-3.89,6.55-7.3ZM523.77,94.75c1.12-2.25,2.14-4.31,3.33-6.7-1.33.17-2.32.14-3.03,1.16-1.35,1.94-2.74,3.84-4.1,5.77-.1.15-.01.43-.01.65.85.49,1.26-.41,1.89-.56.67-.16,1.36-.23,1.92-.33ZM558.7,78.87c-1.03-.74-1.82-.14-2.39.62-1.56,2.1-3.03,4.25-4.5,6.41-.25.37-.33.86-.58,1.54.62.04,1.15.25,1.44.06.58-.37,1.09-.9,1.5-1.47,1.52-2.12,2.99-4.28,4.46-6.44.11-.17.05-.45.08-.72ZM575.74,74.36c.88-.29,1.29-.29,1.47-.5,3.16-3.54,6.3-7.11,9.41-10.69.13-.15-.05-.58-.1-.94-2.4,1.44-7.91,7.58-10.78,12.13ZM540.58,45.23c1.57-.01,2.87-.46,3.93-1.46,1.46-1.38,2.86-2.83,4.24-4.29.31-.33.47-.82-.08-1.18-3.91,1.35-6.54,3.57-8.08,6.93ZM604.48,79.08c1.84.17,2.02.16,2.47-.07,1.92-.98,5.67-4.22,6.65-5.82-3.96.7-6.93,2.56-9.12,5.9ZM562.17,72.46c1.68-.27,2.78-.92,3.55-1.94,1.51-1.99,3.65-3.54,4.62-6.14-1.31-.28-2.16.14-2.76.87-1.81,2.23-4.29,3.98-5.41,7.2ZM636.12,90.32c.34.07.67.23.97.19,3.35-.45,5.86-2.56,8.51-4.38.24-.17.33-.61.4-.95.04-.21-.01-.52-.15-.66-.14-.14-.51-.25-.65-.17-2.93,1.73-5.84,3.49-8.74,5.27-.17.1-.21.41-.34.7ZM558,29.05c-2.16-.35-2.47-.32-3.88,1-1.55,1.45-3.02,2.99-4.5,4.52-.26.27-.39.68-.86,1.52,4.37-1.29,6.85-4,9.24-7.03ZM556.73,74.61c3.17-2.05,5.23-5.12,7.69-7.79.27-.29.36-.75.69-1.49-.82.15-1.37.08-1.65.32-2.88,2.48-5.23,5.39-6.73,8.96ZM648.84,94.91c-1.15.09-1.85.08-2.5.23-.81.18-1.64.83-2.36.72-2.6-.42-3.55,1.82-5.23,2.92,1.18-.03,2.29-.47,3.38-.43,2.05.07,3.71-.79,5.33-1.8.45-.28.73-.84,1.39-1.64ZM581.97,63.98c-2.2,1.29-8.28,7.97-9.58,10.58.83.31,1.42-.09,1.87-.63,2.6-3.1,5.17-6.22,7.73-9.35.1-.12,0-.4-.02-.6ZM582.37,22.81c1.04-.17,1.81-.32,2.59-.41,2.17-.24,3.67-1.59,5.08-3.07.2-.21.29-.88.18-.95-.34-.23-.93-.5-1.2-.35-2.09,1.12-4.14,2.33-6.18,3.56-.21.13-.23.58-.47,1.22ZM561.15,95.96c1.06.85,1.72.44,2.25-.33,1.55-2.26,3.09-4.52,4.59-6.82.19-.3.09-.79.14-1.43-2.42,1.84-5.45,5.59-6.97,8.58ZM620.99,76.37c-3.33.33-6.02,1.32-7.74,4.44,3.73-.06,6.2-1.46,7.74-4.44ZM637.22,40.53c-1.52-.62-2.57-.34-3.57.37-2.02,1.43-3.68,3.22-5.99,5.34,1.22-.13,1.86-.03,2.3-.28,2.57-1.44,4.88-3.26,7.26-5.43ZM595.16,69.13c-1.39.14-2.14,1.13-2.6,2.1-.59,1.22-1.47,2.07-2.4,2.98-1.06,1.02-2.11,2.14-2.66,4.03,1.86-.61,3.16-1.39,3.89-2.77,1.05-1.98,2.33-3.79,3.76-5.5.1-.12.01-.41.01-.84ZM628.22,32.78c-1.49,0-2.63.43-3.68,1.33-.98.84-2.24,1.36-3.34,2.07-1.02.65-2.33,1.01-2.96,2.61,4.66-.24,7.07-3.6,9.99-6.01ZM614.98,43.73c-2.06-.21-3.39.02-4.62.85-1.42.97-2.7,2.44-3.32,3.96,2.9-.98,5.62-1.89,7.93-4.81ZM527.74,55.82c.66-.17,1.53-.14,1.95-.56,1.61-1.58,3.08-3.3,4.57-5,.25-.29.75-.7.04-1.33-2.94,1.37-4.76,4-6.56,6.89ZM659.11,64.99c-1.84,1.03-3.69,2.04-5.52,3.1-.71.41-1.01,1.28-.69,1.79.45.7,1.18.85,1.87.62.65-.22,1.64-.59,1.75-1.06.39-1.79,1.85-2.69,2.59-4.44ZM617.62,89.86c-3.91,3.23-4.85,4.26-5.59,6.14,3.18-.85,5.5-2.64,7.54-5.26-.72-.33-1.25-.56-1.96-.88ZM603.8,41.32c1.56-.78,7.54-5.73,10.49-8.72.09-.09-.04-.4-.1-.89-.77.4-1.52.67-2.12,1.13-3.08,2.37-7.19,6.64-8.27,8.48ZM575.9,18.54c-3.31.14-6.08.96-8.39,3.55,4.02.21,5.83-.56,8.39-3.55ZM648.63,57.06c-2.76.24-4.96.35-7.14.67-.84.12-1.7.65-1.74,1.98,2.7-.04,5.24-.31,7.67-1.27.35-.14.55-.62,1.2-1.39ZM591.64,41.72c.69-.37,1.47-.64,2.06-1.13,2-1.67,3.93-3.41,5.87-5.15.1-.09.01-.41.01-.86-.67.2-1.44.23-1.94.61-2.35,1.79-4.59,3.7-6.01,6.53ZM532.31,69.55c.75.05,1.23.17,1.67.09.46-.08,1-.23,1.3-.54.65-.68,1.25-1.45,1.74-2.26.46-.76,1.34-1.41.9-2.75-2.66.99-4.02,3.13-5.61,5.45ZM533.42,53.91c.38-.2.83-.33,1.14-.62,2-1.85,3.98-3.73,5.94-5.62.09-.08-.05-.39-.1-.75-1.18.16-2.32.38-3.15,1.32-1.47,1.69-3.13,3.23-3.83,5.67ZM516.12,97.4c2.6-1.61,3.36-3.95,4.73-5.78.42-.56.66-1.25.96-1.88.03-.06-.07-.19-.14-.36-1.13-.38-1.95.21-2.7.87.35,2.74-2.41,4.05-2.84,7.16ZM569.09,74.43c.2.13.39.27.59.4.81-.85,1.63-1.69,2.42-2.55.88-.97,1.73-1.96,2.6-2.94q1.3-1.48,1.64-2.99c-.61.36-1.22.55-1.57.95-2,2.29-4.06,4.55-5.68,7.13ZM638.95,55.37c3.3-.37,5.81-.96,7.93-3.66-3.21.28-5.86.52-7.93,3.66ZM551.74,92.23c1.74,1.79,2.15,1.83,3.2.2.6-.94,1.43-1.8,1.54-3.22-2.48-.09-3.86,1.05-4.74,3.01ZM522.45,61.54c2.95.1,4.38-1.05,5.22-4.2-2.97-.05-4.05,2.03-5.22,4.2ZM552.65,74.67c-.54.13-1.19.11-1.61.42-.85.62-1.66,1.35-2.34,2.16-.56.66-1.3,1.34-1.16,2.62,3.11-.28,3.98-2.78,5.1-5.2ZM650.73,46.66c-3.35,1.5-3.86,1.87-5.93,4.42,2.64-.92,4.87-.92,6.67-2.4-.26-.7-.46-1.25-.74-2.02ZM576.56,55.97c1.75.04,2.59-.75,3.45-1.51,1.73-1.55,2.29-2.33,2.74-3.99-2.86.91-4.24,3.16-6.18,5.5ZM639.11,37.28c3.24-.37,5.87-.95,8.41-3.76-3.35.91-6.21.93-8.41,3.76ZM620.63,80.77c-3.94.97-5.6,2.16-6.3,4.42,2.94-.21,4.56-2.14,6.3-4.42ZM631.83,65.16c.83,0,1.17.07,1.49-.01,1.96-.48,3.92-.97,5.86-1.52.28-.08.48-.46.71-.7-.39-.18-.81-.56-1.15-.49-1.75.33-3.49.7-5.19,1.22-.54.16-.93.8-1.72,1.51ZM623.47,61.91c1.34-.17,2.6-.61,3.77-.43,2.03.31,2.86-.8,3.87-2.33-4.16.43-6.02,1.1-7.64,2.76ZM622.63,82.76c1.36.05,2.14-.89,3.04-1.58.86-.65,1.69-1.34,2.49-2.06.82-.74,1.94-1.23,2.66-2.89-3.45,1.9-5.95,4.01-8.19,6.53ZM548.3,71.83c3.51-.98,3.8-1.24,4.67-3.89-3.24.15-3.58.41-4.67,3.89ZM628.35,83.46c-4.12.28-4.86.65-6.86,3.33,2.82.17,4.8-1.05,6.86-3.33ZM571.54,69.02c-1.1.47-1.6.53-1.86.82-1.56,1.76-3.07,3.55-4.55,5.37-.1.12.17.52.34,1.02,2.64-1.76,4.08-4.2,6.06-7.21ZM587.26,55.37c-.42-.12-.68-.3-.83-.23-1.74.85-3.23,2.03-4.42,3.56-.27.35-.65.74.04,1.2,2.24-.87,3.91-2.4,5.21-4.53ZM518.37,51.41c1.88-2.21,4.21-3.45,5.81-6.08-1.81.24-2.77,1.14-3.71,1.93-.97.82-2.15,1.55-2.44,2.95-.04.2.12.44.34,1.2ZM594.19,54.24c.49-.22,1.1-.32,1.46-.67,2.16-2.09,4.51-4,6.43-6.75-2.65.71-4.33,2.18-7.89,7.41ZM614.15,91.56c-2.77,1.02-4.42,3.19-6.09,5.35-.26.34-.63.73.23,1.21,1.93-2.16,3.9-4.36,5.86-6.55ZM546.27,76.86c-.35-.06-.71-.23-.98-.14-.42.15-.85.41-1.16.73-.97,1.05-1.86,2.91-2.25,4.48,2.15-1.19,2.82-1.96,4.38-5.07ZM556.59,45.26c2.54-.5,3.19-2.18,4.32-3.28.75-.73.7-.78,1.23-2.73-2.43,1.54-3.94,3.37-5.55,6.02ZM577.49,75.93c-2.36,2-4.35,4.3-6.13,6.79-.14.19.01.6.05,1.24,2.43-2.63,4.55-5.09,6.08-8.03ZM620.39,52.77c2.56-.46,3.62-1.21,6.54-4.64-3.23.64-4.71,2.57-6.54,4.64ZM541.89,78.11c-2.19,1.18-3.23,2.63-3.77,5.06.22.01.54.12.65.01.51-.48,1.08-.95,1.41-1.55.6-1.08,1.6-2.02,1.71-3.53ZM581.07,83.2c-.53.47-1.1.86-1.51,1.37-.74.92-1.47,1.88-2.03,2.92-.13.24.46.86.83,1.5,1.61-1.57,2.57-3.16,3.16-4.99.04-.14-.2-.37-.46-.79ZM563.09,73.4c-.81-.08-1.44-.34-1.84-.15-1.25.6-2.09,1.99-2.6,3.96,2.59.09,3.29-1.86,4.44-3.82ZM570.73,62.18c.97.75,1.71.4,2.32-.22.99-1.01,1.94-2.06,2.86-3.14.25-.29.78-.66.07-1.32-2.4.79-3.91,2.61-5.25,4.68ZM619.11,24.99c-2.51.36-3.42.9-5.61,3.34,2.1.38,3.4-.39,5.61-3.34ZM574.96,46.43q1.59-.63,2.76-1.85,1.63-1.71,2.16-3.3c-2.6,1.73-3.76,2.94-4.91,5.16ZM530.97,60.25c-2.65.48-4.54,1.01-5.62,3.23,3.41-.31,3.88-.56,5.62-3.23ZM527.36,64.73c-3.26.21-4.08.62-5.11,2.56,3.01-.21,4.13-.77,5.11-2.56ZM535.53,92.58c-1.98.05-3.33.44-4.48,1.26-.36.26-1.15,1.07-.13,1.71q3.56-1.29,4.61-2.97ZM579.47,27.68c-3.3-.5-3.96-.17-4.83,2.46,1.91-.3,3.59-.74,4.83-2.46ZM543.5,28.64c1.28.38,2.49-.12,2.84-.93.44-1.02,1.96-1.6,1.54-3.33-1.68,1.4-3.49,2.25-4.38,4.26ZM588.04,41.43c1.93-.56,4.09-2.43,5.9-5.16-.38-.04-.78-.22-1.01-.09-1.7.97-3.89,3.37-4.89,5.25ZM559.72,29.68c4.48-1.35,4.8-1.52,5.83-3.23-2.33.15-4.26.65-5.83,3.23ZM646.81,83.05c1.89.17,3.78.32,5.23-1.63-2.92-.09-3.62.09-5.23,1.63ZM580.98,43.68c2.17-.46,2.96-1.12,4.16-3.49-2.19.41-2.69.83-4.16,3.49ZM536.24,30.42c2.63-.89,3.03-1.35,4.11-4.71-2.64,1.98-3.19,2.61-4.11,4.71ZM524,62.5c-1.91.1-3.05.63-3.9,1.68-.32.4-.85.9-.16,1.59,1.83-.21,3.13-1.11,4.05-3.27ZM610.44,24.92c2.42.25,2.97,0,4.54-2.1-.18-.12-.38-.37-.55-.35-.57.07-1.21.1-1.68.38-.88.53-1.91.96-2.31,2.07ZM563.92,37.01c3.01-1.29,3.63-1.98,3.72-3.84-1.91.69-2.88,2.21-3.72,3.84ZM618.59,48.67c4.5-.58,4.73-.68,6.3-2.69-2.36.29-4.41.51-6.3,2.69ZM631.21,89.56c2.16-.43,4.02-1.38,5.97-2.91-2.84-.27-4.6.92-5.97,2.91ZM648.51,46.33c-.89-.6-1.27-1.07-1.62-1.05-1.53.08-2.92.55-4.07,2.02,2,.52,3.51-.09,5.69-.97ZM580.85,72.18c2.23-1.54,3.56-3.07,4.87-5.55-2.47,1.89-3.86,3.47-4.87,5.55ZM630.01,41.86c-2.31-.2-3.75,1.03-5.42,2.34,2.56.8,2.95.63,5.42-2.34ZM602.11,17.71c-1.62,1.22-3.25,1.28-4.87,2.74,1.29-.16,1.97-.34,2.64-.31.8.04,1.59.26,2.58.43-.11-.86-.19-1.55-.36-2.87ZM556.2,34.02c1.83-.42,3.3-.73,4.74-1.12.44-.12.87-.43.6-1.03-2.01-.15-4.25-.99-5.35,2.15ZM514.73,69.19c-2.26.07-2.36.1-3.54,1.53-.3.37-.45.81.14,1.12q2.81-.85,3.4-2.65ZM537.99,56.97c.92-.13,1.44-.05,1.74-.27,1.09-.8,2.13-1.69,2.46-3.4-2.41.17-3,1.85-4.2,3.67ZM581.46,86.55c-.46.62-.96,1.24-1.4,1.9-.19.29-.38.65-.39.98,0,.31.14.75.38.9.22.15.75.12.95-.05.52-.47,1.08-.99,1.37-1.61.38-.81.26-1.63-.9-2.12ZM586.84,42.94c-2.96,1.76-3.6,2.49-4.35,4.81,1.73-1.62,3.37-2.91,4.35-4.81ZM509.86,51.1c-1.42.64-2.2,1.82-3.05,2.9-.3.37-.44.81.18,1.07q2.8-2,2.87-3.97ZM591.63,50.25c-1.82.49-3.2,1.19-4.26,2.47-.3.36-.5.78.09,1.1q3.04-1.49,4.17-3.57ZM625.28,89.48q-1.9-.08-3.97,2.54,1.72.18,3.97-2.54ZM508.9,68.7c2.39-.02,2.95-.33,4.01-2.25-2.35-.07-2.7.12-4.01,2.25ZM583.72,144.99c-.27,1.83-.79,3.7.74,5.61.7-2.22-.12-3.9-.74-5.61ZM579.41,46.2q-1.86.6-3.26,2.19-.82.93-1.08,2.34c1.59-1.37,3.04-2.64,4.33-4.52ZM629.4,64.61c-2.2.24-3.44,1.08-4.63,2.68q2.53-.41,4.63-2.68ZM514.5,67.51c2.96-.65,3-.69,3.56-3.01-1.68.29-2.85,1.08-3.56,3.01ZM637.86,57.36c-2.9.34-3.11.47-4.43,2.67,2.81-.92,2.98-1.03,4.43-2.67ZM545.71,75.45c2.16-.19,3.19-.97,3.71-2.79-2.13-.32-3.02.69-3.71,2.79ZM586.33,37.69c3.41-1.05,3.58-1.16,4.49-2.84-1.73.16-3.07.88-4.49,2.84ZM639.03,42.92q-2.68-.36-4.01,1.69c1.68.11,2.99-.26,4.01-1.69ZM583.87,23.9q-3.22.33-4.25,1.53c1.65.02,3.02-.11,4.25-1.53ZM640.69,43.52c1.94.43,3.09-.15,4.18-.85.32-.21.51-.6,1.05-1.25-2.19-.05-3.58.57-5.23,2.1ZM626.24,75.75c-2.14-.24-3.19.43-3.78,2.43,1.49-.5,3.01-.81,3.78-2.43ZM563.23,17.66q-2.12.87-3.51,2.83c1.51-.86,2.72-1.54,3.51-2.83ZM613.76,42.25c1.11.41,2.07.24,2.96-.33.14-.09.22-.47.15-.62-.14-.27-.43-.67-.64-.67-1.06.03-2.03.32-2.47,1.62ZM635.02,81.63c-1.62.17-2.85.85-3.94,2.5,2.13-.12,3.16-1.14,3.94-2.5ZM541.7,91.67c1.13.72,2.05.16,2.94-.37.19-.11.23-.58.21-.88-.01-.15-.31-.37-.51-.4-1.37-.25-2.18.38-2.64,1.65ZM545.73,52.73c-1.51.3-2.28,1.31-2.94,2.88,2.14-.08,2.5-1.53,2.94-2.88ZM569.06,59.67q2.42-1.23,3.04-3.5c-1.41.92-2.32,2.12-3.04,3.5ZM537.7,70.86q-2.08,1.51-2.99,4.4c1.66-1.29,2.5-2.69,2.99-4.4ZM624.1,40.4q2.23.17,3.46-1.6c-1.52-.13-2.53.46-3.46,1.6ZM568.02,41.15q1.92-.68,3.35-3.5c-1.32,1.38-2.19,2.3-3.35,3.5ZM600.14,63.79q-2.49,1.37-2.72,3.17c1.06-1.24,1.89-2.21,2.72-3.17ZM519.58,67.43c-1.99.28-2.03.24-2.49.84-.26.34-.66.73-.1,1.26,1.11-.08,1.77-.83,2.59-2.1ZM632.32,70.44q-2.83,1.23-3.67,2.74,1.69-.47,3.67-2.74ZM568.66,28.35c-2.52,1.09-2.55,1.11-3.35,3.29,1.51-.74,2.46-1.75,3.35-3.29ZM603.22,27.32c2.39-.21,2.39-.22,3.43-2.08-1.42.3-2.33,1.01-3.43,2.08ZM569.16,52.24q2.87-.9,3.03-2.7c-1.33.2-2.03,1.1-3.03,2.7ZM612.38,60.72c-1.49.5-2.65,1.33-3.53,3.18,2.02-.61,2.88-1.81,3.53-3.18ZM583.64,48.98c.82-.11,1.32-.05,1.65-.25,1.1-.65,1.15-.78,2.1-2.78-1.62.54-2.8,1.25-3.75,3.03ZM556.23,46.86c-2.46.9-2.5.94-2.55,2.82,1.2-.49,1.99-1.22,2.55-2.82ZM547.03,58.49c-1.82.13-2.4.77-2.84,3.32,1.2-1.12,2.36-1.85,2.84-3.32ZM593.69,58.2c-1.7.81-2.38,1.69-2.81,2.82,1.16-.4,1.93-1.19,2.81-2.82ZM557.8,39.72c2.11-1.41,2.13-1.4,2.35-3.06-1.2.8-1.98,1.74-2.35,3.06ZM571.48,11.46q-1.88.8-2.39,2.75c1-.89,1.99-1.42,2.39-2.75ZM590.68,49.5c2.6-.16,2.62-.17,3.54-1.95-1.38.28-2.69.23-3.54,1.95ZM643.69,28.09c-1.35.26-2.33.44-3.3.65-.41.09-.99.12-.46,1.11,1.04-.71,2.53-.29,3.77-1.76ZM561.33,25.41c-1.38-.44-2.2.14-3.36,1.21,1.62.22,2.62.11,3.36-1.21ZM540.98,65.7c-.61.61-1.25,1.2-1.82,1.85-.34.38-.42.81.35,1.02.96-.6,1.57-1.46,1.47-2.87ZM559.14,16.73c1.41-.65,2.11-1.32,2.44-2.77-1.36.54-1.99,1.27-2.44,2.77ZM643.79,37.98c2.82.03,3.02-.12,3.1-1.95-.87.55-1.64,1.03-3.1,1.95ZM605.68,28.71c1.79-.36,2.89-.78,4.03-1.97-1.68-.01-2.79.4-4.03,1.97ZM616.24,88.43c2.4-.96,2.38-.98,2.99-2.72-1.27.44-2.05,1.21-2.99,2.72ZM557.04,102.02c-.18-.28-.25-.54-.41-.61-.17-.07-.53-.03-.61.09-.25.36-.49.78-.56,1.2-.04.22.25.54.46.73.07.06.47-.1.57-.25.24-.37.39-.81.55-1.16ZM624.69,32.06c.51-.28,1.02-.55,1.52-.85.29-.17.55-.39,1.21-.85-1.76-.25-2.39.53-2.73,1.7ZM591.7,53.93c-.74.47-2.39.36-1.78,1.96.63-.7,1.21-1.33,1.78-1.96ZM567.92,62.3c-.17-.18-.34-.36-.52-.55-.48.29-1.01.54-1.41.91-.17.15-.11.59-.08.89,0,.05.49.17.6.07.5-.4.94-.88,1.41-1.32ZM565.17,21.08c-.82.49-1.41.84-2.57,1.54,1.54-.08,2.24-.25,2.57-1.54ZM639.59,94.92c.73-.06,1.37-.08,1.99-.18.13-.02.31-.34.29-.52-.01-.17-.22-.44-.37-.46-.8-.09-1.6-.1-1.92,1.15ZM528.68,49.32c1.21-.25,2.11-.38,2.4-1.79-1.11.25-1.86.53-2.4,1.79ZM529.53,64.34c1.17.61,1.81.29,2.33-.43.1-.15.13-.47.04-.6-.1-.15-.46-.29-.58-.22-.55.33-1.06.74-1.79,1.26ZM580.03,62.79c-1.24-.4-1.82.16-2.34,1.43,1.25,0,1.96-.32,2.34-1.43ZM624.46,27.23c1.6-.57,2.89-.29,2.84-1.93-1.04.07-1.99.22-2.84,1.93ZM552.82,51.48q-1.48.39-1.86,1.82c.79-.78,1.33-1.3,1.86-1.82ZM575.4,64.51c-.17-.18-.34-.36-.51-.55-.57.55-1.17,1.07-1.69,1.65-.26.29-.63.75.35,1.07.58-.68,1.22-1.43,1.85-2.17ZM536.06,59.48c.17.21.34.41.52.62.52-.38,1.06-.73,1.56-1.14.09-.07.04-.46-.07-.57-.13-.13-.49-.25-.6-.16-.5.38-.94.83-1.4,1.26ZM529.86,83.62c-1.16.31-1.62.98-1.35,2.05.45-.68.9-1.37,1.35-2.05ZM551.87,88.6c-.09-.08-.16-.19-.26-.22-.73-.23-1.49.11-1.63.78-.03.16.11.48.25.54.63.24,1.48-.19,1.67-.8.03-.09-.01-.2-.02-.29ZM636.55,101.05q-1.61.3-1.56,1.53c.8-.22,1.57-.46,1.56-1.53ZM582.79,91.96c-.15-.46-.16-.74-.3-.88-.28-.27-.88.23-.92.81-.01.2.17.41.26.62.33-.19.67-.38.96-.55ZM572.34,27.94c.16.19.33.39.49.58.52-.46,1.04-.92,1.57-1.38-.11-.13-.21-.27-.32-.4-.58.4-1.16.8-1.74,1.2ZM536.56,32.4c-.12-.17-.24-.35-.37-.52-.47.43-.95.87-1.42,1.3l.29.35,1.49-1.13ZM542.7,56.89c-1.19-.09-1.81.32-2.23,1.65,1.24-.09,1.95-.39,2.23-1.65ZM596.85,54.94c-.1-.04-.26-.13-.29-.1-.39.38-.77.79-1.14,1.2-.01.01.2.24.2.24.44-.33.87-.67,1.29-1.03.04-.03-.04-.2-.06-.3ZM597.22,10.84q1.47-.17,2.14-1.56c-.91.66-1.53,1.11-2.14,1.56ZM617.99,55.27c-1.09.76-2.04.78-2,1.93.99.11,1.61-.24,2-1.93ZM556.71,23.95c-1.49-.2-2.09.44-2.57,1.22-.06.09.13.33.27.64.5-.26,1.02-.47,1.47-.79.26-.18.41-.51.83-1.07ZM654.73,57.05c-.32-.37-.5-.74-.73-.78-.25-.05-.55.23-.83.36.17.24.29.62.51.68.25.07.58-.13,1.06-.26ZM534.06,63.83c.44-.51.86-.97,1.25-1.47.02-.03-.22-.39-.36-.41-.66-.07-1.29.47-1.36,1.2-.02.15.22.32.48.67ZM549.69,14.22c-.21-.2-.41-.39-.62-.59-.12.68-1.45.5-.74,1.96.51-.52.93-.95,1.36-1.37ZM584.98,60.16c.11.12.22.24.32.37.31-.24.66-.45.92-.73.08-.09-.03-.37-.08-.56,0-.02-.25-.03-.32.03-.3.28-.57.59-.85.89ZM603,32.46c-1.01-.12-1.35-.22-1.68-.18-.47.06-.98.24-.77.85.05.15.61.23.9.17.32-.06.6-.31,1.55-.85ZM548.97,55.06c-.38.31-.74.56-1.03.88-.07.07.12.38.2.57.39-.22.78-.43,1.14-.69.04-.03-.15-.37-.31-.76ZM631.68,27.83c-.03-.14-.05-.29-.08-.43-.42.02-.85.02-1.26.1-.09.02-.13.37-.15.57,0,.05.19.17.27.15.41-.11.81-.26,1.22-.39ZM540.15,91.91c-.29-.3-.52-.59-.55-.58-.46.31-.91.64-1.3,1.03-.06.06.11.4.22.58.03.05.25.06.32.01.45-.33.87-.69,1.32-1.04ZM512.84,79.91c-.24-.35-.36-.53-.48-.7-.32.28-.67.53-.91.86-.05.07.31.44.48.67.31-.28.62-.57.91-.83ZM565.25,24.29c.09.17.19.34.28.52.43-.22.86-.45,1.29-.67-.05-.12-.1-.23-.15-.35-.47.17-.94.33-1.41.5ZM598.33,31.32q1.65.03,1.97-1.21c-.67.41-1.19.73-1.97,1.21ZM631,29.92c.55.06.91.2,1.18.1.28-.1.47-.43.71-.66-.28-.05-.59-.19-.84-.12-.31.09-.56.36-1.04.68ZM544.4,74.06c-.8.64-1.15.8-1.29,1.07-.12.22-.02.58-.01.87.26-.18.54-.34.75-.56.14-.16.18-.41.55-1.37ZM586.23,150.68c.18.03.36.07.54.1v-1.81c-.14,0-.27-.01-.41-.02-.04.58-.09,1.16-.13,1.73ZM578.08,146.85c-.1,0-.2,0-.3,0v1.54c.1,0,.2,0,.3,0v-1.54ZM620.86,25.48c.75.39,1.29.42,1.72-.15.11-.15.15-.47.06-.61-.09-.14-.45-.26-.57-.19-.39.23-.72.55-1.2.94ZM587.76,64.06c.95,0,1.57-.29,1.28-1.4-.5.55-.89.97-1.28,1.4ZM548.88,92.53c-.32-.05-.64-.16-.91-.1-.14.03-.19.39-.29.6.31.09.63.2.95.24.04,0,.13-.38.25-.74ZM645.09,91.51c-.61-.56-1.14-.49-1.61.19.6.51,1.15.53,1.61-.19ZM631.01,24.76l.16.37c.39-.1.82-.11,1.14-.32.19-.12.19-.53.28-.8-.2-.02-.46-.12-.6-.03-.35.21-.66.51-.98.78ZM592.12,145.34c-.13-.16-.26-.33-.39-.49-.06.08-.19.2-.17.23.1.17.24.32.37.48.06-.08.13-.15.19-.23ZM636.19,97.78c-.05-.24-.09-.42-.13-.59-.21.06-.47.07-.61.2-.12.11-.11.37-.16.56.3-.06.59-.12.9-.17ZM584.93,17.77c0-.08-.02-.16-.03-.24-.18.05-.38.06-.52.16-.06.04.03.27.04.42.17-.11.33-.23.5-.34ZM532.34,78.46c.15.08.29.15.44.23.21-.25.47-.47.61-.76.07-.14-.09-.38-.15-.58-.09.04-.23.05-.28.12-.22.32-.42.66-.63.99ZM579.11,19.06c.08-.18.16-.36.24-.54-.1.03-.24.03-.3.1-.11.13-.17.3-.26.46.11,0,.21,0,.32-.01ZM545.38,50.31c-.32-.29-.57-.55-.6-.53-.35.25-.66.55-.98.84.15.13.37.4.45.36.38-.17.72-.42,1.14-.67ZM622.58,28.83c-.43,0-.73-.02-1.02.01-.08,0-.16.14-.24.22.27.11.54.25.82.3.08.01.21-.25.43-.54ZM617.37,29.6c-.42,0-.71-.02-.99.01-.08,0-.16.14-.23.22.27.1.54.24.82.29.08.01.2-.25.41-.52ZM606.56,18.86c-.04-.08-.05-.22-.11-.24-.07-.03-.18.04-.27.07.06.12.12.24.19.36.07-.06.13-.13.2-.19ZM635.4,94.89c-.2-.05-.44-.19-.58-.12-.17.08-.24.35-.36.53.2.05.44.18.59.12.16-.08.23-.34.35-.53ZM633.07,96.77c-.23-.11-.41-.22-.6-.27-.05-.01-.23.18-.22.22.08.17.21.32.33.48.16-.14.31-.28.48-.43ZM568.61,18.61c.22-.08.47-.11.63-.25.06-.05-.11-.36-.18-.55-.21.08-.46.13-.61.28-.06.05.1.34.16.52ZM514.69,99.87c.22-.28.42-.51.59-.76.02-.03-.13-.23-.14-.23-.25.12-.5.23-.7.41-.04.04.13.32.25.58ZM577.27,151.8c-.05.07-.15.13-.15.2,0,.08.06.16.1.25.06-.07.15-.13.16-.2,0-.08-.07-.16-.1-.24ZM588.19,60.55c-.14.14-.29.27-.4.43-.02.03.15.26.17.26.2-.09.39-.21.58-.32-.11-.12-.23-.24-.34-.36ZM578.81,60.35c-.13-.18-.19-.26-.25-.35-.22.21-.44.43-.66.64.08.07.2.22.22.2.24-.15.46-.33.69-.49ZM533.86,60.63c.07-.05.16-.12.25-.18-.11-.11-.21-.22-.32-.33-.05.1-.14.21-.14.31,0,.06.13.13.21.2ZM606.21,66.78c.22-.08.52-.09.62-.25.07-.11-.11-.4-.18-.6-.21.1-.46.17-.6.33-.06.07.1.34.16.52ZM651.98,59.59c.14-.09.28-.18.42-.27-.08-.06-.18-.17-.23-.16-.15.05-.29.16-.43.25.08.06.16.12.23.17ZM547.58,80.89c-.17-.11-.32-.25-.51-.33-.06-.03-.28.12-.28.14.05.17.14.32.21.48.19-.09.38-.19.57-.29ZM652.72,83.81c-.18-.12-.36-.32-.54-.33-.19,0-.39.17-.59.27.18.12.36.33.54.33.19,0,.39-.18.59-.28ZM539.38,62.6c.04-.09.09-.18.13-.27-.16-.01-.31-.02-.47-.03.03.15.06.31.09.46.08-.05.17-.11.25-.16ZM642.42,100.35c-.05-.08-.08-.2-.15-.23-.09-.03-.2.02-.31.04.07.12.13.24.2.36.09-.06.17-.11.26-.17ZM618.72,17.49l-.23.09.22.1v-.19ZM603.34,69.4c.1.03.21.09.31.08.04,0,.06-.16.1-.24-.1-.03-.21-.08-.31-.07-.04,0-.07.15-.1.24ZM640.51,101.73c-.18-.02-.36-.04-.55-.06.08.07.16.18.24.19.1,0,.2-.08.3-.13ZM586.48,82.2c-.04.09-.08.18-.12.27.14.02.29.04.43.06-.01-.1.01-.22-.04-.28-.05-.05-.18-.03-.27-.05ZM554.96,27.71c-.24-.06-.38-.1-.52-.14.03.08.05.24.08.24.11,0,.22-.05.44-.11ZM539.05,87.01c.08-.05.21-.08.24-.16.04-.08-.01-.2-.03-.3-.13.07-.26.15-.4.22.06.08.12.16.18.23ZM566.42,78.03l-.14.24.22.02-.09-.26ZM595.89,18.96c-.2-.07-.38-.16-.56-.18-.07,0-.15.13-.23.2.14.1.27.28.41.28.12,0,.25-.19.38-.3ZM634.51,93.29c.09-.06.18-.12.27-.18-.08-.07-.2-.22-.23-.2-.13.07-.23.19-.34.29.1.03.2.06.3.1ZM620.74,23.22l-.03.24.3-.09-.27-.15Z" fill="#212c47" stroke-width="0"/><path d="M613.43,106.45c.41-1.24,1.57-1.69,2.53-2.29,2.26-1.42,4.58-2.75,6.87-4.11-.25,1.06-.48,2.11-.72,3.16-.26.26-.52.51-.77.76-1.78,1.11-3.58,2.23-5.42,3.39-.74-.38-1.41-1.21-2.48-.9Z" fill="#212c47" stroke-width="0"/><path d="M540.2,104.25c-.48-.89-.96-1.78-1.42-2.61,2-2.6,3.86-5.02,5.72-7.44l-.11-.06c.17.53.31,1.09,1.08.86-.56.87-1.05,1.81-1.7,2.61-1.62,2.02-3.1,4.11-3.69,6.69l.11-.05Z" fill="#212c47" stroke-width="0"/><path d="M537.08,96.82c.02.23.15.54.04.69-1.18,1.64-2.36,3.27-3.61,4.86-.62.79-1.49,1.16-2.66.98.37-1.71,2.1-2.05,3.06-3.11,1.05-1.14,2.16-2.22,3.24-3.33,0,0-.08-.09-.08-.09Z" fill="#212c47" stroke-width="0"/><path d="M496.42,69.67c-1.11,1.2-2.2,2.43-3.36,3.59-.25.25-.75.26-1.72.56,1.5-2.33,2.02-4.58,4.27-5.57-.06.66.11,1.19.81,1.42Z" fill="#212c47" stroke-width="0"/><path d="M609.92,106.71c.12.67.43,1.07,1.17.76.84-.35,1.66-.74,2.49-1.12-1.28,1.68-2.94,2.77-5.09,3.52-.36-1.65.94-2.22,1.43-3.17Z" fill="#212c47" stroke-width="0"/><path d="M495.67,78.5c-.49.63-.96,1.34-1.9,1.19-.24-.04-.48-.39-.62-.65-.05-.1.2-.51.32-.51.75-.02,1.5.03,2.26.06,0,0-.07-.09-.07-.09Z" fill="#212c47" stroke-width="0"/><path d="M548.41,104.86c.35-.45.69-.89,1.04-1.34.12.09.23.18.35.27-.34.45-.68.9-1.02,1.35-.12-.09-.24-.19-.37-.28Z" fill="#212c47" stroke-width="0"/><path d="M659.93,88.47c-.24.22-.48.43-.72.65-.62,0-1.25-.02-1.87-.02l.1.08c.48-.41.92-.91,1.47-1.19.21-.1.67.31,1.02.48Z" fill="#212c47" stroke-width="0"/><path d="M537.76,100.29c.04-1.14.46-1.47,1.78-2.1-.88,1.04-1.22,1.44-1.78,2.1Z" fill="#212c47" stroke-width="0"/><path d="M499.31,61.17c.02-.46.01-.92.09-1.37.01-.08.36-.11.55-.13.02,0,.12.24.08.3-.26.38-.55.74-.83,1.11l.1.09Z" fill="#212c47" stroke-width="0"/><path d="M632.54,15.08l.09-.04c-.87,0-1.74,0-2.61-.01l.07.08c.11-.76.69-.86,1.27-.84.46.02.91.16,1.37.26,0,0-.13-.16-.13-.16-.02.24-.04.48-.07.72Z" fill="#212c47" stroke-width="0"/><path d="M511.55,92.93c-.35-.78.14-1.17.75-1.75.2,1-.36,1.31-.85,1.67,0,0,.09.09.09.09Z" fill="#212c47" stroke-width="0"/><path d="M655.19,90.66c.58-.76,1.23-1.4,2.25-1.48,0,0-.1-.08-.1-.08-.48.88-1.2,1.38-2.21,1.46l.05.1Z" fill="#212c47" stroke-width="0"/><path d="M585.06,159.18c.04.66.09,1.33.13,2.03-.61-.23-.23-.72-.27-1.06-.04-.32.08-.66.13-1,0,0,0,.02,0,.02Z" fill="#212c47" stroke-width="0"/><path d="M511.42,75.54c.08-1,.62-1.69,1.44-2.2,0,0-.08-.05-.08-.05-.08.99-.51,1.74-1.44,2.17l.08.09Z" fill="#212c47" stroke-width="0"/><path d="M632.6,14.37s.13.16.13.16c.13-.17.25-.35.41-.49.06-.06.21-.03.31-.04-.07.16-.12.42-.22.45-.19.05-.42-.04-.63-.07Z" fill="#212c47" stroke-width="0"/><path d="M649.97,19.36c-.05.1-.1.2-.16.29-.09-.06-.18-.11-.27-.17.08-.08.15-.17.25-.23.03-.02.12.07.19.1Z" fill="#212c47" stroke-width="0"/><path d="M499.39,87.49c-.56.28-.83.45-1.13.53-.08.02-.35-.23-.34-.32.03-.18.17-.42.32-.48.16-.06.38.07,1.14.27Z" fill="#212c47" stroke-width="0"/><path d="M638.74,14.28c-.09.04-.18.08-.26.12,0-.14,0-.28,0-.42.09.02.2.01.25.06.04.04,0,.16,0,.23Z" fill="#212c47" stroke-width="0"/><path d="M551.42,105.72c-.05.1-.11.19-.16.29-.06-.14-.15-.28-.16-.43,0-.05.17-.12.26-.18.02.11.04.22.06.33Z" fill="#212c47" stroke-width="0"/><path d="M591.95,161.75q-1.05.45-1.46-.79s-.08.11-.08.11c.52.26,1.05.51,1.57.76l-.03-.09Z" fill="#212c47" stroke-width="0"/><polygon points="597.28 162.91 597.22 162.6 597.41 162.65 597.28 162.91" fill="#212c47" stroke-width="0"/><path d="M497.5,62.39c-.21.2-.41.39-.62.59.02-.08.02-.22.07-.24.2-.11.42-.19.63-.27,0,0-.08-.07-.08-.07Z" fill="#212c47" stroke-width="0"/><path d="M497.05,66.81c-.51.51-1.03,1.03-1.54,1.54-.03-1.05.5-1.55,1.54-1.54Z" fill="#212c47" stroke-width="0"/><path d="M499.21,61.07c-.26.84-.72,1.42-1.71,1.32,0,0,.08.07.08.07.57-.43,1.15-.86,1.73-1.29,0,0-.1-.09-.1-.09Z" fill="#212c47" stroke-width="0"/><path d="M553.15,102.81c.24-.5.47-1,.71-1.5,0,0-.09-.02-.09-.02,0,.54.02,1.07.02,1.61l.08-.12c-.28,0-.55,0-.83,0l.11.05Z" fill="#212c47" stroke-width="0"/><path d="M636.24,15.36c.06-.18.12-.36.18-.54-.07.18-.14.35-.23.52-.02-.01.05.03.05.03Z" fill="#212c47" stroke-width="0"/><path d="M624.13,15.69c.18-.06.36-.12.54-.18-.08.05-.16.14-.26.15-.11.02-.23-.02-.36-.05,0,0,.08.07.08.07Z" fill="#212c47" stroke-width="0"/><path d="M628.61,15.83c.26-.72.82-.82,1.48-.73l-.07-.08c-.24.75-.83.78-1.47.72l.06.08Z" fill="#212c47" stroke-width="0"/><path d="M633.96,15.49c.75-.05,1.5-.1,2.26-.14.02,0-.06-.03-.04-.02-.74.05-1.5.1-2.28.13-.02-.01.05.03.05.03Z" fill="#212c47" stroke-width="0"/><path d="M659.46,57.55c.29-.74.99-.68,1.59-.82-.53.27-1.06.55-1.59.82Z" fill="#212c47" stroke-width="0"/><path d="M660.9,56.83c.53-.27,1.06-.54,1.6-.81-.53.27-1.06.54-1.6.81Z" fill="#212c47" stroke-width="0"/><path d="M673.01,70.3c.2-.09.39-.2.59-.27.04-.02.13.09.19.14-.28.02-.57.05-.86.07,0,0,.08.07.08.07Z" fill="#212c47" stroke-width="0"/><path d="M594.41,160c0,.21,0,.42,0,.63,0-.22,0-.44.01-.67.01-.01-.02.04-.02.04Z" fill="#212c47" stroke-width="0"/><path d="M556.42,10.4c.18-.1.37-.2.55-.29-.2.07-.4.14-.6.22l.05.08Z" fill="#212c47" stroke-width="0"/><path d="M556.38,10.33c-.03.74-.07,1.49-.09,2.25.01.02.05.08.07.1.04-.74.06-1.49.08-2.26-.01-.02-.06-.09-.06-.09Z" fill="#212c47" stroke-width="0"/><path d="M611.01,104.8c-.26.55-.52,1.1-.78,1.65.28-.55.56-1.1.85-1.65,0,0-.07,0-.07,0Z" fill="#212c47" stroke-width="0"/><path d="M553.16,104.3c-.41-.49-.75-.98,0-1.48l-.11-.05c0,.52.01,1.05.02,1.57l.1-.04Z" fill="#212c47" stroke-width="0"/><path d="M534.96,26.32c.38-.25.76-.49,1.13-.76,0-.02-.04-.1-.04-.1-.38.25-.77.49-1.14.75,0,.01.06.11.06.11Z" fill="#212c47" stroke-width="0"/><path d="M534.71,28.59c.09-.75.18-1.5.26-2.26,0-.01-.06-.11-.06-.12-.07.78-.13,1.58-.19,2.37,0,0,0,0,0,0Z" fill="#212c47" stroke-width="0"/><path d="M662.38,56.12c-.12-.27-.25-.55-.37-.82.3.18.6.37.9.55-.18.09-.35.18-.53.27Z" fill="#212c47" stroke-width="0"/><path d="M669.43,77.46c.19-.09.38-.19.57-.26.03,0,.1.12.16.19-.26,0-.53,0-.8,0,0,0,.06.08.06.08Z" fill="#212c47" stroke-width="0"/><path d="M505.1,51.47c-.03-.19-.05-.38-.08-.57-.02.08-.06.17-.04.25.03.1.11.19.17.28,0,0-.05.04-.05.04Z" fill="#212c47" stroke-width="0"/><path d="M536.21,23.12c.07.06.14.12.21.19,0-.14,0-.27-.01-.41-.06.07-.13.14-.19.21h0Z" fill="#212c47" stroke-width="0"/><path d="M667.79,46.42c.19.04.38.08.58.12-.2-.04-.41-.07-.63-.12-.02,0,.05,0,.05,0Z" fill="#212c47" stroke-width="0"/><path d="M536.22,23.11c-.07.77-.13,1.54-.19,2.33.01.02.05.1.06.12.05-.8.08-1.62.12-2.44,0,0,0,0,0,0Z" fill="#212c47" stroke-width="0"/><path d="M578.22,37.39c.63-.5,1.29-.4,1.96-.09l-.05.04c-.64.02-1.27.03-1.9.05Z" fill="#212c47" stroke-width="0"/><path d="M600.34,75.95c.69-.16,1.39-.32,2.08-.48-.69.13-1.38.26-2.08.39,0,0,0,.09,0,.09Z" fill="#212c47" stroke-width="0"/><path d="M626.78,97.02c-1.13.85-2.04,2.06-3.59,2.23,1.22-.7,2-2.12,3.59-2.23Z" fill="#212c47" stroke-width="0"/><path d="M659.61,83.43c-.52-.27-1.04-.53-1.57-.8.52.27,1.04.53,1.57.8Z" fill="#212c47" stroke-width="0"/><path d="M603.88,90.63c.89-.51,1.79-1.02,2.68-1.53-.89.51-1.79,1.02-2.68,1.53Z" fill="#212c47" stroke-width="0"/><path d="M586.11,30.23c.76-.52,1.52-1.03,2.28-1.55-.76.52-1.52,1.03-2.28,1.55Z" fill="#212c47" stroke-width="0"/><path d="M576.25,37.77c-.07.12-.15.24-.22.37.1.01.2.02.3.03-.02-.14-.05-.27-.07-.41,0,0,0,0,0,0Z" fill="#212c47" stroke-width="0"/><path d="M578.3,37.31c0,.27,0,.54,0,.81-.68-.12-1.37-.23-2.05-.35,0,0,0,0,0,0,.68-.15,1.37-.31,2.05-.46Z" fill="#212c47" stroke-width="0"/><path d="M570.87,94.43c.01.18.03.36.04.55.02-.08.07-.16.06-.23-.02-.1-.09-.18-.15-.28,0,0,.05-.03.05-.03Z" fill="#212c47" stroke-width="0"/><path d="M517.51,71.39c.05.28.1.56.02.13.03.47.01.22-.01-.05-.01-.02,0-.07,0-.07Z" fill="#212c47" stroke-width="0"/><path d="M595.07,81.48c.13.12.26.24.39.36.15-.62-.19-.35-.43-.25,0,0,.05-.11.05-.11Z" fill="#212c47" stroke-width="0"/><path d="M596.31,83.35c-.52.27-1.04.54-1.57.8.52-.27,1.04-.54,1.57-.8Z" fill="#212c47" stroke-width="0"/><path d="M594.88,84.09c-.53.43-1.06.55-1.58,0,.53,0,1.06,0,1.58,0Z" fill="#212c47" stroke-width="0"/><path d="M516.36,80.58c.5-.88,1.01-1.76,1.51-2.64-.22,1.05-.67,1.96-1.51,2.64Z" fill="#212c47" stroke-width="0"/><path d="M513.25,50.71c-.11-.31-.23-.61-.31-.93-.02-.07.12-.18.19-.27.08.16.23.32.23.48,0,.22-.14.43-.19.66.02.02.09.07.09.07Z" fill="#212c47" stroke-width="0"/><path d="M592.71,87.66c-.76.51-1.52,1.02-2.27,1.53.76-.51,1.52-1.02,2.27-1.53Z" fill="#212c47" stroke-width="0"/><path d="M594.27,86.95c-.56.27-1.13.53-1.69.8.56-.27,1.13-.53,1.69-.8Z" fill="#212c47" stroke-width="0"/><path d="M528.67,68.63c-.26.63-.53,1.26-.79,1.89.26-.63.53-1.26.79-1.89Z" fill="#212c47" stroke-width="0"/><path d="M579.39,81.18c-.12.51-.25,1.01-.37,1.52-.87.48-1.74.96-2.61,1.45.85-1.14,1.46-2.5,2.98-2.97Z" fill="#212c47" stroke-width="0"/><path d="M630.7,49.15c.52-.34,1.05-.69,1.57-1.03-.52.34-1.05.69-1.57,1.03Z" fill="#212c47" stroke-width="0"/></g><path d="M.31,30.17c-.48-.48-.4-1.59.24-1.91,2.15.16,5.74.24,8.21.24,2.23,0,6.29-.08,9.08-.24.72.24.64,1.35.16,1.91l-1.83.16c-1.67.16-2.63.64-2.63,1.35,0,.96,1.67,5.02,4.14,10.68,4.46,9.96,9.16,19.92,13.79,29.72,1.91-3.98,4.06-8.45,6.14-12.91.72-1.51,1.27-2.87,1.27-3.27s-.24-1.12-.64-2.07c-2.79-6.37-5.74-12.75-8.77-19.12-1.2-2.47-2.39-4.14-5.1-4.38l-1.91-.16c-.56-.64-.48-1.59.16-1.91,2.31.16,5.34.24,8.53.24,3.98,0,6.93-.08,8.77-.24.56.24.64,1.27.16,1.91l-2.07.16c-3.11.24-3.19.8-1.67,4.38,1.67,3.9,3.9,8.92,6.14,13.86,1.51-3.11,2.95-6.14,4.7-10.44,2.87-6.77,2.47-7.65-.08-7.81l-2.39-.16c-.56-.8-.4-1.67.16-1.91,2.15.16,4.54.24,7.49.24,2.63,0,5.82-.08,7.65-.24.56.24.64,1.27.16,1.91l-2.31.16c-3.35.24-4.78,3.82-6.53,7.09-1.67,2.95-5.02,9.88-6.21,12.67-.4.8-.72,1.59-.72,1.91s.16.96.56,1.91c2.71,6.14,5.5,12.11,8.13,18.17,2.47-5.58,4.86-11.15,7.17-16.81,1.59-3.82,5.82-14.42,6.37-15.86,1.04-2.87,2.39-6.29,2.39-7.25,0-1.12-.96-1.75-2.63-1.83l-2.31-.16c-.64-.72-.56-1.59.08-1.91,3.03.16,5.18.24,7.65.24,3.03,0,5.34-.08,7.41-.24.64.24.72,1.27.16,1.91l-1.51.16c-3.98.4-4.7,2.79-9.48,13.86l-5.82,13.47c-3.51,8.13-6.69,15.94-9.96,24.46-.24.16-.56.24-.96.24s-.8-.08-1.12-.24c-2.55-7.09-7.17-17.05-9.64-22.63-2.87,5.82-7.65,16.02-9.96,22.63-.24.16-.56.24-.96.24s-.8-.08-1.2-.24c-1.35-3.35-4.46-10.52-5.5-12.83-5.1-11.08-10.04-22.15-15.22-33.23-1.51-3.27-2.47-5.42-5.82-5.74l-1.91-.16Z" fill="#212c47" stroke-width="0"/><path d="M79.27,55.35c0-15.94,11.95-28.13,28.37-28.13,18.41,0,27.65,13.31,27.65,27.33,0,16.09-12.27,27.81-27.65,27.81-17.69,0-28.37-12.67-28.37-27.01ZM127.31,57.02c0-13.15-5.82-27.33-21.04-27.33-8.29,0-19.04,5.66-19.04,23.11,0,11.79,5.74,27.09,21.43,27.09,9.56,0,18.65-7.17,18.65-22.87Z" fill="#212c47" stroke-width="0"/><path d="M142.61,55.35c0-15.94,11.95-28.13,28.37-28.13,18.41,0,27.65,13.31,27.65,27.33,0,16.09-12.27,27.81-27.65,27.81-17.69,0-28.37-12.67-28.37-27.01ZM190.66,57.02c0-13.15-5.82-27.33-21.04-27.33-8.29,0-19.04,5.66-19.04,23.11,0,11.79,5.74,27.09,21.43,27.09,9.56,0,18.65-7.17,18.65-22.87Z" fill="#212c47" stroke-width="0"/><path d="M212.48,38.85c0-5.58-.4-7.25-3.75-7.73l-1.75-.24c-.64-.4-.72-1.67.08-1.99,6.77-.4,13.23-.64,20-.64s12.35.48,17.53,2.39c10.76,3.9,16.18,12.99,16.18,23.51s-4.86,18.8-13.94,23.74c-5.18,2.79-11.71,3.83-17.85,3.83-5.1,0-10.2-.64-12.99-.64-3.35,0-6.21.08-9.96.24-.48-.24-.64-1.51-.16-1.99l1.83-.24c4.62-.64,4.78-1.59,4.78-9.96v-30.28ZM219.02,67.3c0,4.22.24,6.77,1.59,8.68,1.75,2.47,4.78,3.27,9.8,3.27,15.46,0,22.39-10.12,22.39-24.94,0-8.77-4.22-23.59-25.1-23.59-4.7,0-7.25.64-7.89,1.12-.64.48-.8,2.47-.8,6.06v29.4Z" fill="#212c47" stroke-width="0"/><path d="M274.63,40.45c0-8.37-.16-9.64-5.18-10.04l-1.99-.16c-.48-.32-.32-1.75.16-1.99,4.46.16,7.17.24,10.36.24s5.82-.08,9.8-.24c.48.24.64,1.67.16,1.99l-1.91.16c-4.7.4-4.86,1.67-4.86,10.04v27.73c0,5.02.24,7.09,1.67,8.61.88.88,2.39,1.83,8.69,1.83,6.77,0,8.45-.32,9.72-1.04,1.59-.96,3.67-3.82,5.26-7.89.48-.4,1.99-.08,1.99.48,0,.88-2.23,9-3.35,11.16-4.06-.16-11.63-.24-19.84-.24h-7.33c-3.35,0-5.9.08-10.36.24-.48-.24-.64-1.51-.16-1.99l2.39-.24c4.62-.48,4.78-1.59,4.78-9.96v-28.69Z" fill="#212c47" stroke-width="0"/><path d="M346.5,62.6c-.56-1.75-.88-1.99-3.27-1.99h-12.03c-1.99,0-2.47.24-3.03,1.91l-2.79,8.37c-1.2,3.59-1.75,5.74-1.75,6.61,0,.96.4,1.43,2.31,1.59l2.63.24c.56.4.56,1.67-.16,1.99-2.07-.16-4.54-.16-8.29-.24-2.63,0-5.5.16-7.65.24-.48-.32-.64-1.59-.16-1.99l2.63-.24c1.91-.16,3.67-1.04,4.78-3.9,1.43-3.67,3.67-8.84,7.01-17.77l8.13-21.51c1.12-2.87,1.59-4.38,1.35-5.66,1.91-.56,3.27-1.99,4.14-3.03.48,0,1.04.16,1.2.72,1.04,3.51,2.31,7.17,3.51,10.68l10.92,32.03c2.31,6.85,3.35,8.05,6.77,8.45l2.15.24c.56.4.4,1.67,0,1.99-3.27-.16-6.06-.24-9.64-.24-3.83,0-6.85.16-9.16.24-.64-.32-.72-1.59-.16-1.99l2.31-.24c1.67-.16,2.79-.64,2.79-1.43,0-.88-.4-2.31-1.04-4.22l-3.51-10.84ZM330.72,55.51c-.64,1.83-.56,1.91,1.67,1.91h9.8c2.31,0,2.47-.32,1.75-2.47l-4.3-12.99c-.64-1.91-1.35-4.06-1.83-5.02h-.16c-.24.4-1.04,2.31-1.91,4.7l-5.02,13.86Z" fill="#212c47" stroke-width="0"/><path d="M420.84,67.54c0,2.39,0,11.87.24,13.94-.16.48-.64.88-1.51.88-.96-1.35-3.27-4.14-10.2-12.03l-18.49-21.04c-2.15-2.47-7.57-9-9.24-10.76h-.16c-.32.96-.4,2.79-.4,5.18v17.37c0,3.74.08,14.1,1.43,16.49.48.88,2.07,1.35,4.06,1.51l2.47.24c.48.64.4,1.59-.16,1.99-3.58-.16-6.37-.24-9.32-.24-3.35,0-5.5.08-8.29.24-.56-.4-.64-1.51-.16-1.99l2.15-.24c1.83-.24,3.11-.72,3.51-1.59,1.12-2.87,1.04-12.59,1.04-16.41v-23.03c0-2.23-.08-3.9-1.75-5.74-1.12-1.12-3.03-1.67-4.94-1.91l-1.35-.16c-.48-.48-.48-1.67.16-1.99,3.35.24,7.57.24,9,.24,1.28,0,2.63-.08,3.67-.24,1.59,4.06,11,14.58,13.63,17.53l7.73,8.69c5.5,6.14,9.4,10.6,13.15,14.42h.16c.32-.4.32-1.67.32-3.35v-17.05c0-3.75-.08-14.1-1.59-16.49-.48-.72-1.75-1.19-4.94-1.59l-1.35-.16c-.56-.48-.48-1.75.16-1.99,3.67.16,6.37.24,9.4.24,3.43,0,5.5-.08,8.21-.24.64.4.64,1.51.16,1.99l-1.12.16c-2.55.4-4.14,1.04-4.46,1.67-1.35,2.87-1.2,12.75-1.2,16.41v19.04Z" fill="#212c47" stroke-width="0"/><path d="M440.35,38.85c0-5.58-.4-7.25-3.75-7.73l-1.75-.24c-.64-.4-.72-1.67.08-1.99,6.77-.4,13.23-.64,20-.64s12.35.48,17.53,2.39c10.76,3.9,16.18,12.99,16.18,23.51s-4.86,18.8-13.94,23.74c-5.18,2.79-11.71,3.83-17.85,3.83-5.1,0-10.2-.64-12.99-.64-3.35,0-6.21.08-9.96.24-.48-.24-.64-1.51-.16-1.99l1.83-.24c4.62-.64,4.78-1.59,4.78-9.96v-30.28ZM446.89,67.3c0,4.22.24,6.77,1.59,8.68,1.75,2.47,4.78,3.27,9.8,3.27,15.46,0,22.39-10.12,22.39-24.94,0-8.77-4.22-23.59-25.1-23.59-4.7,0-7.25.64-7.89,1.12-.64.48-.8,2.47-.8,6.06v29.4Z" fill="#212c47" stroke-width="0"/><path d="M22.5,118.56c-3.82,0-3.98.16-3.98,2.55v11.24c0,8.37.4,9.48,4.86,9.96l2.31.24c.48.32.32,1.75-.16,1.99-4.3-.16-7.01-.24-10.12-.24-3.43,0-6.14.16-9.24.24-.48-.24-.64-1.51-.16-1.99l1.35-.24c4.46-.8,4.62-1.59,4.62-9.96v-28.69c0-8.37-.56-9.72-4.7-10.04l-2.07-.16c-.48-.32-.32-1.75.16-1.99,3.9.08,6.61.24,10.04.24,3.11,0,5.82-.08,9.24-.24.48.24.64,1.67.16,1.99l-1.51.16c-4.62.48-4.78,1.67-4.78,10.04v9.16c0,2.47.16,2.55,3.98,2.55h22.79c3.82,0,3.98-.08,3.98-2.55v-9.16c0-8.37-.16-9.56-4.86-10.04l-1.51-.16c-.48-.32-.32-1.75.16-1.99,3.67.16,6.37.24,9.64.24s5.82-.08,9.4-.24c.48.24.64,1.67.16,1.99l-1.67.16c-4.62.48-4.78,1.67-4.78,10.04v28.69c0,8.37.16,9.4,4.78,9.96l1.91.24c.48.32.32,1.75-.16,1.99-3.82-.16-6.53-.24-9.64-.24-3.27,0-6.14.08-9.64.24-.48-.24-.64-1.51-.16-1.99l1.51-.24c4.86-.8,4.86-1.59,4.86-9.96v-11.24c0-2.39-.16-2.55-3.98-2.55h-22.79Z" fill="#212c47" stroke-width="0"/><path d="M76.2,103.82c0-8.45-.16-9.8-4.86-10.2l-1.99-.16c-.48-.32-.32-1.75.16-1.99,3.98.16,6.69.24,10.04.24s5.9-.08,9.88-.24c.48.24.64,1.67.16,1.99l-1.99.16c-4.7.4-4.86,1.75-4.86,10.2v28.37c0,8.45.16,9.56,4.86,10.12l1.99.24c.48.32.32,1.75-.16,1.99-3.98-.16-6.69-.24-9.88-.24-3.35,0-6.06.08-10.04.24-.48-.24-.64-1.51-.16-1.99l1.99-.24c4.7-.56,4.86-1.67,4.86-10.12v-28.37Z" fill="#212c47" stroke-width="0"/><path d="M104.48,103.66c0-8.37-.16-9.64-5.18-10.04l-1.99-.16c-.48-.32-.32-1.75.16-1.99,4.46.16,7.17.24,10.36.24s5.82-.08,9.8-.24c.48.24.64,1.67.16,1.99l-1.91.16c-4.7.4-4.86,1.67-4.86,10.04v27.73c0,5.02.24,7.09,1.67,8.61.88.88,2.39,1.83,8.69,1.83,6.77,0,8.45-.32,9.72-1.04,1.59-.96,3.67-3.82,5.26-7.89.48-.4,1.99-.08,1.99.48,0,.88-2.23,9-3.35,11.16-4.06-.16-11.63-.24-19.84-.24h-7.33c-3.35,0-5.9.08-10.36.24-.48-.24-.64-1.51-.16-1.99l2.39-.24c4.62-.48,4.78-1.59,4.78-9.96v-28.69Z" fill="#212c47" stroke-width="0"/><path d="M149.9,103.66c0-8.37-.16-9.64-5.18-10.04l-1.99-.16c-.48-.32-.32-1.75.16-1.99,4.46.16,7.17.24,10.36.24s5.82-.08,9.8-.24c.48.24.64,1.67.16,1.99l-1.91.16c-4.7.4-4.86,1.67-4.86,10.04v27.73c0,5.02.24,7.09,1.67,8.61.88.88,2.39,1.83,8.69,1.83,6.77,0,8.45-.32,9.72-1.04,1.59-.96,3.67-3.82,5.26-7.89.48-.4,1.99-.08,1.99.48,0,.88-2.23,9-3.35,11.16-4.06-.16-11.63-.24-19.84-.24h-7.33c-3.35,0-5.9.08-10.36.24-.48-.24-.64-1.51-.16-1.99l2.39-.24c4.62-.48,4.78-1.59,4.78-9.96v-28.69Z" fill="#212c47" stroke-width="0"/><path d="M202.96,145.58c-6.69,0-10.92-2.07-12.43-2.95-.96-1.75-1.99-7.41-2.15-11.16.4-.56,1.59-.72,1.91-.24,1.2,4.06,4.46,11.87,13.71,11.87,6.69,0,9.96-4.38,9.96-9.16,0-3.51-.72-7.41-6.53-11.16l-7.57-4.94c-3.98-2.63-8.61-7.17-8.61-13.71,0-7.57,5.9-13.71,16.25-13.71,2.47,0,5.34.48,7.41,1.04,1.04.32,2.15.48,2.79.48.72,1.91,1.43,6.38,1.43,9.72-.32.48-1.59.72-1.99.24-1.04-3.82-3.19-9-10.84-9s-9.48,5.18-9.48,8.84c0,4.62,3.83,7.97,6.77,9.8l6.37,3.98c5.02,3.11,9.96,7.73,9.96,15.3,0,8.76-6.61,14.74-16.97,14.74Z" fill="#212c47" stroke-width="0"/><path d="M306.95,116.34c2.09,0,4.7-.49,6.3-.91.51-.13,1.23-.31,1.68-.31h.04l.03-.03c.09-.07.15-.18.16-.3,0-.12-.03-.23-.11-.31l-.04-.03c-.53-.21-.76-.92-.76-2.37v-1.96c0-1.84.06-2.66,1.4-2.82l.6-.08.03-.02c.15-.13.23-.36.21-.6-.02-.22-.12-.39-.26-.47l-.03-.02h-.04c-1.18.07-2.36.11-3.7.11-2.17,0-4.04-.04-5-.1h-.03s-.03,0-.03,0c-.19.08-.27.33-.27.53,0,.21.06.47.27.57l1.58.19c2.08.24,2.16.36,2.16,3.27v1.4c0,1.08-.17,1.7-.33,1.93-.31.48-1.46.99-3.75.99-6.4,0-10.38-4.55-10.38-11.88,0-4.59,2.52-9.96,9.64-9.96,4,0,6.18,1.5,7.05,4.88v.03s.03.02.03.02c.17.17.51.2.74.15.21-.05.36-.15.41-.3v-.03s0-.03,0-.03c-.35-2.36-.52-4.01-.52-5.06v-.15l-.15.02c-.36.05-1.31-.14-1.94-.28l-.18-.04c-.53-.12-2.41-.53-4.47-.53-4.87,0-8.52,1.35-11.19,4.13-2.05,2.19-3.18,5.16-3.18,8.38s1.13,5.9,3.26,8.03c2.53,2.57,6.26,3.92,10.77,3.92Z" fill="#212c47" stroke-width="0"/><path d="M337.5,116.34c7,0,12.27-5.31,12.27-12.34,0-3.23-1.09-6.21-3.07-8.4-2.22-2.44-5.4-3.73-9.2-3.73-7.17,0-12.59,5.37-12.59,12.48,0,5.96,4.32,11.99,12.59,11.99ZM328.66,103.22c0-7.4,4.44-10.03,8.24-10.03,6.73,0,9.12,6.4,9.12,11.88,0,7.32-4.35,9.92-8.07,9.92-6.38,0-9.29-6.1-9.29-11.78Z" fill="#212c47" stroke-width="0"/><path d="M366.27,115.78c3.83,0,7,.04,8.71.1h.08s.04-.07.04-.07c.51-.98,1.48-4.57,1.48-4.96,0-.07-.03-.21-.26-.32-.25-.12-.64-.14-.82.01l-.04.05c-.64,1.63-1.53,2.96-2.26,3.4-.54.3-1.28.44-4.21.44-2.6,0-3.33-.37-3.72-.77-.6-.63-.7-1.51-.7-3.69v-12.18c0-3.65.08-4.12,2.02-4.29l.84-.07.06-.02c.18-.12.19-.41.18-.53-.01-.21-.09-.47-.26-.56h-.03s-.03-.01-.03-.01c-1.66.07-2.9.11-4.3.11s-2.51-.03-4.55-.11h-.03s-.03.01-.03.01c-.18.09-.25.36-.26.56,0,.12,0,.41.18.53l.93.09c2.09.17,2.16.58,2.16,4.29v12.6c0,3.65-.06,4.05-1.99,4.25l-1.09.11-.03.03c-.16.16-.18.44-.15.64.04.21.13.37.25.43h.03s.03.01.03.01c2.01-.07,3.11-.1,4.55-.1h3.22Z" fill="#212c47" stroke-width="0"/><path d="M392.9,115.88h.03s.03-.01.03-.01c.17-.09.25-.34.26-.56,0-.12,0-.41-.18-.53l-.03-.02-1.22-.11c-1.96-.17-2.02-.58-2.02-4.25v-4.87c0-.81,0-.82,1.03-.82h2.38c1.24,0,2.17.03,2.66.17.54.17.84.53,1.04,1.24l.36,1.4.03.03c.19.17.49.21.71.18.18-.02.32-.1.39-.2l.02-.03v-.04c0-.36-.03-.81-.06-1.34-.04-.64-.08-1.36-.08-2.06s.04-1.46.08-2.13c.03-.55.06-1.03.06-1.41v-.04l-.02-.03c-.08-.12-.26-.2-.49-.21-.21,0-.48.04-.62.2l-.34,1.45c-.2.86-.44,1.01-.79,1.14-.39.13-1.46.2-2.94.2h-2.38q-1.03,0-1.03-.82v-7.39q0-1.28.92-1.28h2.14c1.46,0,2.61,0,3.36.21,1.73.45,2.1,1.78,2.36,3.23v.04s.04.03.04.03c.15.13.38.18.61.13.2-.04.36-.14.42-.27l.02-.03v-.03c-.07-1.27-.11-2.95-.11-4.61v-.16l-.15.04c-.44.1-2.51.1-4.7.1h-6.44c-1.32,0-2.49-.03-4.05-.11h-.03s-.03.01-.03.01c-.17.09-.25.36-.26.56,0,.12,0,.41.18.53l.61.09c1.93.23,1.99.64,1.99,4.29v12.6c0,3.67-.06,4.02-1.99,4.25l-.92.11-.03.03c-.16.16-.18.44-.15.64.04.21.13.37.25.43h.03s.03.01.03.01c1.57-.07,2.79-.1,4.37-.1,1.39,0,2.54.03,4.65.1Z" fill="#212c47" stroke-width="0"/><path d="M285.79,137.92c-.25-.06-.5-.02-.65.1l-.03.02v.03c-.73,1.84-2.62,4.93-7.21,4.93-6.14,0-10.27-4.54-10.27-11.29,0-7.75,5.05-10.52,9.78-10.52,3.95,0,6.32,1.69,7.05,5.01v.04s.04.03.04.03c.15.13.39.19.64.16.22-.03.39-.12.49-.25l.03-.04v-.05c-.28-2.07-.46-4.29-.5-5.13v-.13s-.14.01-.14.01c-.27.03-.49-.02-.85-.11l-.09-.02c-1.74-.48-4.42-.85-6.23-.85-3.72,0-7.01,1.04-9.53,3-2.83,2.2-4.46,5.62-4.46,9.38,0,4.04,1.78,7.5,5.03,9.73,2.37,1.59,5.25,2.37,8.79,2.37,2.22,0,4.77-.52,5.57-.81.36-.13.78-.27,1.2-.34h.05s.03-.05.03-.05c.57-.72,1.47-3.11,1.71-4.86v-.04s-.02-.04-.02-.04c-.08-.13-.23-.23-.44-.28Z" fill="#212c47" stroke-width="0"/><path d="M306.74,119.86c-7.17,0-12.59,5.37-12.59,12.48,0,5.96,4.32,11.99,12.59,11.99,7,0,12.27-5.31,12.27-12.34,0-3.23-1.09-6.21-3.07-8.4-2.22-2.44-5.4-3.73-9.2-3.73ZM315.26,133.08c0,7.32-4.35,9.92-8.07,9.92-6.38,0-9.29-6.1-9.29-11.78,0-7.4,4.44-10.03,8.24-10.03,6.73,0,9.12,6.4,9.12,11.88Z" fill="#212c47" stroke-width="0"/><path d="M351.99,120.32h-.04c-1.22.07-2.17.11-3.67.11-1.34,0-2.64-.03-3.98-.11h-.04s-.03.02-.03.02c-.13.08-.22.25-.24.45-.03.22.02.43.15.58l.03.04.93.07c.85.07,1.44.31,1.65.67.42.74.65,3.29.65,7.18v4.03c0,7.59-3.74,9.19-6.88,9.19-4.76,0-6.98-2.93-6.98-9.22v-7.56c0-3.65.07-4.12,1.99-4.29l.87-.07.03-.02c.13-.09.2-.27.18-.51-.01-.2-.09-.46-.26-.54h-.03s-.03-.01-.03-.01c-1.67.07-2.85.11-4.3.11s-2.63-.04-4.34-.11h-.03s-.03.01-.03.01c-.17.09-.25.35-.26.54-.01.24.05.43.18.51l.03.02.91.07c1.91.17,1.99.64,1.99,4.29v8.26c0,4.19.86,6.76,2.77,8.36,1.51,1.3,3.74,1.96,6.63,1.96,2.72,0,5.31-.99,6.78-2.59,1.67-1.79,2.48-4.55,2.48-8.45v-3.96c0-1.93,0-5.96.48-7.09.19-.41.82-.7,1.65-.77l.89-.07.03-.04c.13-.15.19-.4.16-.62-.03-.18-.12-.32-.25-.41l-.03-.02Z" fill="#212c47" stroke-width="0"/><path d="M382,143.25h-.04c-.88-.07-1.73-.42-2.34-.96-2.43-2.04-4.35-5-7.01-9.28-.21-.33-.27-.55-.2-.67,1.08-.44,4.42-2.11,4.42-5.95,0-2.86-1.62-4.3-2.97-5.01-1.73-.94-3.96-1.07-5.91-1.07-3.18,0-5.67.09-7.82.28h-.04c-.16.09-.26.27-.28.5-.02.25.07.49.23.6l1.18.16c1.28.16,1.43.56,1.43,3.97v12.57c0,3.67-.06,4.02-1.99,4.25l-.92.11-.03.04c-.16.19-.18.49-.14.68.04.19.13.33.25.39h.03s.03.01.03.01c1.78-.08,3.01-.1,4.37-.1,1.49,0,2.74.04,4.16.1h.03s.03-.01.03-.01c.13-.07.23-.25.26-.49.03-.26-.03-.48-.17-.6l-.03-.02-.77-.11c-1.94-.27-1.99-.61-1.99-4.25v-4.41c0-.63,0-.65,1.52-.65,1.4,0,1.9.36,2.38,1.07.54.78,1.16,1.77,1.77,2.73.62.98,1.2,1.91,1.66,2.56,2.38,3.38,4.16,4.46,7.35,4.46.65,0,1.24-.07,1.58-.18l.04-.02c.12-.1.18-.25.16-.41-.02-.14-.1-.25-.22-.3ZM365.77,122.65c0-.86,0-1,2.15-1,4.04,0,5.48,2.84,5.48,5.26,0,1.96-.56,3.35-1.7,4.24-1.03.78-2.43.88-3.53.88-1.79,0-2.25-.08-2.32-.12-.08-.11-.08-.54-.08-1.08v-8.19Z" fill="#212c47" stroke-width="0"/><path d="M397.7,130.91l-2.8-1.75c-1.09-.68-2.92-2.12-2.92-4.2,0-1.13.39-3.76,4.04-3.76,3.18,0,4.15,2.06,4.64,3.86l.03.05c.09.11.27.17.47.16.22-.01.49-.1.6-.27l.02-.03v-.04c0-1.54-.34-3.51-.64-4.31l-.03-.08h-.09c-.25,0-.73-.06-1.19-.21-.82-.22-2.12-.46-3.29-.46-4.35,0-7.27,2.47-7.27,6.15,0,2.97,2.09,4.97,3.84,6.12l3.33,2.17c2.47,1.59,2.81,3.25,2.81,4.79,0,1.94-1.31,3.9-4.25,3.9-3.63,0-5.21-2.79-5.9-5.13l-.02-.03c-.08-.11-.22-.18-.4-.18-.21,0-.5.08-.64.28l-.03.04v.04c.07,1.57.51,4.13.96,4.96l.02.03.03.02c.85.49,2.69,1.31,5.52,1.31,4.53,0,7.58-2.65,7.58-6.6,0-2.75-1.45-4.98-4.43-6.83Z" fill="#212c47" stroke-width="0"/><path d="M429.88,138.84c-.08-.18-.25-.31-.47-.37-.22-.06-.44-.03-.59.08l-.04.05c-.84,1.67-1.79,2.99-2.43,3.34-.78.39-1.85.51-4.42.51-3.12,0-3.78-.4-4.15-.77-.53-.56-.63-1.73-.63-3.55v-4.94c0-.81,0-.82,1.03-.82h2.03c1.27,0,2.16.03,2.67.17.67.17.87.69.99,1.24l.32,1.37.03.05c.14.17.43.21.63.19.23-.02.4-.11.48-.25l.02-.03v-.03c0-.34-.03-.78-.06-1.29-.04-.64-.08-1.37-.08-2.07s.04-1.49.08-2.15c.03-.54.06-1.01.06-1.38v-.03l-.02-.03c-.08-.14-.25-.23-.48-.25-.21-.02-.49.02-.63.19l-.31,1.49c-.17.88-.41,1.02-.76,1.13-.4.13-1.44.2-2.94.2h-2.03q-1.03,0-1.03-.85v-7q0-1.28.93-1.28h2.52c1.54,0,2.64.03,3.36.21,1.68.42,2.02,1.52,2.51,3.04l.06.2.02.04c.1.12.3.19.51.17.19-.01.45-.08.56-.25l.03-.04-.05-.52c-.14-1.54-.33-3.66-.52-4.21l-.04-.11-.11.03c-.41.1-2.49.1-4.7.1h-6.58c-1.35,0-2.5-.03-4.12-.11h-.03s-.03.01-.03.01c-.18.09-.25.36-.26.56,0,.12,0,.41.18.53l.62.09c1.96.23,2.02.64,2.02,4.29v12.6c0,3.69-.19,4.09-2.06,4.25l-1.2.11-.03.03c-.16.16-.18.44-.15.64.04.21.13.37.25.43h.03s.03.01.03.01c2.11-.07,3.27-.1,4.76-.1h3.15c3.07,0,6.23.04,9.38.1h.08s.03-.07.03-.07c.46-.96,1.34-3.66,1.59-4.9v-.04s0-.04,0-.04Z" fill="#212c47" stroke-width="0"/></svg>