<?xml version="1.0" encoding="UTF-8"?><svg id="Layer_1" xmlns="http://www.w3.org/2000/svg" width="545.83" height="117.42" viewBox="0 0 545.83 117.42"><path d="M16.99,40.35l-.94-4.75c-1.15-6.05-2.59-12.03-4.39-18-2.59-.14-5.11-.5-7.63-.72l3.67-1.94c2.3-.29,3.89-.43,4.83-.43h15.84l-2.23,2.3c-1.01.43-1.87.65-2.88.65l1.37,8.06c1.22,7.2,3.02,14.11,3.53,20.95,3.24-8.07,5.47-12.67,6.12-14.19l1.87-4.18c1.73-3.89,3.67-7.92,4.9-12.6,2.74-1.22,5.47-1.94,8.35-2.3.72,6.7,2.02,11.74,2.88,15.55l1.08,4.61c.58,2.38,1.73,7.27,3.46,14.69l2.74-4.39c4.32-6.91,6.98-12.6,6.98-18.22,0-3.67-1.44-6.77-4.25-9.43,3.17-1.58,6.05-2.74,8.64-3.53,3.74,2.02,5.47,4.32,5.47,7.56,0,5.62-6.05,11.59-13.03,22.61l-1.87,2.95c-1.94,3.17-3.74,6.62-5.4,10.44-2.59.72-5.26,1.66-7.78,2.59-1.3-8.42-2.67-13.75-3.24-16.2l-.86-3.67c-.72-3.1-1.87-7.78-3.17-14.04-3.6,7.78-5.69,12.46-6.34,13.9l-1.73,3.96c-1.73,4.03-3.53,8.57-5.26,13.75-2.81.79-5.33,1.51-7.27,2.02-1.51-8.71-2.81-14.69-3.46-18Z" fill="#76bdf0" stroke-width="0"/><path d="M80.79,31.79c1.44-1.3,4.03-2.95,7.85-4.68s6.99-2.52,9.22-2.52c7.27,0,11.38,4.61,11.38,13.39,0,6.48-1.66,11.09-5.18,13.83-5.47,4.25-12.31,6.55-16.56,6.55-7.13,0-11.16-4.54-11.16-13.25,0-6.19,1.73-10.8,4.46-13.32h0ZM93.39,54.54c3.96,0,6.05-4.32,6.05-12.75,0-8.93-2.88-13.46-7.06-13.46-3.82,0-6.26,4.39-6.26,12.24,0,9.15,3.02,13.97,7.27,13.97Z" fill="#76bdf0" stroke-width="0"/><path d="M119.23,31.79c1.44-1.3,4.03-2.95,7.85-4.68,3.82-1.73,6.99-2.52,9.22-2.52,7.27,0,11.38,4.61,11.38,13.39,0,6.48-1.66,11.09-5.18,13.83-5.47,4.25-12.31,6.55-16.56,6.55-7.13,0-11.16-4.54-11.16-13.25,0-6.19,1.73-10.8,4.46-13.32h-.01ZM131.83,54.54c3.96,0,6.05-4.32,6.05-12.75,0-8.93-2.88-13.46-7.06-13.46-3.82,0-6.26,4.39-6.26,12.24,0,9.15,3.02,13.97,7.27,13.97Z" fill="#76bdf0" stroke-width="0"/><path d="M166.68,53.67c-2.02,1.3-4.68,3.1-8.5,4.9-.72-.07-1.44-.29-2.16-.65-2.16-3.53-2.74-6.26-2.74-9.65,0-7.85,1.66-13.83,2.59-14.83.65-.72,4.97-4.1,13.18-8.21.79,0,1.51-.07,2.16-.07.14,0,.58.07,1.44.07.29-4.1.5-7.2,1.15-9.29,1.44-2.3,6.7-6.34,15.27-10.08.36,0,.65-.07,1.01-.07,1.58,0,3.24.36,5.11.86l-4.1,4.9c-2.81-.72-4.61-1.3-5.76-1.3-2.23,0-2.66,3.89-3.38,13.11l-.5,6.05c-.43,5.4-.58,9-.58,10.8,0,6.77.79,9.94,3.1,9.94.94,0,2.95-.86,6.12-2.3l-.43,2.45c-4.75,3.46-9.43,6.12-14.04,8.06-1.15-.29-2.02-.79-2.81-1.66-.58-2.16-1.08-4.18-1.3-6.19l-4.82,3.17h0ZM166.39,29.7c-2.81,0-4.11,4.25-4.11,13.1,0,4.32,1.3,7.56,3.46,7.56,1.37,0,3.02-1.15,5.54-2.74.07-6.12.43-9.86.5-11.45l.29-4.9c-2.16-1.08-4.1-1.58-5.69-1.58h.01Z" fill="#76bdf0" stroke-width="0"/><path d="M203.11,58.36c-.86-.07-1.8-.36-2.81-.72-2.88-4.54-4.11-8.14-4.11-10.01,0-1.01.29-4.1.72-9.29l.86-10.3c.72-8.42.79-13.18,2.88-15.34,1.37-1.37,5.04-4.1,11.02-6.84,1.37-.14,2.09-.22,2.3-.22,2.16,0,4.1.36,6.12,1.22l-4.03,4.54c-2.66-1.22-4.46-2.09-5.76-2.09-1.58,0-1.87,4.46-2.74,14.4l-1.08,12.24c-.36,4.32-.43,6.55-.43,6.7,0,3.82,2.23,7.63,4.18,7.63,1.15,0,3.6-1.15,7.49-3.24v2.52c-5.54,3.74-10.37,6.84-14.62,8.79h0Z" fill="#76bdf0" stroke-width="0"/><path d="M227.23,58.14c-.86-.07-1.66-.22-2.52-.5-2.38-2.95-3.6-5.69-3.6-8.5,0-7.63,1.3-13.39,2.74-15.91,3.67-2.67,8.43-5.4,13.9-7.99,1.22-.22,2.23-.36,3.17-.36,3.82,0,8.06.79,11.81,2.3l-2.74,2.52c-.79,4.18-1.22,8.14-1.22,12.1,0,5.83.5,8.86,2.3,8.86.86,0,2.95-1.15,6.55-3.1v2.45c-5.26,3.96-10.01,6.91-14.91,8.35-1.01-.43-1.87-1.01-2.74-1.73-.43-1.94-.72-3.89-.94-5.9-3.96,3.17-7.85,5.62-11.81,7.42h.01ZM240.26,31.35c-1.66-.94-3.53-1.44-5.4-1.44-3.17,0-4.61,4.25-4.61,12.96,0,4.97,1.8,7.7,3.24,7.7.72,0,1.73-.5,3.02-1.3l2.45-1.51c.29-6.48.65-11.95,1.3-16.42h0Z" fill="#76bdf0" stroke-width="0"/><path d="M266.47,43.74l.36-5.11c.07-1.37.14-2.59.14-3.75,0-2.52-.58-3.46-2.3-3.46-.72,0-2.16.29-4.25.79l.14-1.94c4.75-2.16,9.72-3.96,14.98-5.54.58.22,1.01.58,1.44,1.01-.07,2.45-.22,4.82-.43,7.06l5.98-3.02c5.18-2.66,8.86-4.68,11.45-5.11.86.14,1.58.5,2.23,1.08-.14,2.45-.29,5.04-.5,7.71l-.65,8.64c0,.36-.07.94-.07,1.58,0,4.03.94,5.98,3.53,5.98,1.44,0,3.1-.94,5.47-2.23l.87,2.38c-4.97,3.02-10.08,5.76-15.27,8.35-.86-.14-1.73-.36-2.52-.72-1.58-1.73-1.94-3.67-1.94-6.41,0-.07.07-1.01.22-2.88l.58-7.63c.22-3.38.29-5.18.29-5.4,0-1.94-.65-2.88-2.09-2.88-1.22,0-2.88.86-5.4,2.3l-2.45,1.44c-.65,7.56-1.08,14.19-1.37,20.02l-9.72,2.45c.79-6.99,1.08-11.88,1.3-14.69l-.02-.02Z" fill="#76bdf0" stroke-width="0"/><path d="M322.27,53.67c-2.02,1.3-4.68,3.1-8.5,4.9-.72-.07-1.44-.29-2.16-.65-2.16-3.53-2.74-6.26-2.74-9.65,0-7.85,1.66-13.83,2.59-14.83.65-.72,4.97-4.1,13.18-8.21.79,0,1.51-.07,2.16-.07.14,0,.58.07,1.44.07.29-4.1.5-7.2,1.15-9.29,1.44-2.3,6.7-6.34,15.27-10.08.36,0,.65-.07,1.01-.07,1.58,0,3.24.36,5.11.86l-4.1,4.9c-2.81-.72-4.61-1.3-5.76-1.3-2.23,0-2.66,3.89-3.38,13.11l-.5,6.05c-.43,5.4-.58,9-.58,10.8,0,6.77.79,9.94,3.1,9.94.94,0,2.95-.86,6.12-2.3l-.43,2.45c-4.75,3.46-9.43,6.12-14.04,8.06-1.15-.29-2.02-.79-2.81-1.66-.58-2.16-1.08-4.18-1.3-6.19l-4.82,3.17h0ZM321.98,29.7c-2.81,0-4.1,4.25-4.1,13.1,0,4.32,1.3,7.56,3.46,7.56,1.37,0,3.02-1.15,5.54-2.74.07-6.12.43-9.86.5-11.45l.29-4.9c-2.16-1.08-4.1-1.58-5.69-1.58h0Z" fill="#76bdf0" stroke-width="0"/><path d="M375.55,55.12c2.3-.29,4.1-.5,5.33-.65.79-8.28,1.22-14.19,1.44-17.71l.29-4.54c.36-5.62.72-10.51.72-14.76-2.38-.22-4.68-.58-7.06-.86l2.66-2.09c4.75.14,9,.22,12.6.22,1.8,0,5.33-.07,10.37-.22l-2.02,2.02c-2.09.43-4.03.79-6.05.94-.43,5.04-.72,9.58-.86,13.54,1.01,1.73,3.1,1.94,6.84,1.94,4.68,0,9-.07,12.96-.36.5-4.97.79-10.01,1.01-15.19-2.38-.22-4.82-.58-7.27-1.08l2.81-1.8c5.18.07,9.07.14,11.45.14,2.09,0,5.83,0,11.16-.14l-2.45,2.52c-1.8.29-3.6.43-5.4.58-.22,2.38-.72,7.42-1.22,15.34l-.43,6.41c-.29,4.75-.58,9.79-.79,15.05,2.59.22,5.04.5,7.34.94l-2.38,2.16c-4.9-.14-7.92-.14-8.93-.14-4.68,0-9.58.07-14.69.14l2.09-2.38c2.02-.43,4.1-.65,6.26-.79.65-5.83,1.01-11.67,1.15-17.35-.72-1.44-3.17-1.87-7.63-1.87-2.38,0-6.48.14-12.24.58-.58,6.19-1.01,12.46-1.15,18.65,2.88.29,5.47.65,7.71,1.08l-3.02,2.3c-4.32-.29-8.35-.5-11.88-.5-1.87,0-5.69.07-11.52.29l2.81-2.38v-.03Z" fill="#76bdf0" stroke-width="0"/><path d="M440.64,58.43c-.94-.07-1.66-.29-2.3-.79-1.08-1.87-1.3-3.82-1.3-6.05,0-1.37.14-3.82.5-7.42l.43-4.46c.22-2.38.29-3.89.29-4.54,0-3.17-.58-3.96-3.24-3.96-1.15,0-2.3.22-3.74.65v-1.87c5.69-2.38,10.73-4.1,15.41-5.04.86.22,1.44.58,2.02,1.15,0,3.38-.29,5.9-.43,7.49l-.58,5.54c-.29,2.81-.58,4.82-.58,6.19,0,3.38,1.01,5.18,2.3,5.18,1.22,0,3.53-.79,7.06-2.02l-.22,2.3c-5.83,3.38-11.02,5.9-15.63,7.63v.02ZM437.83,15.8c2.02-1.8,4.39-3.67,7.06-5.54,1.51,2.16,3.1,4.18,4.75,6.05-1.51,1.94-3.53,3.96-6.19,6.05-2.16-2.09-4.03-4.25-5.62-6.55h0Z" fill="#76bdf0" stroke-width="0"/><path d="M469.51,58.36c-.86-.07-1.8-.36-2.81-.72-2.88-4.54-4.1-8.14-4.1-10.01,0-1.01.29-4.1.72-9.29l.86-10.3c.72-8.42.79-13.18,2.88-15.34,1.37-1.37,5.04-4.1,11.02-6.84,1.37-.14,2.09-.22,2.3-.22,2.16,0,4.1.36,6.12,1.22l-4.03,4.54c-2.66-1.22-4.46-2.09-5.76-2.09-1.58,0-1.87,4.46-2.74,14.4l-1.08,12.24c-.36,4.32-.43,6.55-.43,6.7,0,3.82,2.23,7.63,4.18,7.63,1.15,0,3.6-1.15,7.49-3.24v2.52c-5.54,3.74-10.37,6.84-14.62,8.79h0Z" fill="#76bdf0" stroke-width="0"/><path d="M495.36,58.36c-.86-.07-1.8-.36-2.81-.72-2.88-4.54-4.1-8.14-4.1-10.01,0-1.01.29-4.1.72-9.29l.86-10.3c.72-8.42.79-13.18,2.88-15.34,1.37-1.37,5.04-4.1,11.02-6.84,1.37-.14,2.09-.22,2.3-.22,2.16,0,4.1.36,6.12,1.22l-4.03,4.54c-2.66-1.22-4.46-2.09-5.76-2.09-1.58,0-1.87,4.46-2.74,14.4l-1.08,12.24c-.36,4.32-.43,6.55-.43,6.7,0,3.82,2.23,7.63,4.18,7.63,1.15,0,3.6-1.15,7.49-3.24v2.52c-5.54,3.74-10.37,6.84-14.62,8.79h0Z" fill="#76bdf0" stroke-width="0"/><path d="M518.11,46.04c1.66,5.9,4.75,8.93,8.42,8.93,2.74,0,4.75-1.94,4.75-4.32,0-3.24-3.38-3.82-7.06-5.26-4.54-1.73-6.62-3.82-6.62-7.71,0-3.38,1.51-5.69,4.18-8.21,3.17-2.95,5.47-4.97,10.08-4.97,3.46,0,5.98,1.37,7.49,4.03l-3.46,6.26c-2.45-4.18-5.26-6.26-8.21-6.26-2.23,0-3.6,1.22-3.6,3.17,0,3.24,2.95,4.39,7.2,5.83,5.33,1.8,7.78,3.82,7.78,7.85,0,3.67-2.09,6.62-6.05,9.22-3.82,2.52-7.06,3.96-10.66,3.96-4.82,0-7.7-2.38-10.08-7.63l5.83-4.9h0Z" fill="#76bdf0" stroke-width="0"/><path d="M58.71,111.46c-1.28.46-2.8.69-4.58.69s-3.43-.38-4.86-1.14-2.64-1.84-3.63-3.25c-.99-1.4-1.75-3.08-2.28-5.03s-.79-4.11-.79-6.49.26-4.46.77-6.41c.52-1.95,1.26-3.63,2.24-5.05.97-1.42,2.15-2.52,3.53-3.31s2.92-1.18,4.64-1.18c1.81,0,3.37.32,4.69.97s2.39,1.56,3.23,2.73l-2.97,3.61c-1.15-1.66-2.7-2.49-4.64-2.49-1.06,0-1.99.3-2.77.9-.79.6-1.44,1.41-1.96,2.43s-.9,2.2-1.16,3.55c-.26,1.35-.39,2.77-.39,4.26s.13,3,.39,4.36.64,2.55,1.16,3.57,1.17,1.81,1.96,2.39c.79.57,1.73.86,2.82.86.69,0,1.31-.08,1.87-.24.56-.16,1.01-.37,1.35-.62v-7.87h-3.7v-4.47h8.38v15.44c-.92.75-2.01,1.35-3.29,1.81v-.02Z" fill="#76bdf0" stroke-width="0"/><path d="M112.22,96.24c0,2.41-.25,4.59-.75,6.56-.5,1.96-1.23,3.65-2.17,5.05-.95,1.41-2.1,2.49-3.46,3.27-1.36.77-2.89,1.16-4.58,1.16s-3.25-.39-4.6-1.16c-1.35-.77-2.49-1.86-3.44-3.27-.95-1.4-1.67-3.09-2.17-5.05-.5-1.96-.75-4.15-.75-6.56s.24-4.59.73-6.54c.49-1.95,1.2-3.63,2.15-5.03.95-1.4,2.1-2.49,3.46-3.25s2.9-1.14,4.62-1.14,3.22.38,4.58,1.14,2.52,1.84,3.46,3.25c.95,1.41,1.67,3.08,2.17,5.03s.75,4.13.75,6.54ZM106.89,96.24c0-1.55-.12-3-.37-4.37-.24-1.36-.6-2.54-1.08-3.53-.47-.99-1.06-1.77-1.76-2.34-.7-.57-1.51-.86-2.43-.86s-1.77.29-2.47.86c-.7.57-1.29,1.35-1.76,2.34s-.82,2.17-1.05,3.53-.34,2.82-.34,4.37.11,3,.34,4.36.58,2.54,1.05,3.55c.47,1,1.06,1.79,1.76,2.36.7.57,1.53.86,2.47.86s1.77-.29,2.47-.86c.7-.57,1.29-1.36,1.76-2.36s.82-2.19,1.05-3.55.34-2.82.34-4.36h.02Z" fill="#76bdf0" stroke-width="0"/><path d="M141.16,111.5v-30.44h5.2v25.67h8.38v4.77h-13.59,0Z" fill="#76bdf0" stroke-width="0"/><path d="M187.39,85.7v8.34h7.83v4.39h-7.78v13.07h-5.2v-30.44h13.63v4.64h-8.48Z" fill="#76bdf0" stroke-width="0"/><path d="M271.39,111.16c-1.25.75-2.82,1.12-4.71,1.12-1.72,0-3.28-.4-4.67-1.2-1.39-.8-2.57-1.91-3.53-3.33s-1.71-3.1-2.24-5.05c-.53-1.95-.8-4.08-.8-6.41s.26-4.46.8-6.43c.53-1.96,1.28-3.66,2.26-5.07.97-1.42,2.16-2.52,3.55-3.31s2.93-1.18,4.62-1.18,3.28.32,4.6.97,2.39,1.57,3.22,2.77l-2.97,3.61c-1.18-1.69-2.69-2.54-4.56-2.54-1.03,0-1.94.29-2.71.88s-1.42,1.38-1.94,2.39c-.52,1-.9,2.19-1.16,3.55s-.39,2.82-.39,4.37.13,2.96.39,4.32.64,2.54,1.16,3.55c.52,1,1.17,1.8,1.96,2.39.79.59,1.71.88,2.77.88,1,0,1.87-.26,2.6-.77.73-.52,1.34-1.15,1.83-1.89l2.97,3.48c-.8,1.2-1.83,2.18-3.07,2.92l.02-.02Z" fill="#76bdf0" stroke-width="0"/><path d="M322.32,96.24c0,2.41-.25,4.59-.75,6.56-.5,1.96-1.23,3.65-2.17,5.05-.95,1.41-2.1,2.49-3.46,3.27-1.36.77-2.89,1.16-4.58,1.16s-3.25-.39-4.6-1.16c-1.35-.77-2.49-1.86-3.44-3.27-.95-1.4-1.67-3.09-2.17-5.05-.5-1.96-.75-4.15-.75-6.56s.24-4.59.73-6.54c.49-1.95,1.2-3.63,2.15-5.03.95-1.4,2.1-2.49,3.46-3.25s2.9-1.14,4.62-1.14,3.22.38,4.58,1.14,2.52,1.84,3.46,3.25c.95,1.41,1.67,3.08,2.17,5.03s.75,4.13.75,6.54h0ZM316.99,96.24c0-1.55-.12-3-.37-4.37-.24-1.36-.6-2.54-1.07-3.53s-1.06-1.77-1.76-2.34-1.51-.86-2.43-.86-1.77.29-2.47.86-1.29,1.35-1.76,2.34-.82,2.17-1.05,3.53c-.23,1.36-.34,2.82-.34,4.37s.11,3,.34,4.36.58,2.54,1.05,3.55c.47,1,1.06,1.79,1.76,2.36s1.53.86,2.47.86,1.77-.29,2.47-.86,1.29-1.36,1.76-2.36.82-2.19,1.05-3.55.34-2.82.34-4.36h.01Z" fill="#76bdf0" stroke-width="0"/><path d="M369.41,105.22c-.34,1.41-.9,2.63-1.68,3.68-.77,1.05-1.77,1.87-2.99,2.47s-2.7.9-4.45.9-3.22-.3-4.43-.9c-1.2-.6-2.19-1.43-2.95-2.47-.76-1.05-1.31-2.27-1.63-3.68-.33-1.4-.49-2.91-.49-4.51v-19.65h5.16v19.18c0,.95.06,1.86.19,2.73s.36,1.64.69,2.3c.33.66.78,1.18,1.35,1.57s1.3.58,2.19.58,1.62-.19,2.19-.58,1.02-.91,1.35-1.57c.33-.66.56-1.43.69-2.3s.19-1.79.19-2.73v-19.18h5.12v19.65c0,1.61-.17,3.11-.52,4.51h.02Z" fill="#76bdf0" stroke-width="0"/><path d="M412.36,111.5l-4.73-12.99h-2.88v12.99h-4.99v-30.44h8.69c1.26,0,2.42.17,3.48.5s1.97.85,2.73,1.57,1.35,1.62,1.79,2.71c.43,1.09.64,2.39.64,3.91,0,1.18-.15,2.21-.45,3.12s-.68,1.67-1.14,2.3c-.46.63-.97,1.14-1.53,1.53s-1.11.65-1.66.8l5.46,14.02h-5.42v-.02ZM412.02,90c0-.92-.13-1.68-.39-2.28s-.59-1.07-1.01-1.42c-.42-.34-.88-.59-1.4-.73-.52-.14-1.03-.21-1.55-.21h-2.92v9.37h2.92c1.26,0,2.3-.39,3.12-1.18s1.22-1.97,1.22-3.55h.01Z" fill="#76bdf0" stroke-width="0"/><path d="M457.9,86.95c-1.12-1.35-2.52-2.02-4.21-2.02-.49,0-.96.08-1.42.24-.46.16-.88.41-1.25.75s-.67.79-.88,1.33-.32,1.19-.32,1.93c0,1.29.39,2.29,1.16,2.99s1.79,1.37,3.05,2c.75.37,1.5.8,2.28,1.29.77.49,1.48,1.08,2.11,1.76.63.69,1.15,1.5,1.55,2.45s.6,2.06.6,3.35c0,1.49-.24,2.81-.71,3.96s-1.1,2.11-1.89,2.9-1.71,1.38-2.77,1.78-2.18.6-3.35.6c-1.69,0-3.25-.33-4.69-.99s-2.58-1.49-3.44-2.49l2.79-3.78c.66.8,1.45,1.43,2.39,1.89.93.46,1.88.69,2.86.69,1.09,0,1.99-.37,2.71-1.12s1.07-1.79,1.07-3.14-.43-2.37-1.29-3.14c-.86-.77-1.95-1.49-3.27-2.15-.83-.4-1.61-.85-2.34-1.33-.73-.49-1.38-1.07-1.93-1.74-.56-.67-1-1.46-1.33-2.37-.33-.9-.49-1.98-.49-3.25,0-1.58.25-2.93.75-4.06s1.16-2.07,1.98-2.82,1.74-1.3,2.77-1.66,2.08-.54,3.14-.54c1.55,0,2.93.25,4.15.75s2.24,1.24,3.07,2.21l-2.84,3.7v.03Z" fill="#76bdf0" stroke-width="0"/><path d="M489.37,111.5v-30.44h13.63v4.56h-8.69v8.08h8.04v4.21h-8.04v8.99h9.12v4.6s-14.06,0-14.06,0Z" fill="#76bdf0" stroke-width="0"/></svg>